<?xml version="1.0" encoding="utf-8"?>
<!-- Generator: Adobe Illustrator 22.1.0, SVG Export Plug-In . SVG Version: 6.00 Build 0)  -->
<svg version="1.1" id="Layer_1" xmlns="http://www.w3.org/2000/svg" xmlns:xlink="http://www.w3.org/1999/xlink" x="0px" y="0px"
	 viewBox="0 0 210.9 89.6" style="enable-background:new 0 0 210.9 89.6;" xml:space="preserve">
<style type="text/css">
	.st0{fill:#f47920;}
	.st1{fill:#0090C6;}
	.st2{fill:#F47920;}
</style>
<g>
	<path class="st0" d="M43.8,77.4c0,4.9-2.5,7.4-7.4,7.4H11.1c-4.8,0-7.2-2.5-7.2-7.4V11.1c0-5,2.4-7.5,7.2-7.5h25.3
		c4.9,0,7.4,2.5,7.4,7.5v19H31.8v-16H16v60.3h15.7V57.3h12.1V77.4z"/>
	<path class="st1" d="M77,84.8h-8.9c-7.1,0-10.7-3.7-10.7-11.1V52.3l-8.8-8.6V42l8.8-8.6V14.8c0-7.4,3.6-11.1,10.7-11.1H77v9.3
		c-0.4,0-1,0-1.9-0.1c-0.9-0.1-1.6-0.1-2.1-0.1c-3.5,0-5.2,1.3-5.2,3.8v15.8c0,1.7-0.2,2.9-0.5,3.7c-0.3,0.8-1.1,1.7-2.3,2.7l-4.9,4
		l4.9,4.1c1.2,1,2,2,2.4,2.8c0.3,0.7,0.4,1.9,0.4,3.5v18.5c0,2.6,1.8,3.9,5.3,3.9c0.5,0,1.2,0,2.1-0.1c0.9,0,1.5-0.1,1.9-0.1V84.8z"
		/>
	<path class="st2" d="M88.3,50.5H76.6V38h11.7V50.5z"/>
	<path class="st1" d="M115.5,43.6l-8.8,8.6v21.4c0,7.4-3.6,11.1-10.7,11.1H87v-9.3c0.3,0,0.9,0,1.8,0.1c0.9,0,1.6,0.1,2.1,0.1
		c3.6,0,5.5-1.3,5.5-3.9V53.3c0-1.7,0.1-2.9,0.4-3.6c0.3-0.8,1.1-1.6,2.3-2.7l4.9-4.1l-4.9-4c-1.2-1-2-2-2.3-2.8
		c-0.3-0.7-0.4-1.9-0.4-3.6V16.5c0-2.5-1.8-3.7-5.3-3.7c-0.5,0-1.2,0-2.1,0.1c-0.9,0-1.6,0.1-1.9,0.1V3.7h8.9
		c7.2,0,10.7,3.7,10.7,11.1v18.6l8.8,8.6V43.6z"/>
	<path class="st0" d="M162.5,69.5c0,4.8-1.4,8.5-4.3,11.2c-2.8,2.7-6.7,4.1-11.5,4.1h-24.7V3.7h24.7c4.8,0,8.6,1.4,11.5,4.1
		c2.8,2.7,4.3,6.5,4.3,11.3V69.5z M150.3,67.5V20.9c0-4.5-2.4-6.8-7.1-6.8h-9v60.3h8.7C147.9,74.4,150.3,72.1,150.3,67.5z"/>
	<path class="st0" d="M206.6,84.8H173V3.7h33.3v10.7h-21.2v23.7h18.3v10.5h-18.3v25.5h21.5V84.8z"/>
</g>
</svg>
