<?xml version="1.0" standalone="no"?>
<!DOCTYPE svg PUBLIC "-//W3C//DTD SVG 1.1//EN" "http://www.w3.org/Graphics/SVG/1.1/DTD/svg11.dtd" >
<svg xmlns="http://www.w3.org/2000/svg" xmlns:xlink="http://www.w3.org/1999/xlink" version="1.1">
<metadata>
Created by FontForge 20201107 at Thu Feb  1 10:15:07 2024
 By 
Copyright (c) 2012 by Fontfabric LLC. All rights reserved.
</metadata>
<defs>
<font id="Nexa-Regular" horiz-adv-x="1419" >
  <font-face 
    font-family="Nexa"
    font-weight="400"
    font-stretch="normal"
    units-per-em="2048"
    panose-1="2 0 5 0 0 0 0 0 0 0"
    ascent="1434"
    descent="-614"
    x-height="1012"
    cap-height="1434"
    bbox="-311 -606 2205 1933"
    underline-thickness="102"
    underline-position="-204"
    unicode-range="U+000D-FB02"
  />
<missing-glyph horiz-adv-x="1308" 
d="M76 1434h1102v-1434h-1102v1434zM383 913l2 -2q0 65 37 108.5t88 60t111 16.5q48 0 89 -8t80.5 -27.5t62.5 -58t24 -93.5q0 -39 -11.5 -68t-33.5 -46.5t-45 -29t-54 -23.5q-9 -3 -14 -5q-68 -26 -105.5 -57.5t-58 -91t-20.5 -156.5h122q0 98 21 136t92 65q10 5 38.5 17
t45 21t42 24.5t41 34t32 44t23.5 60.5t7 77q0 80 -32 140t-87 93.5t-120 49.5t-139 16q-72 0 -134.5 -17t-114.5 -51t-82 -93t-30 -136h123zM514 264q0 -32 16.5 -53.5t40 -26.5t47 -0.5t40 26t16.5 52.5q0 32 -16.5 53.5t-40 26.5t-47 0.5t-40 -26t-16.5 -52.5z" />
    <glyph glyph-name=".notdef" horiz-adv-x="1308" 
d="M76 1434h1102v-1434h-1102v1434zM383 913l2 -2q0 65 37 108.5t88 60t111 16.5q48 0 89 -8t80.5 -27.5t62.5 -58t24 -93.5q0 -39 -11.5 -68t-33.5 -46.5t-45 -29t-54 -23.5q-9 -3 -14 -5q-68 -26 -105.5 -57.5t-58 -91t-20.5 -156.5h122q0 98 21 136t92 65q10 5 38.5 17
t45 21t42 24.5t41 34t32 44t23.5 60.5t7 77q0 80 -32 140t-87 93.5t-120 49.5t-139 16q-72 0 -134.5 -17t-114.5 -51t-82 -93t-30 -136h123zM514 264q0 -32 16.5 -53.5t40 -26.5t47 -0.5t40 26t16.5 52.5q0 32 -16.5 53.5t-40 26.5t-47 0.5t-40 -26t-16.5 -52.5z" />
    <glyph glyph-name=".null" horiz-adv-x="0" 
 />
    <glyph glyph-name="nonmarkingreturn" horiz-adv-x="682" 
 />
    <glyph glyph-name="CR" unicode="&#xd;" horiz-adv-x="548" 
 />
    <glyph glyph-name="space" unicode=" " horiz-adv-x="524" 
 />
    <glyph glyph-name="exclam" unicode="!" horiz-adv-x="540" 
d="M358 1434v-1106h-178v1106h178zM154 106q0 55 37 86.5t81.5 31.5t81.5 -31.5t37 -86.5t-37 -86.5t-81.5 -31.5t-81.5 31.5t-37 86.5z" />
    <glyph glyph-name="quotedbl" unicode="&#x22;" horiz-adv-x="776" 
d="M303 1436v-535h-151v535h151zM625 1436v-535h-152v535h152z" />
    <glyph glyph-name="numbersign" unicode="#" horiz-adv-x="1357" 
d="M682 1434l-80 -328h342l82 328h168l-82 -328h168v-150h-205l-125 -485h180v-154h-215l-77 -317h-168l78 317h-345l-77 -317h-166l78 317h-162v154h198l125 485h-172v150h207l80 328h168zM567 965l-129 -502h344l127 502h-342z" />
    <glyph glyph-name="dollar" unicode="$" horiz-adv-x="1368" 
d="M782 1649v4v-195q337 -34 455 -262l-147 -74q-48 84 -163.5 133.5t-234.5 51.5q-67 0 -132.5 -13.5t-125 -41.5t-95 -77.5t-34.5 -113.5q0 -34 12 -62t30 -48.5t48.5 -38.5t60.5 -30t74.5 -23t81 -18t88.5 -16q219 -34 313 -66q197 -67 252 -214q23 -64 23 -144
q-1 -79 -30.5 -145.5t-79 -113t-115 -80t-137 -51t-146.5 -21.5v-203h-166v199q-85 5 -163.5 25.5t-151 56.5t-131 94t-94.5 133l155 74q51 -107 184 -165.5t275 -58.5q72 0 142.5 14t134.5 43t103.5 81t39.5 120q0 43 -15.5 78.5t-48 61t-68.5 44.5t-90 33.5t-98.5 24
t-107.5 19.5q-105 16 -165.5 28.5t-144.5 41.5t-129 67t-79 103.5t-35 152.5q-1 95 41 170.5t114.5 121.5t156 72t175.5 33v195h168z" />
    <glyph glyph-name="percent" unicode="%" horiz-adv-x="1523" 
d="M395 1452q78 0 141 -27t101.5 -70.5t59.5 -99.5t21 -114.5t-21 -114.5t-59.5 -99.5t-101.5 -70.5t-141 -27q-77 0 -140 27t-101.5 70.5t-59 99.5t-20.5 114.5t20.5 114.5t59 99.5t101.5 70.5t140 27zM1126 1438h189l-926 -1438h-190zM395 1319h-2q-49 0 -88 -19.5
t-58.5 -50.5t-28.5 -69t0.5 -76t30 -69t59.5 -50.5t89 -19.5q49 0 87.5 19.5t58 50.5t28.5 69t-0.5 76t-29.5 69t-58.5 50.5t-87.5 19.5zM1128 608h-2q78 0 141 -26.5t101.5 -70.5t59.5 -100t21 -114t-21 -114t-59.5 -100t-101.5 -70.5t-141 -26.5q-88 0 -157 34.5t-105 89
t-52.5 121t0.5 133t53 121t105.5 89t157.5 34.5zM1126 477q-57 0 -99 -26.5t-61 -66.5t-19 -86t19 -86t61 -66.5t99 -26.5q49 0 88 19.5t58.5 51.5t29 70t0 76t-29.5 70t-58.5 51.5t-87.5 19.5z" />
    <glyph glyph-name="ampersand" unicode="&#x26;" horiz-adv-x="1431" 
d="M991 1071v4q0 53 -18 93t-47 64.5t-72.5 39.5t-88 20.5t-99.5 5.5q-173 0 -261 -72.5t-86 -176.5q1 -66 35.5 -115.5t89.5 -75.5t112 -38.5t114 -12.5h637v-145h-127v-267q0 -105 35.5 -170.5t119.5 -64.5v-162q-91 -6 -159.5 36.5t-94.5 141.5q-69 -111 -175 -152.5
t-240 -41.5q-258 0 -402.5 105t-144.5 319q0 110 74.5 200t183.5 127q-103 32 -167.5 119.5t-64.5 191.5q0 189 148 296.5t377 107.5q77 0 143.5 -10t132 -36.5t111 -67.5t74 -108.5t28.5 -154.5h-168zM1018 664h-361q-88 0 -159 -22.5t-114 -60t-66 -81.5t-23 -90
q0 -127 98.5 -198t268.5 -71q43 0 88.5 7.5t94 27t86.5 47.5t62.5 74t24.5 102v265z" />
    <glyph glyph-name="quotesingle" unicode="'" horiz-adv-x="456" 
d="M305 1438v-537h-153v537h153z" />
    <glyph glyph-name="parenleft" unicode="(" horiz-adv-x="694" 
d="M643 1386q-181 -134 -277 -341t-98 -443q-2 -242 93 -448.5t282 -346.5l-90 -126q-224 146 -342.5 392t-118.5 521q0 272 120 517t345 394z" />
    <glyph glyph-name="parenright" unicode=")" horiz-adv-x="694" 
d="M137 1509q225 -148 345 -392.5t120 -516.5q0 -275 -118.5 -521.5t-342.5 -393.5l-88 125q186 139 280.5 346.5t92.5 449.5q-2 236 -98 443.5t-277 341.5z" />
    <glyph glyph-name="asterisk" unicode="*" horiz-adv-x="772" 
d="M498 934l-115 162l-113 -162l-108 78l125 151l-174 43l37 127l174 -61l-7 178h134l-11 -180l185 61l37 -125l-185 -43l127 -151z" />
    <glyph glyph-name="plus" unicode="+" horiz-adv-x="1024" 
d="M96 784h332v330h164v-330h336v-157h-336v-338h-164v338h-332v157z" />
    <glyph glyph-name="comma" unicode="," horiz-adv-x="485" 
d="M203 -6l2 4q-32 8 -52 31.5t-20 58.5q0 41 22.5 68.5t54.5 33t64.5 -1.5t55 -35t22.5 -69q0 -8 -12.5 -45.5t-36 -107.5t-39.5 -121h-112z" />
    <glyph glyph-name="hyphen" unicode="-" horiz-adv-x="1015" 
d="M141 668h733v-160h-733v160z" />
    <glyph glyph-name="period" unicode="." horiz-adv-x="487" 
d="M133 92q0 41 23 69.5t55.5 35t64.5 -0.5t55 -35.5t23 -70.5q0 -41 -23 -69.5t-55.5 -35t-64.5 0.5t-55 35.5t-23 70.5z" />
    <glyph glyph-name="slash" unicode="/" horiz-adv-x="1005" 
d="M778 1561h176l-729 -1729h-174z" />
    <glyph glyph-name="zero" unicode="0" horiz-adv-x="1413" 
d="M127 860q0 144 50 260t131.5 187.5t185.5 110t212.5 38.5t212.5 -38.5t185.5 -110t131.5 -188t50 -259.5v-287q0 -143 -50 -259.5t-131.5 -188t-185.5 -110t-212.5 -38.5t-212.5 38.5t-185.5 110t-131.5 187.5t-50 260v287zM305 573q0 -118 44.5 -210t115 -139.5
t156 -69.5t171.5 0.5t156.5 70.5t115 140t44.5 210v287q0 116 -44.5 207.5t-115 139t-156.5 70t-171.5 0t-156 -69.5t-115 -139.5t-44.5 -209.5v-287z" />
    <glyph glyph-name="one" unicode="1" horiz-adv-x="864" 
d="M106 150h267v1060l-252 -67v164l430 127v-1284h260v-150h-705v150z" />
    <glyph glyph-name="two" unicode="2" horiz-adv-x="1380" 
d="M317 1036h-178q4 114 55.5 198t135.5 129.5t177.5 66t199.5 20.5q83 0 160 -13.5t149.5 -45.5t125.5 -80t85.5 -122.5t32.5 -166.5q0 -95 -32.5 -169.5t-85.5 -122.5t-127 -79t-152 -44t-165 -13q-56 -1 -105.5 -7t-103.5 -22.5t-92 -43t-63 -71.5t-25 -104v-176h944
v-170h-1124v346q0 94 33.5 167t87.5 119t129.5 75.5t152.5 41t164 11.5q50 0 99 7t102.5 25.5t93.5 46.5t66 75t26 106q0 75 -32.5 130t-88.5 84.5t-118.5 43.5t-136.5 16q-71 0 -136 -13t-123.5 -41.5t-94 -81t-36.5 -122.5z" />
    <glyph glyph-name="three" unicode="3" horiz-adv-x="1374" 
d="M135 1061l-4 2q1 87 34.5 156.5t88 113t128 72t148 40t154.5 11.5q155 0 277.5 -47.5t194.5 -140.5t73 -217q0 -110 -71.5 -197t-184.5 -113q121 -30 202.5 -121t81.5 -208q0 -137 -77.5 -235.5t-205.5 -145.5t-292 -47q-82 0 -158.5 11.5t-153.5 41t-133 74t-91 117
t-35 163.5h178q1 -62 28.5 -108t67 -71t96.5 -40.5t104 -20t101 -4.5q175 0 284 68.5t109 190.5q0 47 -22 91t-66 82t-121 60.5t-176 22.5h-231v149h219q164 0 266.5 67.5t104.5 170.5q2 99 -91.5 171t-275.5 72q-51 0 -98.5 -5t-99.5 -20.5t-90 -40.5t-62.5 -67.5
t-24.5 -97.5h-176z" />
    <glyph glyph-name="four" unicode="4" horiz-adv-x="1351" 
d="M905 301h-827l-25 197l746 936h286v-967h175v-166h-175v-301h-180v301zM905 467v831l-663 -831h663z" />
    <glyph glyph-name="five" unicode="5" horiz-adv-x="1347" 
d="M707 899q258 0 401 -120t143 -328t-152.5 -335.5t-404.5 -127.5q-90 0 -168.5 12.5t-153 43t-127.5 78t-85 121.5t-33 169h178q0 -60 24.5 -106.5t62.5 -74t91 -45t103 -24t104 -6.5q172 0 277.5 79t105.5 214q0 129 -94.5 205.5t-271.5 76.5h-553v703h1015v-164h-841
v-371h379z" />
    <glyph glyph-name="six" unicode="6" horiz-adv-x="1417" 
d="M330 717q66 90 175.5 132t231.5 42q87 0 167 -15t155 -50t130.5 -86.5t88.5 -130t33 -175.5q0 -93 -33 -170.5t-89 -129.5t-131 -88.5t-156 -52.5t-167 -16q-87 0 -169 16.5t-157.5 53.5t-131.5 90t-89.5 131t-33.5 172v586q0 106 48 190t129 135.5t180 78t208 26.5
q114 0 212.5 -23.5t177 -70t125 -122.5t50.5 -173h-178q-3 76 -58.5 131t-140 81t-186.5 26t-189.5 -32t-144.5 -97.5t-57 -151.5v-307zM735 141q75 1 143 17t126.5 49t93.5 91.5t35 135.5q0 62 -22.5 112.5t-60 84.5t-88.5 57t-107 33t-116 10q-75 0 -145.5 -18.5
t-129.5 -53.5t-94.5 -93.5t-35.5 -131.5q0 -76 35.5 -135t94.5 -92t127.5 -49.5t143.5 -16.5z" />
    <glyph glyph-name="seven" unicode="7" horiz-adv-x="1148" 
d="M905 1266h-842v168h1049l14 -115l-716 -1319h-203z" />
    <glyph glyph-name="eight" unicode="8" horiz-adv-x="1439" 
d="M117 406q0 117 77 209t199 126q-246 95 -246 312q0 106 50 187.5t133.5 128.5t182 70t206.5 23t206.5 -23t183 -69.5t135.5 -128t52 -188.5q0 -105 -69.5 -188t-184.5 -122q120 -34 200 -130t81 -212q1 -98 -34.5 -174.5t-93.5 -124.5t-138.5 -79t-163 -43t-174.5 -11
q-91 0 -172.5 12t-162.5 43t-138.5 79t-93.5 126t-35 177zM1116 1057q1 64 -36 115t-96.5 81t-128 45t-138.5 15q-98 0 -184.5 -26.5t-147 -86.5t-59.5 -143q1 -63 38.5 -112t97 -76.5t125.5 -41.5t132 -14q67 0 133.5 14t127 41.5t98.5 76.5t38 112zM719 672
q-70 2 -140.5 -12t-136 -43.5t-106.5 -83.5t-41 -125t38 -126t101 -86.5t135 -47t148 -15.5q75 0 147.5 15.5t137 46t104 85.5t39.5 126q0 69 -41.5 123t-107.5 83.5t-137 44.5t-140 15z" />
    <glyph glyph-name="nine" unicode="9" horiz-adv-x="1413" 
d="M1090 414v313q-64 -94 -173.5 -137t-234.5 -43q-87 0 -167 15t-155 50t-130 86.5t-88 130t-33 175.5q0 93 33 170.5t89 129.5t130.5 88t155.5 52t167 16q87 0 169.5 -16.5t157.5 -53.5t131.5 -90t90 -131t33.5 -172v-585q0 -85 -31.5 -157t-86 -121.5t-127 -84t-154 -51
t-167.5 -16.5q-114 0 -213 23.5t-177.5 70t-125.5 122.5t-51 173h178q3 -73 58.5 -127t141 -79.5t187.5 -25.5q74 0 143 18t125 51.5t90 87t34 118.5zM684 1298q-74 -1 -141 -17t-125.5 -49.5t-93.5 -92t-35 -135.5q0 -76 34 -135t91 -93t125 -51.5t143 -17.5t145.5 18.5
t129 53.5t93.5 93.5t35 131.5q0 77 -35 135.5t-94 92t-127.5 50t-144.5 16.5z" />
    <glyph glyph-name="colon" unicode=":" horiz-adv-x="501" 
d="M141 698q0 51 34 80.5t75.5 29.5t75.5 -29.5t34 -80.5t-34 -80.5t-75.5 -29.5t-75.5 29.5t-34 80.5zM141 94q0 51 34 80.5t75.5 29.5t75.5 -29.5t34 -80.5t-34 -80.5t-75.5 -29.5t-75.5 29.5t-34 80.5z" />
    <glyph glyph-name="semicolon" unicode=";" horiz-adv-x="505" 
d="M365 698q0 -41 -22.5 -69.5t-55 -35t-65 0t-55 34t-22.5 68.5t22.5 69.5t55 35t65 0t55 -34t22.5 -68.5zM213 -4h2q-32 8 -52 31.5t-20 60.5q0 41 22.5 68.5t54.5 33t64.5 -1.5t55 -35t22.5 -69q0 -8 -12 -45t-37 -109t-41 -120h-110z" />
    <glyph glyph-name="less" unicode="&#x3c;" horiz-adv-x="765" 
d="M541 1096l106 -115l-360 -334l366 -332l-112 -116l-449 419v58z" />
    <glyph glyph-name="equal" unicode="=" horiz-adv-x="1146" 
d="M150 938h847v-158h-847v158zM150 506h847v-158h-847v158z" />
    <glyph glyph-name="greater" unicode="&#x3e;" horiz-adv-x="770" 
d="M678 676v-58l-451 -419l-110 110l366 338l-362 338l106 111z" />
    <glyph glyph-name="question" unicode="?" horiz-adv-x="1243" 
d="M244 1024h-172q0 89 31 162t82.5 121t122.5 81t147.5 47.5t160.5 14.5q86 0 163 -13.5t149 -45t124 -79t83 -121t30 -165.5q0 -52 -10 -97t-24.5 -77.5t-40 -62t-47 -47.5t-55.5 -37t-55 -28.5t-56.5 -24t-49.5 -21.5q-55 -21 -86.5 -41t-52 -53t-27 -76t-6.5 -115h-178
q0 82 11.5 143.5t32 105t56 76.5t77 55.5t100.5 43.5q33 13 49 20t45.5 21.5t45 27t36.5 32.5t31.5 42t18 52t7.5 65q0 63 -24 111t-61 76t-89.5 45.5t-101 23.5t-103.5 6q-65 0 -126 -14.5t-115.5 -44.5t-88 -84t-34.5 -125zM457 111q0 55 36.5 86.5t81 31.5t81 -31.5
t36.5 -86.5t-36.5 -86.5t-81 -31.5t-81 31.5t-36.5 86.5z" />
    <glyph glyph-name="at" unicode="@" horiz-adv-x="1849" 
d="M934 1241q-140 0 -263.5 -48.5t-214.5 -135t-143.5 -213t-52.5 -275.5q0 -154 52.5 -278.5t143.5 -204t211.5 -122t260.5 -42.5q160 0 305 80l70 -121q-168 -102 -377 -102q-174 0 -324 54t-260.5 153t-174 249.5t-63.5 333.5q0 178 63.5 329.5t174 256.5t263.5 164
t329 59q182 0 333 -52.5t260.5 -152t170.5 -251.5t61 -342q0 -144 -42 -261t-120 -180q-45 -37 -100 -49t-100.5 1t-75.5 54.5t-29 104.5q-51 -92 -158.5 -144.5t-211.5 -52.5q-143 0 -262 66t-188 183t-69 259q0 158 70 275.5t186.5 177t262.5 59.5q107 0 206.5 -52.5
t147.5 -141.5l8 143l135 -12v-736q0 -33 19.5 -48t45 -8t42.5 30q45 47 67.5 138t22.5 196q0 332 -178.5 495.5t-503.5 163.5zM924 924q-162 0 -260.5 -97t-98.5 -264q0 -166 98 -262t259 -96q86 0 155.5 30t112.5 81t65.5 115t22.5 136q0 70 -22.5 133.5t-65 114t-111.5 80
t-155 29.5z" />
    <glyph glyph-name="A" unicode="A" horiz-adv-x="1556" 
d="M678 1434h201l643 -1434h-193l-141 315h-819l-140 -315h-194zM1118 479l-340 774l-340 -774h680z" />
    <glyph glyph-name="B" unicode="B" horiz-adv-x="1447" 
d="M190 1434h627q99 0 185 -25t152.5 -73.5t105 -126.5t38.5 -177t-55.5 -177.5t-157.5 -117.5q123 -35 190.5 -134t67.5 -208q0 -89 -29 -158t-78 -113t-118 -72.5t-142.5 -40t-158.5 -11.5h-627v1434zM369 1272v-455h456q136 0 216.5 52.5t80.5 160.5q0 116 -84 179
t-221 63h-448zM369 655v-487h448q50 0 94.5 5.5t92.5 21t82 40t56.5 67.5t22.5 99q-1 65 -31.5 115.5t-81 79.5t-108.5 44t-119 15h-456z" />
    <glyph glyph-name="C" unicode="C" horiz-adv-x="1454" 
d="M1382 190q-107 -105 -244 -159t-288 -54q-148 0 -271.5 39.5t-210 108.5t-147.5 162t-89.5 199.5t-29.5 222.5q-2 145 45 277t137.5 238t237 169t328.5 63q145 0 281 -54.5t243 -160.5l-123 -115q-163 160 -401 160q-112 0 -206.5 -31.5t-161 -85.5t-112.5 -127.5
t-68 -157t-21 -173.5q1 -89 23 -170.5t68 -153.5t111.5 -125t159.5 -84t207 -31q111 0 219 43t188 123z" />
    <glyph glyph-name="D" unicode="D" horiz-adv-x="1536" 
d="M190 1434v2h523q142 0 261.5 -39t203 -106.5t142.5 -157.5t86.5 -191t27.5 -209q0 -113 -26.5 -217.5t-83.5 -199t-140 -164.5t-204 -111t-267 -41h-523v1434zM713 178q111 0 202.5 31.5t153.5 85.5t104.5 126t62 151t19.5 163q0 102 -34 195t-98.5 168.5t-170.5 120.5
t-239 45h-344v-1086h344z" />
    <glyph glyph-name="E" unicode="E" horiz-adv-x="1333" 
d="M190 0v1434h1008v-164h-831v-449h796v-166h-796v-485h864v-170h-1041z" />
    <glyph glyph-name="F" unicode="F" horiz-adv-x="1282" 
d="M190 1434h996v-170h-817v-500h782v-166h-782v-600h-179v1436z" />
    <glyph glyph-name="G" unicode="G" horiz-adv-x="1525" 
d="M1376 1247l-102 -119q-83 80 -197.5 124t-226.5 44q-134 0 -243.5 -48t-180 -129.5t-108 -188t-37.5 -225.5q0 -112 35.5 -211.5t104 -179t180.5 -126.5t253 -47q221 0 391 146v340h-446v157h608v-567q-227 -244 -555 -244q-149 0 -273 39t-211 107.5t-147 161.5
t-88.5 200t-28.5 224q-1 215 87 385.5t259.5 271t399.5 100.5q145 0 282 -55t244 -160z" />
    <glyph glyph-name="H" unicode="H" horiz-adv-x="1556" 
d="M1188 0v647h-819v-647h-179v1434h179v-621h819v621h178v-1434h-178z" />
    <glyph glyph-name="I" unicode="I" horiz-adv-x="559" 
d="M190 0v1434h179v-1434h-179z" />
    <glyph glyph-name="J" unicode="J" horiz-adv-x="1409" 
d="M1235 573q4 -271 -159.5 -435.5t-432.5 -164.5q-262 0 -428 160.5t-166 431.5h176q0 -195 113.5 -309.5t304.5 -114.5t303.5 117.5t112.5 314.5v697h-502v164h678v-861z" />
    <glyph glyph-name="K" unicode="K" horiz-adv-x="1286" 
d="M190 0v1434h177v-633l634 633h224v-11l-688 -680l749 -731v-12h-221l-698 674v-674h-177z" />
    <glyph glyph-name="L" unicode="L" horiz-adv-x="1185" 
d="M369 1434v-1268h780v-166h-959v1434h179z" />
    <glyph glyph-name="M" unicode="M" horiz-adv-x="1810" 
d="M1444 1176l-520 -725h-37l-520 729v-1180h-177v1434h213l504 -738l500 738h213v-1434h-176v1176z" />
    <glyph glyph-name="N" unicode="N" horiz-adv-x="1560" 
d="M190 1434h125l879 -1098v1098h176v-1434h-123l-880 1094v-1094h-177v1434z" />
    <glyph glyph-name="O" unicode="O" horiz-adv-x="1656" 
d="M831 1458q141 -1 261 -42t204.5 -112t144 -165.5t88 -202.5t27.5 -223q-1 -114 -29 -221t-87 -202t-143 -166t-204.5 -112t-263.5 -41t-264 41t-205.5 111.5t-144 165.5t-87.5 202t-28 222q0 209 87 377t255 268t389 100zM1378 713q1 89 -19.5 172t-64.5 157
t-107.5 129.5t-155 88.5t-200.5 34q-133 0 -239.5 -46.5t-174 -127t-103 -184.5t-35.5 -223q0 -89 21 -171.5t65.5 -156t108 -128t155.5 -86.5t202 -32q136 0 243.5 49.5t172 132t98 183t33.5 209.5z" />
    <glyph glyph-name="P" unicode="P" horiz-adv-x="1400" 
d="M367 463v-463h-177v1434h652q136 0 242.5 -53.5t161 -139t80.5 -189t0 -207t-80.5 -189t-161 -139.5t-242.5 -54h-475zM842 629q76 0 138 27.5t100 72.5t58.5 102.5t20.5 117t-20.5 117t-58.5 102.5t-100 72.5t-138 27.5h-475v-639h475z" />
    <glyph glyph-name="Q" unicode="Q" horiz-adv-x="1665" 
d="M1284 121v2q-178 -139 -450 -139q-145 0 -266.5 40.5t-206.5 110t-144 164.5t-87 203t-28 225q1 145 47.5 275t135 234t230.5 165t319 61q144 0 265 -40t205 -109t143 -162.5t87 -200.5t29 -223q0 -130 -39.5 -256t-114.5 -225l178 -172l-125 -125zM834 1294
q-129 -1 -235.5 -48.5t-175 -126.5t-106 -181.5t-36.5 -216.5q0 -112 35 -213t101 -182t173 -128.5t241 -47.5t242 49t174 131t100.5 184.5t32.5 214.5q-1 89 -21.5 170.5t-64 154t-106 125.5t-153.5 84t-201 31z" />
    <glyph glyph-name="R" unicode="R" horiz-adv-x="1458" 
d="M1163 0l-446 516h-348v-516h-179v1434h652q117 0 211.5 -38.5t153 -104t89.5 -146.5t31 -170q1 -84 -22.5 -158t-71.5 -136t-129.5 -102t-188.5 -49l474 -530h-226zM834 676q154 0 234.5 83t80.5 212q1 55 -18.5 108t-56 97t-97 71t-135.5 27h-473v-598h465z" />
    <glyph glyph-name="S" unicode="S" horiz-adv-x="1359" 
d="M1090 1120q-56 89 -166 136t-238 49q-71 0 -136 -14.5t-120 -43t-88 -77t-33 -111.5q0 -38 13.5 -69t41 -54t60 -40t80.5 -31t91 -23t103 -19q57 -9 95.5 -16t91.5 -18.5t89 -24t79.5 -31t72 -40t58 -52t46.5 -65.5t27.5 -80.5t10.5 -98.5q-1 -93 -35.5 -167.5
t-91.5 -122t-134 -79t-157 -44.5t-166 -13q-133 0 -246 32t-210 108t-150 192l147 86q66 -122 193.5 -187t267.5 -65q56 0 109.5 7t108.5 26t95.5 48t66.5 76.5t26 108.5q1 52 -22.5 92.5t-59.5 67t-94 47.5t-111.5 33t-126.5 23q-68 11 -117.5 20.5t-110.5 26t-103.5 36
t-85.5 49.5t-69 66.5t-42.5 87t-16.5 111.5q-1 86 32 156t87.5 114.5t128 75t148.5 43t153 12.5q87 0 158 -10.5t144 -37.5t134 -80.5t107 -131.5z" />
    <glyph glyph-name="T" unicode="T" horiz-adv-x="1224" 
d="M524 1274h-489v160h1155v-160h-490v-1274h-176v1274z" />
    <glyph glyph-name="U" unicode="U" horiz-adv-x="1517" 
d="M1341 1434l2 -2v-861q0 -145 -46.5 -260.5t-127 -188t-184.5 -111t-223 -38.5q-117 0 -221 38t-187 110t-131.5 188.5t-48.5 261.5v861h176v-861q0 -137 57.5 -237.5t149.5 -148.5t205 -48q173 0 289 116.5t116 319.5v861h174z" />
    <glyph glyph-name="V" unicode="V" horiz-adv-x="1462" 
d="M41 1434h199l489 -1225l494 1225h196l-592 -1438h-192z" />
    <glyph glyph-name="W" unicode="W" horiz-adv-x="2211" 
d="M55 1434h201l395 -1186l398 1186h114l402 -1186l391 1186h203l-502 -1436h-178l-373 1073l-371 -1073h-180z" />
    <glyph glyph-name="X" unicode="X" horiz-adv-x="1302" 
d="M1049 1432h202v-7l-485 -694l514 -727v-4h-205l-424 602l-424 -602h-204v4l514 727l-486 694v7h207l393 -580z" />
    <glyph glyph-name="Y" unicode="Y" horiz-adv-x="1392" 
d="M602 582l-555 845v7h217l430 -680l441 680h217v-7l-566 -845v-582h-184v582z" />
    <glyph glyph-name="Z" unicode="Z" horiz-adv-x="1243" 
d="M104 1434h1059v-78l-850 -1184h850v-172h-1102v96l834 1172h-791v166z" />
    <glyph glyph-name="bracketleft" unicode="[" horiz-adv-x="675" 
d="M176 1458h426v-153h-254v-1502h254v-155h-426v1810z" />
    <glyph glyph-name="backslash" unicode="\" horiz-adv-x="1005" 
d="M778 -168l-727 1729h176l727 -1729h-176z" />
    <glyph glyph-name="bracketright" unicode="]" horiz-adv-x="677" 
d="M502 -350h-426v155h254v1502h-254v153h426v-1810z" />
    <glyph glyph-name="asciicircum" unicode="^" horiz-adv-x="1247" 
d="M102 735l-2 10l457 691h127l463 -691l-2 -10h-182l-342 525l-342 -525h-177z" />
    <glyph glyph-name="underscore" unicode="_" horiz-adv-x="1241" 
d="M139 -33h963v-149h-963v149z" />
    <glyph glyph-name="grave" unicode="`" horiz-adv-x="481" 
d="M231 1163l-204 264v7h204l154 -260v-11h-154z" />
    <glyph glyph-name="a" unicode="a" horiz-adv-x="1304" 
d="M989 0l-4 -4l-4 184q-57 -100 -159.5 -152.5t-213.5 -52.5q-146 0 -263 63t-186 185t-69 283q0 160 70 280.5t187.5 181.5t262.5 60q117 0 219 -52.5t156 -148.5l2 185h164v-1012h-162zM618 870l-2 -2q-154 0 -258 -101.5t-104 -266.5t104 -268t258 -103q100 0 179 41
t119.5 106t59.5 144t0 158.5t-59 144.5t-118.5 106t-178.5 41z" />
    <glyph glyph-name="b" unicode="b" horiz-adv-x="1304" 
d="M322 1434v-607q51 98 157 150.5t221 52.5q146 0 260.5 -59t183 -179.5t68.5 -285.5q0 -163 -68 -283t-183.5 -180.5t-262.5 -60.5q-117 0 -217.5 51.5t-158.5 150.5l-9 -184h-159v1434h168zM688 872q-152 0 -255 -102t-103 -262q0 -163 102.5 -266t255.5 -103t254.5 98.5
t101.5 268.5q0 172 -101 269t-255 97z" />
    <glyph glyph-name="c" unicode="c" horiz-adv-x="1056" 
d="M997 135l-2 2q-155 -155 -377 -155q-147 0 -265 59.5t-190.5 180t-72.5 284.5t71.5 284.5t189.5 180t267 59.5q213 0 367 -151l-106 -111q-105 102 -256 102q-155 0 -259 -99t-104 -265q0 -171 103.5 -268t257.5 -97q160 0 264 107z" />
    <glyph glyph-name="d" unicode="d" horiz-adv-x="1302" 
d="M1147 1434l2 2v-1434h-158l-8 184q-59 -101 -160.5 -152.5t-218.5 -51.5q-146 0 -261 60.5t-183 180.5t-68 283q0 247 143.5 385.5t366.5 138.5q115 0 221.5 -52.5t157.5 -150.5v607h166zM614 874h2q-154 0 -255 -97t-101 -269q0 -170 101.5 -268.5t254.5 -98.5t256 103
t103 266q0 160 -104 262t-257 102z" />
    <glyph glyph-name="e" unicode="e" horiz-adv-x="1200" 
d="M1061 162h-2q-73 -87 -192 -133.5t-244 -46.5q-237 0 -385 144.5t-148 383.5q0 229 147.5 376.5t376.5 147.5q118 0 215 -37t168 -108.5t104 -186.5t19 -262h-860q13 -138 116 -220.5t251 -82.5q91 0 181.5 34t139.5 93zM961 582v-2q-6 145 -98.5 224t-244.5 79
q-137 0 -237 -79.5t-121 -221.5h701z" />
    <glyph glyph-name="f" unicode="f" horiz-adv-x="782" 
d="M264 0l2 -2v854h-198v147h198v80q0 173 90 270t250 97q120 0 230 -74l-70 -125q-85 51 -156 51q-85 0 -131.5 -54t-46.5 -165v-80h318v-147h-318v-852h-168z" />
    <glyph glyph-name="g" unicode="g" horiz-adv-x="1251" 
d="M266 -170q0 -94 52.5 -158.5t131 -92t175.5 -28.5q69 0 130 13t113 40.5t82.5 75.5t30.5 111q0 117 -102 180.5t-252 63.5q-241 0 -388 133.5t-147 366.5q0 97 30.5 180t83 141t121 99.5t145 61t155.5 19.5q74 0 153.5 -19.5t132.5 -55.5l109 131l119 -95l-115 -135
q66 -74 98.5 -148.5t32.5 -178.5q0 -139 -72.5 -253t-212.5 -159q142 -41 210.5 -128t68.5 -202q0 -95 -44.5 -171.5t-119.5 -124.5t-168.5 -73.5t-195.5 -25.5q-234 0 -378.5 116t-140.5 316h162zM258 535q3 -167 107.5 -260t263.5 -93t261.5 101t102.5 249
q0 111 -52.5 192.5t-134 120t-179.5 38.5q-69 0 -133.5 -22t-118 -63t-85.5 -109.5t-32 -153.5z" />
    <glyph glyph-name="h" unicode="h" horiz-adv-x="1232" 
d="M319 1434v-2v-588q114 176 351 180q208 0 316 -125.5t108 -341.5v-557h-166v555q0 149 -74.5 230t-212.5 81q-137 0 -228 -95t-91 -234v-537h-168v1434h165z" />
    <glyph glyph-name="i" unicode="i" horiz-adv-x="475" 
d="M129 1321q0 41 23 69.5t55.5 35t64.5 -0.5t55 -35.5t23 -70.5q0 -41 -23 -69.5t-55.5 -35t-64.5 0.5t-55 35.5t-23 70.5zM154 1016v-1016h168v1016h-168z" />
    <glyph glyph-name="j" unicode="j" horiz-adv-x="475" 
d="M129 1327q0 41 23 69.5t55.5 35t64.5 -0.5t55 -35.5t23 -70.5q0 -41 -23 -69.5t-55.5 -35t-64.5 0.5t-55 35.5t-23 70.5zM156 1014h-2v-1147q0 -52 -5 -86.5t-19 -65t-42.5 -45.5t-73.5 -16q-69 0 -137 35l-55 -135q98 -58 201 -58q162 0 231.5 95t67.5 276v1147h-166z
" />
    <glyph glyph-name="k" unicode="k" horiz-adv-x="1015" 
d="M319 1434v-848l416 426h209v-11l-467 -466l524 -523v-12h-204l-478 477v-477h-165v1434h165z" />
    <glyph glyph-name="l" unicode="l" horiz-adv-x="499" 
d="M334 1434v-1434h-168v1434h168z" />
    <glyph glyph-name="m" unicode="m" horiz-adv-x="1884" 
d="M154 1012l2 -2h155l11 -148q43 84 124 125t175 41q74 0 137.5 -20.5t119.5 -72t83 -128.5q53 112 147.5 166.5t208.5 54.5q199 0 312.5 -121t113.5 -329v-578h-168v578q0 128 -70 210t-192 82q-123 0 -200 -85t-77 -212v-573h-168v573q0 128 -74.5 212.5t-197.5 84.5
q-122 0 -198 -85t-76 -212v-573h-168v1012z" />
    <glyph glyph-name="n" unicode="n" horiz-adv-x="1245" 
d="M154 1012v2h153l8 -162q128 176 347 176q197 0 320.5 -125.5t123.5 -343.5v-559h-168v557q0 147 -81.5 231t-225.5 84q-136 -1 -224 -96t-88 -233v-543h-165v1012z" />
    <glyph glyph-name="o" unicode="o" horiz-adv-x="1226" 
d="M88 504q0 233 148.5 381.5t375.5 148.5q232 0 379.5 -148t147.5 -382q0 -229 -148.5 -375.5t-378.5 -146.5q-228 0 -376 146.5t-148 375.5zM973 504q0 167 -102.5 272t-256.5 105q-156 0 -257 -104.5t-101 -272.5q0 -160 100.5 -262.5t255.5 -102.5q157 0 258 102.5
t103 262.5z" />
    <glyph glyph-name="p" unicode="p" horiz-adv-x="1304" 
d="M154 -477v1485h159l9 -195q59 100 163.5 156.5t225.5 56.5q221 -5 362 -148t141 -374q0 -238 -142.5 -382.5t-371.5 -144.5q-116 0 -221 52t-162 153v-659h-163zM690 135q156 0 256.5 99t100.5 266t-99.5 264.5t-257.5 97.5q-157 0 -255.5 -102.5t-98.5 -259.5
q0 -156 100.5 -260t253.5 -105z" />
    <glyph glyph-name="q" unicode="q" horiz-adv-x="1302" 
d="M983 -477h4v659q-57 -100 -162 -151t-221 -51q-229 0 -371.5 144t-142.5 384q0 232 141.5 375.5t362.5 146.5q121 0 225.5 -56.5t163.5 -156.5l6 195h160v-1489h-166zM618 141l3 2q152 0 252 103.5t100 259.5q0 157 -99 259.5t-256 102.5q-158 0 -257 -97.5t-99 -264.5
t100 -266t256 -99z" />
    <glyph glyph-name="r" unicode="r" horiz-adv-x="876" 
d="M309 1012l2 2l13 -152q90 168 311 168q132 3 235 -76l-75 -143q-79 55 -177 55q-125 -2 -210.5 -84.5t-85.5 -218.5v-563h-168v1012h155z" />
    <glyph glyph-name="s" unicode="s" horiz-adv-x="1021" 
d="M805 788l-2 -2q-62 56 -130.5 77.5t-154.5 21.5q-109 2 -180 -37t-70 -111q1 -37 21.5 -64.5t58.5 -44t78.5 -25.5t93.5 -15q39 -5 64 -8.5t64 -11t65.5 -15.5t60.5 -21t57 -28.5t47 -38t37.5 -49t22.5 -61.5t8 -76q-2 -98 -61.5 -168t-153 -103t-209.5 -33
q-298 0 -452 191l96 117q64 -79 161 -117.5t199 -38.5q45 0 87 8t80.5 24.5t63 49t25.5 76.5q1 77 -68.5 111t-203.5 50q-67 9 -118 19.5t-107.5 32t-93 51t-61 78t-24.5 110.5q-1 77 35 136.5t96.5 93.5t131.5 51t147 16q235 0 385 -135z" />
    <glyph glyph-name="t" unicode="t" horiz-adv-x="813" 
d="M438 1307v-297h314v-144h-316v-534q0 -95 36.5 -145t123.5 -50q69 0 141 37l49 -139q-101 -46 -196 -49q-160 -3 -240 86.5t-80 259.5v534h-202v144h202v278z" />
    <glyph glyph-name="u" unicode="u" horiz-adv-x="1247" 
d="M938 0h2l-8 162q-128 -175 -352 -178q-197 0 -319 125.5t-122 343.5v559h168v-557q0 -147 81.5 -231.5t225.5 -84.5q136 1 224 96.5t88 233.5v543h168v-1012h-156z" />
    <glyph glyph-name="v" unicode="v" horiz-adv-x="1148" 
d="M55 1012h185l163 -396l172 -438l170 436l164 398h185l-426 -1014h-185z" />
    <glyph glyph-name="w" unicode="w" horiz-adv-x="1718" 
d="M63 1012h187l272 -834l269 834h137l268 -834l272 834h185l-355 -1014h-192l-137 377l-109 368l-110 -368l-138 -377h-190z" />
    <glyph glyph-name="x" unicode="x" horiz-adv-x="1013" 
d="M33 4l364 514l-340 488v6h187l262 -383l258 383h192v-6l-344 -488l371 -514v-4h-192l-285 410l-287 -410h-186v4z" />
    <glyph glyph-name="y" unicode="y" horiz-adv-x="1128" 
d="M1077 1012l-639 -1489h-180l211 491l-408 998h191l199 -527l110 -288l109 286l223 529h184z" />
    <glyph glyph-name="z" unicode="z" horiz-adv-x="964" 
d="M98 1012h785v-76l-570 -774h570v-162h-820v66l574 792h-539v154z" />
    <glyph glyph-name="braceleft" unicode="{" horiz-adv-x="675" 
d="M600 -279l-2 -2q-202 -33 -286.5 42t-84.5 264v294q0 32 -3 59t-12.5 56t-26 48.5t-45 32.5t-66.5 13v129q38 0 66.5 13t45 32.5t26 48.5t12.5 56t3 59v283q0 188 87.5 265t283.5 40v-125q-117 23 -160 -18.5t-43 -167.5v-277v-39.5t-1.5 -37t-3.5 -37.5t-7 -34
t-12 -33.5t-17.5 -28t-25 -26.5t-33.5 -20t-43 -16q31 -8 54.5 -22t38.5 -28t25.5 -38.5t15.5 -40.5t7.5 -47t3 -46.5t0.5 -49.5v-289q0 -126 40.5 -163t162.5 -20v-129z" />
    <glyph glyph-name="bar" unicode="|" horiz-adv-x="518" 
d="M342 1487v-1698h-166v1698h166z" />
    <glyph glyph-name="braceright" unicode="}" horiz-adv-x="673" 
d="M76 -158v-4q124 -19 164.5 18t40.5 162v289q0 35 0.5 50.5t3 47t7.5 47.5t15 40.5t25 39t38.5 28.5t53.5 22q-31 9 -54.5 23t-38.5 28t-25.5 38t-15.5 40t-7.5 47.5t-3 47t-0.5 50.5v274q0 127 -43 168.5t-160 18.5v127q196 36 283 -41.5t87 -265.5v-281q0 -209 154 -209
v-127q-154 0 -154 -209v-295q0 -189 -84 -263.5t-286 -41.5v131z" />
    <glyph glyph-name="asciitilde" unicode="~" horiz-adv-x="1302" 
d="M1036 739l127 -49q-34 -94 -90 -151t-134.5 -71t-174.5 30l-264 129q-38 14 -68 17t-62 -5.5t-59.5 -41.5t-48.5 -89l-117 49q47 140 161 201t241 0l260 -127q153 -78 229 108z" />
    <glyph glyph-name="exclamdown" unicode="&#xa1;" horiz-adv-x="503" 
d="M367 885q0 -44 -24.5 -74.5t-59.5 -37.5t-70 0t-59.5 38t-24.5 76q0 44 24.5 74.5t59.5 37.5t70 0t59.5 -38t24.5 -76zM342 -440v1104h-180v-1104h180z" />
    <glyph glyph-name="cent" unicode="&#xa2;" horiz-adv-x="1124" 
d="M557 -33h-2q-196 29 -320 167.5t-124 348.5q0 203 123.5 344t322.5 172v134h158v-134q172 -25 299 -149l-105 -107q-53 51 -125.5 80t-142.5 29q-154 0 -258 -101t-104 -268q0 -169 103.5 -268.5t258.5 -99.5q68 0 139.5 31.5t126.5 84.5l107 -120q-128 -125 -299 -146
v-145h-158v147z" />
    <glyph glyph-name="sterling" unicode="&#xa3;" horiz-adv-x="1335" 
d="M119 166l4 -2q125 95 163.5 196t22.5 228h-188v151h155q-1 3 -10 39.5t-11.5 46t-9 41.5t-9 49.5t-5 44t-2.5 50.5q0 212 139 326t365 114q101 0 183.5 -21.5t148.5 -66.5t103.5 -123.5t39.5 -185.5h-159q-8 241 -316 241q-156 0 -245 -75t-89 -205q0 -26 2 -53t7.5 -59
t9 -50t12 -58t10.5 -51h492v-151h-459q40 -284 -151 -434h897v-158h-1100v166z" />
    <glyph glyph-name="currency" unicode="&#xa4;" horiz-adv-x="1239" 
d="M618 375q130 0 204.5 83.5t74.5 198.5q0 75 -31 139t-96 106t-152 42q-129 0 -204.5 -85.5t-75.5 -201.5q0 -114 75.5 -198t204.5 -84zM389 299l-121 -121l-123 123l121 119q-71 108 -70 237t72 236l-123 121l123 125l121 -123q99 61 232 61q128 0 227 -61l123 123
l123 -125l-119 -119q69 -107 68.5 -239t-70.5 -236l121 -119l-123 -123l-123 121q-95 -59 -230 -59q-129 0 -229 59z" />
    <glyph glyph-name="yen" unicode="&#xa5;" horiz-adv-x="1427" 
d="M301 430h320v117h-320v137h250l-490 743v7h205l443 -699l454 699h203v-7l-498 -743h252v-137h-325v-117h325v-135h-325v-295h-174v295h-320v135z" />
    <glyph glyph-name="brokenbar" unicode="&#xa6;" horiz-adv-x="532" 
d="M178 700v750h176v-750h-176zM354 565v-747h-176v747h176z" />
    <glyph glyph-name="section" unicode="&#xa7;" horiz-adv-x="1179" 
d="M913 1219h-4q-67 54 -138.5 74t-168.5 20q-117 2 -201.5 -38t-83.5 -110q0 -121 281 -149q72 -6 129.5 -14.5t125 -30t111.5 -52t72 -82.5t23 -120q-4 -82 -58 -138t-137 -77q92 -27 144.5 -89t48.5 -145q-2 -68 -34.5 -122.5t-81 -88t-111.5 -55.5t-123 -30.5t-119 -8.5
q-147 0 -274 50.5t-199 148.5l112 112q129 -158 365 -155q51 0 99 8.5t91.5 25.5t71 48.5t29.5 72.5q1 37 -21 64t-67 43t-92.5 24.5t-114.5 14.5q-69 4 -131.5 15.5t-122.5 34.5t-103 55t-69 80.5t-25 107.5q0 68 50.5 132.5t136.5 92.5q-88 24 -135.5 84t-45.5 141
q2 80 45 141t113 94t147.5 49t159.5 15q121 0 231 -35t183 -112zM885 717v-2q0 41 -31.5 75t-83 53t-113.5 28.5t-124 2.5t-113.5 -24.5t-83 -53.5t-31.5 -83q0 -41 31.5 -73.5t82.5 -50t113 -25.5t124 -0.5t113.5 24.5t83.5 51t32 78z" />
    <glyph glyph-name="dieresis" unicode="&#xa8;" horiz-adv-x="983" 
d="M117 1366q0 41 22.5 69.5t54.5 35t64.5 0t55 -34t22.5 -68.5t-22.5 -69t-55 -34.5t-64.5 0t-54.5 34t-22.5 67.5zM588 1366q0 51 34 80.5t75.5 29.5t75.5 -29.5t34 -80.5t-34 -79.5t-75.5 -28.5t-75.5 28.5t-34 79.5z" />
    <glyph glyph-name="copyright" unicode="&#xa9;" horiz-adv-x="1703" 
d="M856 1466v-2q139 0 258 -38.5t206.5 -107t150 -161.5t93.5 -204.5t31 -233.5t-31 -233.5t-93.5 -205t-150 -163t-206.5 -108t-258 -38.5t-259.5 38.5t-209 108t-152 163t-95 205t-31.5 233.5q0 154 50.5 289t144 237.5t236 161.5t316.5 59zM264 717q0 -171 69 -308.5
t205.5 -220t317.5 -82.5t315.5 82.5t201.5 219.5t67 309q0 128 -39.5 239t-112 193.5t-184 130t-248.5 47.5q-182 0 -318 -82t-205 -219.5t-69 -308.5zM1171 995l-6 9q-120 120 -286 120q-174 0 -291 -112t-117 -289t117.5 -287t292.5 -110q168 0 288 120l-98 99
q-82 -82 -188 -82q-111 0 -188 72t-77 184q0 115 77 187.5t190 72.5q108 0 186 -78z" />
    <glyph glyph-name="ordfeminine" unicode="&#xaa;" horiz-adv-x="1030" 
d="M725 772l-2 -2l-2 115q-36 -61 -102.5 -94t-137.5 -35q-148 0 -244 93t-96 255q0 160 98 252t246 92q72 0 137 -32.5t103 -90.5v111h133v-664h-133zM494 1315l4 -2q-89 0 -149 -58.5t-60 -152.5q0 -95 59.5 -154t147.5 -59q57 0 101.5 23.5t67.5 61t34 83t0 91t-34.5 83
t-68.5 61t-102 23.5zM170 645h702v-133h-702v133z" />
    <glyph glyph-name="guillemotleft" unicode="&#xab;" horiz-adv-x="915" 
d="M373 1059h180l-281 -451l281 -452h-180l-283 452zM358 608l283 451h180l-280 -451l280 -452h-180z" />
    <glyph glyph-name="logicalnot" unicode="&#xac;" horiz-adv-x="1062" 
d="M903 336h-153v270h-600v154h753v-424z" />
    <glyph glyph-name="uni00AD" unicode="&#xad;" horiz-adv-x="991" 
d="M98 668h733v-160h-733v160z" />
    <glyph glyph-name="registered" unicode="&#xae;" horiz-adv-x="1695" 
d="M848 1462q139 0 258.5 -38.5t207 -107t149.5 -162t93 -205t31 -234.5q0 -153 -49.5 -288t-141 -238t-233.5 -162.5t-315 -59.5q-139 0 -258 38.5t-206.5 108t-150 163t-93.5 205t-31 233.5q0 123 31 234.5t93.5 205t150 162t206.5 107t258 38.5zM264 715v4
q0 -128 39.5 -239t112 -193.5t184 -130t248.5 -47.5t248.5 47.5t185 130t113 193t39.5 237.5q0 128 -39.5 239t-113 193.5t-185 130t-248.5 47.5t-248.5 -47.5t-184 -130.5t-112 -194t-39.5 -240zM989 627v-2q70 12 119 53t68 94.5t12 113.5t-37.5 109.5t-91.5 82t-141 32.5
h-353v-768h142v266h133l213 -266h155v29zM707 977h211q36 0 64 -13.5t42 -35.5t20.5 -48.5t-1 -53t-22.5 -48.5t-43.5 -35.5t-64.5 -13.5h-206v248z" />
    <glyph glyph-name="macron" unicode="&#xaf;" horiz-adv-x="862" 
d="M72 1438h684v-146h-684v146z" />
    <glyph glyph-name="degree" unicode="&#xb0;" horiz-adv-x="677" 
d="M340 1372q-38 0 -66.5 -17.5t-42 -44.5t-14 -57.5t12 -57.5t41.5 -44.5t69 -17.5q38 0 66 17.5t40.5 44.5t12.5 57.5t-13 57.5t-40.5 44.5t-65.5 17.5zM342 1477q49 0 89.5 -15.5t67 -41t45.5 -59t23 -70.5t0.5 -74.5t-21.5 -71t-44.5 -59t-67.5 -41t-90 -15.5
q-52 0 -95 15.5t-70.5 41t-46 59t-22 71t1 74.5t24 70.5t46.5 59t69 41t91 15.5z" />
    <glyph glyph-name="plusminus" unicode="&#xb1;" horiz-adv-x="1085" 
d="M145 840h316v321h164v-321h315v-156h-315v-324h-164v324h-316v156zM154 225h780v-155h-780v155z" />
    <glyph glyph-name="twosuperior" unicode="&#xb2;" horiz-adv-x="745" 
d="M90 1374l2 -2q0 60 24.5 105.5t66 70.5t90 37t102.5 12q60 0 110 -11.5t92 -37t65.5 -71.5t23.5 -109q0 -41 -10 -74t-25.5 -55.5t-40.5 -40t-47.5 -27t-54 -17t-52.5 -10t-51 -5.5q-162 -14 -162 -117v-43h432v-133h-569v178q0 56 22 99t60.5 68t83.5 39t98 19
q85 7 131.5 33.5t46.5 87.5q0 111 -153 111q-150 0 -152 -107h-133z" />
    <glyph glyph-name="threesuperior" unicode="&#xb3;" horiz-adv-x="745" 
d="M211 1063h-4q9 -102 158 -102q65 0 113 24t48 84q0 41 -37.5 74t-117.5 33h-115v110h106q152 0 154 98q0 37 -38 69t-113 32q-28 0 -52.5 -4.5t-49 -15.5t-40 -33.5t-18.5 -53.5h-121q0 57 24 100.5t64.5 68.5t88.5 37.5t101 12.5q74 0 137 -22.5t105.5 -72.5t42.5 -120
q0 -56 -29 -98t-79 -57q58 -16 92.5 -62.5t34.5 -95.5q0 -64 -27 -111.5t-73 -73t-96.5 -37t-107.5 -11.5q-56 0 -105 12.5t-91.5 38t-67.5 71t-26 105.5h139z" />
    <glyph glyph-name="acute" unicode="&#xb4;" horiz-adv-x="473" 
d="M41 1163v11l152 260h206v-7l-204 -264h-154z" />
    <glyph glyph-name="_181" unicode="&#xb5;" horiz-adv-x="1255" 
d="M1075 0h-147l-15 125q-43 -83 -135.5 -127t-187.5 -41q-102 0 -190.5 39.5t-123.5 126.5v-578h-155v1467h166v-596q0 -141 94 -225.5t217 -86.5q59 0 113 20.5t99 60.5t72 106.5t27 150.5v570h166v-1012z" />
    <glyph glyph-name="paragraph" unicode="&#xb6;" horiz-adv-x="1660" 
d="M729 1272v-1714h-168v821q-97 4 -178.5 35.5t-139 82t-98 116.5t-59.5 139.5t-18 150.5q1 80 22 156.5t65 144t105 118.5t148 80.5t188 29.5h993v-160h-205v-1712h-163v1712h-492z" />
    <glyph glyph-name="periodcentered" unicode="&#xb7;" horiz-adv-x="512" 
d="M141 580q0 54 36 84.5t79 30.5t79 -30.5t36 -84.5t-36 -84.5t-79 -30.5t-79 30.5t-36 84.5z" />
    <glyph glyph-name="cedilla" unicode="&#xb8;" horiz-adv-x="686" 
d="M182 -139l-6 -2l53 186h125l-28 -113q51 1 91 -12t62.5 -35t37 -51t15 -59.5t-3.5 -61.5q-19 -82 -87.5 -125t-155.5 -41q-73 2 -135.5 32.5t-96.5 88.5l80 72q55 -75 152 -72q40 0 72 18t42 52q18 59 -39.5 93t-142.5 3z" />
    <glyph glyph-name="onesuperior" unicode="&#xb9;" horiz-adv-x="522" 
d="M76 963h129v471l-111 -29v119l246 59v-620h131v-117h-395v117z" />
    <glyph glyph-name="ordmasculine" unicode="&#xba;" horiz-adv-x="987" 
d="M494 754q-152 0 -251.5 93t-99.5 255q0 161 98.5 252.5t250.5 91.5q151 0 249.5 -91.5t98.5 -250.5q0 -161 -99 -255.5t-247 -94.5zM494 889q93 0 149.5 58.5t56.5 154.5t-59.5 156.5t-148.5 60.5q-88 0 -146.5 -60.5t-58.5 -154.5q0 -97 56.5 -156t150.5 -59zM164 631
h665v-133h-665v133z" />
    <glyph glyph-name="guillemotright" unicode="&#xbb;" horiz-adv-x="915" 
d="M274 160h-178l279 450l-279 451h178l283 -451zM825 610l-282 -450h-178l278 450l-278 451h178z" />
    <glyph glyph-name="onequarter" unicode="&#xbc;" horiz-adv-x="1529" 
d="M285 -4l772 1448h160l-777 -1448h-155zM98 817h129v469l-110 -26v118l245 60v-621h132v-117h-396v117zM1370 739v-469h88v-120h-88v-148h-131v148h-393l-8 110l354 479h178zM1239 270v340l-254 -340h254z" />
    <glyph glyph-name="onehalf" unicode="&#xbd;" horiz-adv-x="1630" 
d="M281 -4l774 1448h159l-776 -1448h-157zM98 817h127v471l-110 -26v118l247 60v-623h132v-117h-396v117zM969 524h2q0 60 24.5 105.5t66 71t89.5 37.5t102 12q60 0 110 -12t92 -37.5t65.5 -71t23.5 -107.5q0 -41 -10.5 -74.5t-25.5 -55.5t-41.5 -39.5t-47 -27t-55 -17
t-52 -9.5t-50.5 -6q-158 -14 -158 -117v-53h426v-125h-563v178q0 54 21 95.5t57 66.5t79 39t93 18q91 9 140.5 35.5t49.5 89.5q0 111 -156 111q-149 0 -149 -107h-133z" />
    <glyph glyph-name="threequarters" unicode="&#xbe;" horiz-adv-x="1599" 
d="M264 1047l-4 2v108h105q149 0 149 96q0 36 -37.5 67.5t-111.5 31.5q-37 0 -67.5 -7.5t-57 -32.5t-29.5 -65h-119q0 73 42 123t102 70t131 20q72 0 133 -21.5t102.5 -70.5t42.5 -117q0 -55 -28.5 -96.5t-77.5 -54.5q57 -14 90 -60t33 -94q0 -63 -26 -109.5t-70 -71.5
t-93.5 -36.5t-105.5 -11.5q-53 0 -101 12t-89 36.5t-65.5 69t-25.5 103.5h133q9 -100 154 -100q28 0 53 4.5t50 15t39.5 33t14.5 53.5q0 39 -37.5 71t-115.5 32h-113zM381 -4l774 1450h160l-778 -1450h-156zM1442 741v-469h86v-120h-86v-148h-131v148h-393l-9 110l355 479
h178zM1311 272v340l-254 -340h254z" />
    <glyph glyph-name="questiondown" unicode="&#xbf;" horiz-adv-x="1232" 
d="M784 922q0 -32 -13 -57.5t-33.5 -38.5t-45.5 -19t-50 0t-45.5 19t-33 38.5t-12.5 57.5t13 57.5t33.5 38.5t45.5 19t50 0t45.5 -19t33 -38.5t12.5 -57.5zM1171 8l-2 -2q0 -89 -31 -162t-83 -121.5t-122.5 -81.5t-148 -47.5t-161.5 -13.5q-87 0 -164 13t-149.5 44
t-124.5 78t-83 120.5t-30 166.5q0 71 22.5 130.5t48.5 95t79 72t78.5 49t83.5 38.5q18 8 26 12q107 40 138.5 94.5t31.5 194.5h178q0 -84 -11 -147t-31.5 -107.5t-56 -78.5t-77 -56.5t-101.5 -44.5q-54 -21 -85 -37t-68 -45.5t-54.5 -71.5t-17.5 -98q0 -63 23 -110.5
t58.5 -75t86.5 -45t98.5 -23.5t102.5 -6q65 0 125.5 14t115 43.5t88.5 83.5t35 125h182z" />
    <glyph glyph-name="Agrave" unicode="&#xc0;" horiz-adv-x="1556" 
d="M496 1845v6h206l152 -260v-10h-154zM678 1434h201l643 -1434h-193l-141 315h-819l-140 -315h-194zM1118 479l-340 774l-340 -774h680z" />
    <glyph glyph-name="Aacute" unicode="&#xc1;" horiz-adv-x="1556" 
d="M690 1589l154 262h205v-6l-205 -266h-154v10zM678 1434h201l643 -1434h-193l-141 315h-819l-140 -315h-194zM1118 479l-340 774l-340 -774h680z" />
    <glyph glyph-name="Acircumflex" unicode="&#xc2;" horiz-adv-x="1556" 
d="M723 1835h106l297 -276v-15h-174l-176 164l-176 -164h-174v15zM678 1434h201l643 -1434h-193l-141 315h-819l-140 -315h-194zM1118 479l-340 774l-340 -774h680z" />
    <glyph glyph-name="Atilde" unicode="&#xc3;" horiz-adv-x="1556" 
d="M469 1638l2 2q24 93 92.5 134.5t155.5 11.5q12 -3 57.5 -26.5t54.5 -26.5q87 -31 119 55l113 -47q-25 -103 -96.5 -142t-149.5 -8q-14 3 -60 29t-55 29q-32 17 -67.5 2t-54.5 -64zM678 1434h201l643 -1434h-193l-141 315h-819l-140 -315h-194zM1118 479l-340 774
l-340 -774h680z" />
    <glyph glyph-name="Adieresis" unicode="&#xc4;" horiz-adv-x="1556" 
d="M651 1671q0 -40 -22.5 -67.5t-54.5 -34t-64.5 0t-55 34.5t-22.5 69t22.5 68.5t55 34t64.5 0t54.5 -35t22.5 -69.5zM1122 1671q0 -51 -34 -79.5t-75.5 -28.5t-75.5 28.5t-34 79.5t34 80.5t75.5 29.5t75.5 -29.5t34 -80.5zM678 1434h201l643 -1434h-193l-141 315h-819
l-140 -315h-194zM1118 479l-340 774l-340 -774h680z" />
    <glyph glyph-name="Aring" unicode="&#xc5;" horiz-adv-x="1556" 
d="M674 1421q-63 24 -99 75t-36 126q0 103 71 162t170 59q97 0 169.5 -58.5t72.5 -162.5q0 -74 -37.5 -126t-101.5 -75l639 -1421h-189l-143 315h-823l-140 -315h-192zM776 1737h4q-46 0 -77 -23.5t-38.5 -57t-0.5 -67t38 -57t76 -23.5q34 0 60.5 12.5t40 32.5t20 44.5
t-0.5 49t-21 44.5t-40.5 32.5t-60.5 12.5zM1120 485l-338 793l-338 -793h676z" />
    <glyph glyph-name="AE" unicode="&#xc6;" horiz-adv-x="1886" 
d="M854 1434h903v-170h-680v-461h647v-168h-647v-461h699v-174h-869v410h-485l-248 -410h-209zM907 571v523l2 143l-387 -666h385z" />
    <glyph glyph-name="Ccedilla" unicode="&#xc7;" horiz-adv-x="1454" 
d="M848 -125l4 4q123 1 173 -66t30 -153q-19 -82 -88 -126t-154 -44q-72 0 -137.5 32t-100.5 91l82 72q54 -77 152 -74q40 2 71.5 20t41.5 50q18 59 -41.5 93t-145.5 3l-33 26l52 181q-128 12 -235.5 57t-183 113.5t-128.5 157.5t-78.5 189t-26.5 208q-2 145 45 277
t137.5 238t237 169t328.5 63q145 0 281 -54.5t243 -160.5l-123 -115q-163 160 -401 160q-112 0 -206.5 -31.5t-161 -85.5t-112.5 -127.5t-68 -157t-21 -173.5q1 -89 23 -170.5t68 -153.5t111.5 -125t159.5 -84t207 -31q111 0 219 43t188 123l125 -123q-205 -205 -508 -215z
" />
    <glyph glyph-name="Egrave" unicode="&#xc8;" horiz-adv-x="1333" 
d="M463 1862v4h207l151 -260v-11h-153zM190 0v1434h1008v-164h-831v-449h796v-166h-796v-485h864v-170h-1041z" />
    <glyph glyph-name="Eacute" unicode="&#xc9;" horiz-adv-x="1333" 
d="M592 1585l153 260h207v-6l-207 -264h-153v10zM190 0v1434h1008v-164h-831v-449h796v-166h-796v-485h864v-170h-1041z" />
    <glyph glyph-name="Ecircumflex" unicode="&#xca;" horiz-adv-x="1333" 
d="M664 1866h106l297 -275v-14h-174l-176 162l-174 -162h-174v14zM190 0v1434h1008v-164h-831v-449h796v-166h-796v-485h864v-170h-1041z" />
    <glyph glyph-name="Edieresis" unicode="&#xcb;" horiz-adv-x="1333" 
d="M375 1694q0 41 22.5 69.5t55 35t64.5 0t54.5 -34t22.5 -68.5t-22.5 -69t-55 -34.5t-64.5 0t-54.5 34t-22.5 67.5zM846 1694q0 51 34 80.5t75.5 29.5t75.5 -29.5t34 -80.5t-34 -79.5t-75.5 -28.5t-75.5 28.5t-34 79.5zM190 0v1434h1008v-164h-831v-449h796v-166h-796v-485
h864v-170h-1041z" />
    <glyph glyph-name="Igrave" unicode="&#xcc;" horiz-adv-x="561" 
d="M371 1591v-10h-156l-205 264v6h207zM190 0v1434h181v-1434h-181z" />
    <glyph glyph-name="Iacute" unicode="&#xcd;" horiz-adv-x="561" 
d="M195 1589l153 260h207v-6l-207 -264h-153v10zM371 0v1434h-181v-1434h181z" />
    <glyph glyph-name="Icircumflex" unicode="&#xce;" horiz-adv-x="561" 
d="M227 1843h103l280 -274v-15h-168l-163 162l-162 -162h-170v15zM190 1434h181v-1434h-181v1434z" />
    <glyph glyph-name="Idieresis" unicode="&#xcf;" horiz-adv-x="561" 
d="M-20 1675q0 51 34 80.5t75.5 29.5t75.5 -29.5t34 -80.5t-34 -79.5t-75.5 -28.5t-75.5 28.5t-34 79.5zM358 1673q0 41 22.5 69.5t55 35t65 0t55 -34t22.5 -68.5t-22.5 -69t-55 -34.5t-65 0t-55 34t-22.5 67.5zM371 -2v1434h-181v-1434h181z" />
    <glyph glyph-name="Eth" unicode="&#xd0;" horiz-adv-x="1544" 
d="M61 786h142v648h504q176 0 318 -57.5t231 -155t136.5 -221t49.5 -261.5q1 -116 -26 -222.5t-86 -201t-144 -164.5t-208.5 -110.5t-270.5 -40.5h-504v627h-142v159zM707 170q138 0 247 46t175 125t100 179t33 215q-2 112 -37.5 207t-102.5 168t-173.5 114.5t-241.5 41.5
h-326v-480h307v-159h-307v-457h326z" />
    <glyph glyph-name="Ntilde" unicode="&#xd1;" horiz-adv-x="1560" 
d="M518 1640h-6q24 93 92.5 134.5t155.5 11.5q11 -3 56.5 -26t55.5 -25q87 -31 117 55l113 -49q-24 -101 -94 -139t-146 -7q-13 3 -58 28t-56 28q-33 17 -68 2.5t-53 -62.5zM190 1434h125l875 -1086v1086h180v-1434h-123l-872 1079v-1079h-185v1434z" />
    <glyph glyph-name="Ograve" unicode="&#xd2;" horiz-adv-x="1656" 
d="M575 1866v6h207l152 -260v-10h-154zM831 1458q141 -1 261 -42t204.5 -112t144 -165.5t88 -202.5t27.5 -223q-1 -114 -29 -221t-87 -202t-143 -166t-204.5 -112t-263.5 -41t-264 41t-205.5 111.5t-144 165.5t-87.5 202t-28 222q0 209 87 377t255 268t389 100zM1378 711
l2 2q1 112 -32.5 213.5t-98.5 184t-172 132.5t-243 51q-133 0 -240.5 -46.5t-175.5 -126.5t-103.5 -185t-33.5 -223q1 -87 22 -169t65 -155.5t107 -128.5t154.5 -87t201.5 -32t201.5 32t154.5 87t106.5 128.5t64 154.5t20.5 168z" />
    <glyph glyph-name="Oacute" unicode="&#xd3;" horiz-adv-x="1658" 
d="M745 1606l152 262h207v-6l-205 -267h-154v11zM831 1458q-221 0 -389 -100t-255 -268t-87 -377q0 -115 28 -223t87.5 -203t144 -165.5t205.5 -111.5t264 -41t264 41t205 112t143.5 166t88 202t29.5 221q1 116 -27.5 224t-88 203t-144.5 166t-205.5 112t-262.5 42zM281 711
l-2 -2q-2 118 34 223t104 185t175 126.5t239 46.5q109 -1 200.5 -33.5t155 -87.5t107.5 -129t64.5 -157t19.5 -172q-1 -110 -34.5 -210t-98.5 -182t-172.5 -131t-243.5 -49q-110 0 -201.5 32t-154.5 87t-106.5 128.5t-64 155.5t-21.5 169z" />
    <glyph glyph-name="Ocircumflex" unicode="&#xd4;" horiz-adv-x="1656" 
d="M795 1882h106l297 -276v-13h-174l-176 162l-176 -162h-174v13zM100 713q0 209 87 377t255 268t389 100q141 -1 261 -42t204.5 -112t144 -165.5t88 -202.5t27.5 -223q-1 -114 -29 -221t-87 -202t-143 -166t-204.5 -112t-263.5 -41t-264 41t-205.5 111.5t-144 165.5
t-87.5 202t-28 222zM1378 711l2 2q1 112 -32.5 213.5t-98.5 184t-172 132.5t-243 51q-133 0 -240.5 -46.5t-175.5 -126.5t-103.5 -185t-33.5 -223q1 -87 22 -169t65 -155.5t107 -128.5t154.5 -87t201.5 -32t201.5 32t154.5 87t106.5 128.5t64 154.5t20.5 168z" />
    <glyph glyph-name="Otilde" unicode="&#xd5;" horiz-adv-x="1656" 
d="M549 1663h-4q23 93 92 134t154 11q11 -3 56.5 -26t55.5 -25q33 -15 67 -1.5t50 59.5l113 -50q-24 -101 -94 -138.5t-146 -6.5q-12 3 -58.5 28t-58.5 27q-85 30 -119 -61zM100 713q0 209 87 377t255 268t389 100q141 -1 261 -42t204.5 -112t144 -165.5t88 -202.5
t27.5 -223q-1 -114 -29 -221t-87 -202t-143 -166t-204.5 -112t-263.5 -41t-264 41t-205.5 111.5t-144 165.5t-87.5 202t-28 222zM1378 711l2 2q1 112 -32.5 213.5t-98.5 184t-172 132.5t-243 51q-133 0 -240.5 -46.5t-175.5 -126.5t-103.5 -185t-33.5 -223q1 -87 22 -169
t65 -155.5t107 -128.5t154.5 -87t201.5 -32t201.5 32t154.5 87t106.5 128.5t64 154.5t20.5 168z" />
    <glyph glyph-name="Odieresis" unicode="&#xd6;" horiz-adv-x="1658" 
d="M506 1698q0 51 34 80.5t75.5 29.5t75.5 -29.5t34 -80.5t-34 -79.5t-75.5 -28.5t-75.5 28.5t-34 79.5zM973 1696q0 41 22.5 69.5t54.5 35t64.5 0t55 -34t22.5 -68.5t-22.5 -69t-55 -34.5t-64.5 0t-54.5 34t-22.5 67.5zM831 1456q-221 0 -389 -100t-255 -268t-87 -377
q0 -115 28 -223t87.5 -203t144 -165.5t205.5 -111.5t264 -41t264 41t205 112t143.5 166t88 202t29.5 221q1 116 -27.5 224t-88 203t-144.5 166t-205.5 112t-262.5 42zM281 709l-2 -2q-2 118 34 223t104 185t175 126.5t239 46.5q109 -1 200.5 -33.5t155 -87.5t107.5 -129
t64.5 -157t19.5 -172q-1 -110 -34.5 -210t-98.5 -182t-172.5 -131t-243.5 -49q-110 0 -201.5 32t-154.5 87t-106.5 128.5t-64 155.5t-21.5 169z" />
    <glyph glyph-name="multiply" unicode="&#xd7;" horiz-adv-x="942" 
d="M244 991l225 -227l227 227l109 -106l-232 -234l236 -233l-107 -103l-231 234l-231 -234l-111 109l233 233l-229 228z" />
    <glyph glyph-name="Oslash" unicode="&#xd8;" horiz-adv-x="1658" 
d="M395 100v2q-144 100 -218.5 262.5t-74.5 350.5q0 146 46 277.5t134 237t230 168t319 62.5q175 0 318 -65l96 168h180l-145 -244q136 -103 207.5 -263.5t71.5 -342.5q-1 -114 -29 -221t-87 -202t-143 -166t-205 -112t-264 -41q-165 0 -303 56l-106 -183h-176zM1061 1249
q-102 45 -227 45q-137 0 -245.5 -49t-174.5 -131.5t-99.5 -185t-31.5 -215.5q0 -135 52 -256.5t150 -198.5zM616 178q96 -35 218 -35q110 0 201.5 32t154 87t106.5 128.5t64 154.5t20 168q0 133 -47.5 253t-140.5 201z" />
    <glyph glyph-name="Ugrave" unicode="&#xd9;" horiz-adv-x="1517" 
d="M520 1855v7h207l152 -260v-11h-154zM1341 1434l2 -2v-861q0 -145 -46.5 -260.5t-127 -188t-184.5 -111t-223 -38.5q-117 0 -221 38t-187 110t-131.5 188.5t-48.5 261.5v861h180v-861q0 -138 56.5 -237t147.5 -146t204 -47q84 0 156 28.5t126.5 82t85.5 136t31 185.5v861
h180z" />
    <glyph glyph-name="Uacute" unicode="&#xda;" horiz-adv-x="1519" 
d="M662 1602l151 260h207v-7l-205 -264h-153v11zM1165 1434l-4 -2v-861q0 -202 -113 -316t-286 -114q-175 0 -291.5 113t-116.5 319v861h-180v-861q0 -145 48.5 -261.5t131.5 -188.5t188 -110t222 -38q119 0 223 38.5t185 111t127.5 188t46.5 260.5v861h-181z" />
    <glyph glyph-name="Ucircumflex" unicode="&#xdb;" horiz-adv-x="1515" 
d="M707 1870h108l295 -275v-14h-174l-176 162l-174 -162h-174v14zM1341 573l2 -2q0 -145 -46.5 -260.5t-127 -188t-184.5 -111t-223 -38.5q-117 0 -221 38t-187 110t-131.5 188.5t-48.5 261.5v861h180v-861q0 -138 56.5 -237t147.5 -146t204 -47q84 0 156 28.5t126.5 82
t85.5 136t31 185.5v861h180v-861z" />
    <glyph glyph-name="Udieresis" unicode="&#xdc;" horiz-adv-x="1519" 
d="M428 1692q0 51 34 80.5t75.5 29.5t75.5 -29.5t34 -80.5t-34 -79.5t-75.5 -28.5t-75.5 28.5t-34 79.5zM897 1690q0 41 22.5 69.5t55 35t64.5 0t54.5 -34t22.5 -68.5t-22.5 -69t-55 -34.5t-64.5 0t-54.5 34t-22.5 67.5zM1165 1430l-4 -3v-858q0 -202 -113 -316t-286 -114
q-175 0 -291.5 113t-116.5 319v859h-180v-859q0 -145 48.5 -261.5t131.5 -188.5t188 -110t222 -38q119 0 223 38.5t185 111t127.5 188t46.5 260.5v859h-181z" />
    <glyph glyph-name="Yacute" unicode="&#xdd;" horiz-adv-x="1392" 
d="M592 1595l153 260h205v-4l-205 -266h-153v10zM786 0v582l566 845v7h-217l-441 -680l-430 680h-217v-7l555 -845v-582h184z" />
    <glyph glyph-name="Thorn" unicode="&#xde;" horiz-adv-x="1400" 
d="M190 0h3v1432h176v-242h473q106 0 194.5 -32.5t146 -87.5t97.5 -126t48.5 -149.5t0 -157t-49 -149.5t-98 -126t-146.5 -87.5t-195 -32.5h-471v-242h-179zM842 406q76 0 137 26.5t98.5 70t58 98.5t20.5 113t-20.5 113t-58 98.5t-98.5 70t-137 26.5h-471v-616h471z" />
    <glyph glyph-name="germandbls" unicode="&#xdf;" horiz-adv-x="1251" 
d="M154 1057v2q0 98 38 176t102 125.5t143.5 72.5t168.5 25q94 0 175 -23t145.5 -68.5t101.5 -120t37 -171.5q0 -100 -60 -177t-163 -101q163 -36 242 -142.5t79 -246.5q0 -116 -41 -204t-110 -137.5t-159 -72.5t-189.5 -16t-200.5 40v154q108 -41 206.5 -43.5t168.5 29
t111.5 94.5t41.5 147q0 69 -22 123.5t-59 89.5t-87.5 57.5t-104 32t-112.5 9.5h-139v155h131q51 0 98.5 9t93.5 30.5t74 64t29 101.5q1 66 -24.5 113t-69 71t-90 34.5t-99.5 10.5q-138 0 -207.5 -64.5t-74.5 -178.5l2 -1057h-176v1057z" />
    <glyph glyph-name="agrave" unicode="&#xe0;" horiz-adv-x="1304" 
d="M391 1446v4h207l154 -260v-10h-154zM989 0l-4 -4l-4 184q-57 -100 -159.5 -152.5t-213.5 -52.5q-146 0 -263 63t-186 185t-69 283q0 160 70 280.5t187.5 181.5t262.5 60q117 0 219 -52.5t156 -148.5l2 185h164v-1012h-162zM618 870l-2 -2q-154 0 -258 -101.5t-104 -266.5
t104 -268t258 -103q100 0 179 41t119.5 106t59.5 144t0 158.5t-59 144.5t-118.5 106t-178.5 41z" />
    <glyph glyph-name="aacute" unicode="&#xe1;" horiz-adv-x="1302" 
d="M512 1190l154 260h204v-6l-204 -264h-154v10zM1149 0v4v1012h-164l-2 -185q-53 96 -154 148.5t-219 52.5q-145 0 -262.5 -61.5t-187.5 -182t-70 -280.5q0 -161 69 -282.5t186 -184t263 -61.5q112 0 215 52t160 152l4 -184h162zM621 879l-3 2q100 0 179 -41t119.5 -106.5
t60 -144.5t0.5 -158t-59.5 -144.5t-118.5 -106.5t-178 -41q-154 0 -258.5 103t-104.5 268t104.5 267t258.5 102z" />
    <glyph glyph-name="acircumflex" unicode="&#xe2;" horiz-adv-x="1304" 
d="M301 1174l297 276h107l296 -276v-15h-174l-176 164l-176 -164h-174v15zM989 0l-4 -4l-4 184q-57 -100 -159.5 -152.5t-213.5 -52.5q-146 0 -263 63t-186 185t-69 283q0 160 70 280.5t187.5 181.5t262.5 60q117 0 219 -52.5t156 -148.5l2 185h164v-1012h-162zM618 870
l-2 -2q-154 0 -258 -101.5t-104 -266.5t104 -268t258 -103q100 0 179 41t119.5 106t59.5 144t0 158.5t-59 144.5t-118.5 106t-178.5 41z" />
    <glyph glyph-name="atilde" unicode="&#xe3;" horiz-adv-x="1304" 
d="M360 1290v-4q23 93 92 134.5t154 11.5q11 -3 57 -26.5t56 -25.5q33 -15 67 -1.5t50 59.5l110 -47q-24 -101 -93.5 -139t-147.5 -7q-13 3 -59.5 29t-57.5 29q-33 15 -67 0.5t-52 -62.5zM989 -4l-4 -4l-4 184q-57 -100 -159.5 -152.5t-213.5 -52.5q-146 0 -263 63t-186 185
t-69 283q0 160 70 280.5t187.5 181.5t262.5 60q117 0 219 -52.5t156 -148.5l2 185h164v-1012h-162zM618 866l-2 -2q-154 0 -258 -101.5t-104 -266.5t104 -268t258 -103q100 0 179 41t119.5 106t59.5 144t0 158.5t-59 144.5t-118.5 106t-178.5 41z" />
    <glyph glyph-name="adieresis" unicode="&#xe4;" horiz-adv-x="1302" 
d="M319 1356q0 51 34.5 80.5t75.5 29.5t75.5 -29.5t34.5 -80.5t-34.5 -79.5t-75.5 -28.5t-75.5 28.5t-34.5 79.5zM791 1354q0 41 22.5 69.5t55 35t64.5 0t54.5 -34t22.5 -68.5t-22.5 -69t-55 -34.5t-64.5 0t-54.5 34t-22.5 67.5zM1149 -2v2v1010h-164l-2 -183
q-53 96 -154 148.5t-219 52.5q-145 0 -262.5 -61.5t-187.5 -181.5t-70 -279q0 -161 69 -283t186 -184.5t263 -61.5q112 0 215 52.5t160 152.5l4 -184h162zM621 874h-3q79 0 144.5 -25.5t108 -68t72.5 -98.5t36.5 -117.5t0 -122.5t-35.5 -117t-71.5 -98.5t-108 -68
t-143.5 -25.5q-154 0 -258.5 103t-104.5 270q0 165 104 266.5t259 101.5z" />
    <glyph glyph-name="aring" unicode="&#xe5;" horiz-adv-x="1304" 
d="M410 1356h-2q0 99 69.5 155t165.5 56q97 0 168.5 -55.5t71.5 -155.5t-69.5 -156.5t-170.5 -56.5t-167 57t-66 156zM639 1464h2q-55 0 -86.5 -33.5t-31.5 -74t31.5 -74t86.5 -33.5q47 0 78.5 22t38.5 53.5t-1 63.5t-40 54t-78 22zM989 0l-4 -4l-4 184
q-57 -100 -159.5 -152.5t-213.5 -52.5q-146 0 -263 63t-186 185t-69 283q0 160 70 280.5t187.5 181.5t262.5 60q117 0 219 -52.5t156 -148.5l2 185h164v-1012h-162zM618 870l-2 -2q-154 0 -258 -101.5t-104 -266.5t104 -268t258 -103q100 0 179 41t119.5 106t59.5 144
t0 158.5t-59 144.5t-118.5 106t-178.5 41z" />
    <glyph glyph-name="ae" unicode="&#xe6;" horiz-adv-x="2074" 
d="M983 0l2 -6v184q-57 -100 -161 -152.5t-216 -52.5q-146 0 -263 63t-186 185t-69 283q0 160 70 280.5t187 181.5t261 60q118 0 221.5 -53t157.5 -148l2 185h131v-174q65 97 165 146.5t220 47.5q107 -1 203 -40t167.5 -111t105 -186.5t12.5 -254.5h-858
q13 -138 114.5 -220.5t249.5 -82.5q91 0 182 34t140 93l110 -102q-73 -87 -192 -133.5t-244 -46.5q-127 0 -224.5 49.5t-154.5 142.5l-4 -172h-129zM1835 575l-2 -2q-6 145 -97.5 224.5t-242.5 79.5q-137 0 -236 -80t-120 -222h698zM618 866v-2q-154 0 -258 -101.5
t-104 -266.5t104 -268t258 -103q90 0 162.5 32t117 84t68.5 118.5t24 136t-24 136t-68.5 118.5t-117 84t-162.5 32z" />
    <glyph glyph-name="ccedilla" unicode="&#xe7;" horiz-adv-x="1060" 
d="M999 135v2q-152 -152 -368 -155l-25 -88q123 1 172 -65.5t29 -152.5q-19 -79 -85 -120t-149 -43q-74 -2 -140 28.5t-101 89.5l80 72q52 -72 149 -72q41 0 72.5 17t40.5 49q18 59 -39.5 92.5t-142.5 3.5l-35 27l49 172q-184 32 -299 166.5t-115 347.5q0 124 41.5 224
t113.5 165t167.5 100t206.5 35q212 0 366 -151l-106 -111q-105 102 -256 102q-155 0 -259 -99t-104 -265q0 -171 103.5 -268t257.5 -97q160 0 264 107z" />
    <glyph glyph-name="egrave" unicode="&#xe8;" horiz-adv-x="1200" 
d="M385 1442v4h207l151 -260v-10h-153zM1061 162h-2q-73 -87 -192 -133.5t-244 -46.5q-237 0 -385 144.5t-148 383.5q0 229 147.5 376.5t376.5 147.5q118 0 215 -37t168 -108.5t104 -186.5t19 -262h-856q13 -138 114 -220.5t249 -82.5q91 0 181.5 34t139.5 93zM961 582v-2
q-6 145 -98.5 224t-244.5 79q-136 0 -234.5 -79.5t-119.5 -221.5h697z" />
    <glyph glyph-name="eacute" unicode="&#xe9;" horiz-adv-x="1198" 
d="M508 1188l151 260h207v-4l-204 -266h-154v10zM1118 440v-4q14 148 -19 263.5t-104 187.5t-168 108.5t-215 36.5q-227 0 -374.5 -147.5t-147.5 -376.5q0 -239 148 -383.5t385 -144.5q125 0 244 46.5t192 133.5l-113 102q-49 -59 -139.5 -93t-181.5 -34q-148 0 -249 83
t-114 222h856zM264 578v2q21 142 119.5 221.5t234.5 79.5q152 0 244.5 -79t98.5 -224h-697z" />
    <glyph glyph-name="ecircumflex" unicode="&#xea;" horiz-adv-x="1200" 
d="M281 1171l297 275h106l297 -275v-14h-174l-176 162l-176 -162h-174v14zM1061 162h-2q-73 -87 -192 -133.5t-244 -46.5q-237 0 -385 144.5t-148 383.5q0 229 147.5 376.5t376.5 147.5q118 0 215 -37t168 -108.5t104 -186.5t19 -262h-856q13 -138 114 -220.5t249 -82.5
q91 0 181.5 34t139.5 93zM961 582v-2q-6 145 -98.5 224t-244.5 79q-136 0 -234.5 -79.5t-119.5 -221.5h697z" />
    <glyph glyph-name="edieresis" unicode="&#xeb;" horiz-adv-x="1198" 
d="M303 1333q0 41 22.5 69.5t54.5 35t64.5 0t55 -34t22.5 -68.5t-22.5 -69t-55 -34.5t-64.5 0t-54.5 34t-22.5 67.5zM739 1333q0 51 34 80.5t75.5 29.5t75.5 -29.5t34 -80.5t-34 -79.5t-75.5 -28.5t-75.5 28.5t-34 79.5zM1118 436v-4q14 148 -19 263.5t-104 187.5
t-168 108.5t-215 36.5q-227 0 -374.5 -147.5t-147.5 -376.5q0 -239 148 -384t385 -145q124 0 243 47t193 134l-113 104q-49 -59 -139.5 -93t-181.5 -34q-148 0 -249 82.5t-114 220.5h856zM264 575q21 142 119.5 222t234.5 80q152 0 244.5 -79t98.5 -223h-697z" />
    <glyph glyph-name="igrave" unicode="&#xec;" horiz-adv-x="479" 
d="M43 1427v7h184l103 -265v-10h-144zM154 997h172v-997h-172v997z" />
    <glyph glyph-name="iacute" unicode="&#xed;" horiz-adv-x="481" 
d="M152 1169l102 265h182v-7l-141 -268h-143v10zM328 0v997h-174v-997h174z" />
    <glyph glyph-name="icircumflex" unicode="&#xee;" horiz-adv-x="481" 
d="M-25 1169l232 269h88l225 -269v-14h-147l-123 152l-125 -152h-150v14zM154 997h174v-997h-174v997z" />
    <glyph glyph-name="idieresis" unicode="&#xef;" horiz-adv-x="481" 
d="M-20 1331q0 40 22 67t53 33t62.5 0t53.5 -33t22 -67t-22 -67t-53.5 -33t-62.5 0t-53 33t-22 67zM305 1331q0 40 22 67t53.5 33t62.5 0t53 -33t22 -67t-22 -67t-53 -33t-62.5 0t-53.5 33t-22 67zM328 2v997h-174v-997h174z" />
    <glyph glyph-name="eth" unicode="&#xf0;" horiz-adv-x="1230" 
d="M612 131q111 0 194.5 52.5t124 133t40.5 172.5q0 91 -40.5 171t-124 133t-194.5 53q-84 0 -152.5 -30.5t-110.5 -81.5t-64.5 -114t-22.5 -131q0 -69 22.5 -132t64.5 -114t110.5 -81.5t152.5 -30.5zM559 989q99 7 201.5 -25t181.5 -118q-23 70 -77 137t-106 109t-108 75
l-76 -98l-90 59l70 97q-71 41 -193 69l37 138q142 -34 252 -89l92 123l93 -63l-86 -115q202 -146 291.5 -338t91.5 -434q2 -239 -139.5 -387.5t-381.5 -148.5q-126 0 -227.5 43t-164.5 115t-96.5 161.5t-33.5 187.5q0 92 30 178t86.5 156t148 115.5t204.5 52.5z" />
    <glyph glyph-name="ntilde" unicode="&#xf1;" horiz-adv-x="1245" 
d="M336 1294l-2 2q24 89 92.5 129t153.5 11q12 -3 58 -26.5t58 -25.5q31 -13 64 0t49 54l111 -47q-24 -97 -94 -134t-148 -8q-12 3 -59 29t-60 27q-36 12 -67.5 -2t-47.5 -58zM154 1014v2h153l8 -162q128 176 347 176q197 0 320.5 -125.5t123.5 -343.5v-559h-168v557
q0 147 -81.5 231t-225.5 84q-136 -1 -224 -96t-88 -233v-543h-165v1012z" />
    <glyph glyph-name="ograve" unicode="&#xf2;" horiz-adv-x="1218" 
d="M569 1180l-204 260v6h206l152 -256v-10h-154zM90 504q0 230 146 378t372 148t373 -148t147 -378t-145.5 -376t-374.5 -146q-228 0 -373 146t-145 376zM961 504h2q0 160 -100.5 266.5t-252.5 106.5q-154 0 -253 -106t-99 -267q0 -160 97.5 -262.5t252.5 -102.5
q156 0 254.5 102.5t98.5 262.5z" />
    <glyph glyph-name="oacute" unicode="&#xf3;" horiz-adv-x="1216" 
d="M514 1171v11l150 252h204v-7l-202 -256h-152zM1126 504h2q0 230 -147 378t-373 148t-372 -148t-146 -378t145 -376t373 -146t373 146t145 376zM258 504h2q0 161 99 267t253 106q151 0 251 -106.5t100 -266.5t-98.5 -262.5t-254.5 -102.5t-254 102.5t-98 262.5z" />
    <glyph glyph-name="ocircumflex" unicode="&#xf4;" horiz-adv-x="1216" 
d="M561 1448h107l297 -274v-15h-174l-177 162l-176 -162h-174v15zM1126 504h2q0 230 -147 378t-373 148t-372 -148t-146 -378t145 -376t373 -146t373 146t145 376zM258 504h2q0 161 99 267t253 106q151 0 251 -106.5t100 -266.5t-98.5 -262.5t-254.5 -102.5t-254 102.5
t-98 262.5z" />
    <glyph glyph-name="otilde" unicode="&#xf5;" horiz-adv-x="1216" 
d="M326 1284l-2 2q23 90 91.5 130t153.5 11q13 -3 61 -26.5t60 -24.5q35 -12 66 1.5t45 56.5l112 -48q-24 -100 -93.5 -137t-145.5 -6q-13 3 -58.5 26.5t-56.5 26.5q-90 31 -125 -61zM90 506q0 230 146 378t372 148t373 -148t147 -378t-145.5 -376t-374.5 -146
q-228 0 -373 146t-145 376zM961 506h2q0 160 -100.5 266.5t-252.5 106.5q-154 0 -253 -106t-99 -267q0 -160 97.5 -262.5t252.5 -102.5q156 0 254.5 102.5t98.5 262.5z" />
    <glyph glyph-name="odieresis" unicode="&#xf6;" horiz-adv-x="1216" 
d="M289 1321q0 51 34 80.5t75.5 29.5t75.5 -29.5t34 -80.5t-34 -79.5t-75.5 -28.5t-75.5 28.5t-34 79.5zM719 1319q0 41 22.5 69.5t55 35t64.5 0t54.5 -34t22.5 -68.5t-22.5 -69t-55 -34.5t-64.5 0t-54.5 34t-22.5 67.5zM1126 502h2q0 230 -147 378t-373 148t-372 -148
t-146 -378t145 -376t373 -146t373 146t145 376zM258 502h2q0 161 99 266.5t253 105.5q151 0 251 -106t100 -266t-98.5 -262.5t-254.5 -102.5t-254 102.5t-98 262.5z" />
    <glyph glyph-name="divide" unicode="&#xf7;" horiz-adv-x="1155" 
d="M471 1014q0 51 34 80.5t75.5 29.5t75.5 -29.5t34 -80.5t-34 -79.5t-75.5 -28.5t-75.5 28.5t-34 79.5zM143 592h869v166h-869v-166zM471 326q0 51 34 80.5t75.5 29.5t75.5 -29.5t34 -80.5t-34 -79.5t-75.5 -28.5t-75.5 28.5t-34 79.5z" />
    <glyph glyph-name="oslash" unicode="&#xf8;" horiz-adv-x="1216" 
d="M285 86q-92 69 -143.5 177t-51.5 241q0 230 146 378t372 148q116 0 209 -43l76 129h164l-117 -198q89 -70 138.5 -177.5t49.5 -236.5q0 -230 -145.5 -376t-374.5 -146q-114 0 -202 36l-82 -139h-162zM737 850l4 2q-66 27 -131 27q-154 0 -253 -106t-99 -267
q0 -175 113 -273zM496 162q52 -21 116 -21q156 0 254.5 102.5t98.5 262.5q0 159 -107 266z" />
    <glyph glyph-name="ugrave" unicode="&#xf9;" horiz-adv-x="1247" 
d="M377 1430v6h205l153 -262v-11h-153zM938 0h2l-8 162q-128 -175 -352 -178q-197 0 -319 125.5t-122 343.5v559h168v-557q0 -147 81.5 -231.5t225.5 -84.5q136 1 224 96.5t88 233.5v543h168v-1012h-156z" />
    <glyph glyph-name="uacute" unicode="&#xfa;" horiz-adv-x="1245" 
d="M524 1174l152 262h207v-6l-205 -267h-154v11zM1092 1012l2 4h-168v-543q0 -140 -88 -235.5t-224 -96.5q-144 -1 -225.5 83t-81.5 231v557h-168v-559q0 -217 121.5 -343t317.5 -126q225 3 350 178l8 -162h156v1012z" />
    <glyph glyph-name="ucircumflex" unicode="&#xfb;" horiz-adv-x="1247" 
d="M285 1167l290 271h107l291 -271v-12h-172l-172 158l-172 -158h-172v12zM938 0h2l-8 162q-128 -175 -352 -178q-197 0 -319 125.5t-122 343.5v559h168v-557q0 -147 81.5 -231.5t225.5 -84.5q136 1 224 96.5t88 233.5v543h168v-1012h-156z" />
    <glyph glyph-name="udieresis" unicode="&#xfc;" horiz-adv-x="1245" 
d="M285 1337q0 41 22.5 69.5t54.5 35t64.5 0t55 -34t22.5 -68.5t-22.5 -69t-55 -34.5t-64.5 0t-54.5 34t-22.5 67.5zM754 1337q0 51 34 80.5t75.5 29.5t75.5 -29.5t34 -80.5t-34 -79.5t-75.5 -28.5t-75.5 28.5t-34 79.5zM1092 1010l2 2h-168v-543q0 -140 -88 -235.5
t-224 -96.5q-144 -1 -225.5 83.5t-81.5 232.5v557h-168v-559q0 -217 121.5 -343t317.5 -126q225 3 350 178l8 -164h156v1014z" />
    <glyph glyph-name="yacute" unicode="&#xfd;" horiz-adv-x="1128" 
d="M459 1184l147 252h203v-6l-201 -256h-149v10zM893 1012l-223 -529l-111 -286l-108 288l-199 527h-191l406 -998l-211 -491h182l639 1489h-184z" />
    <glyph glyph-name="thorn" unicode="&#xfe;" horiz-adv-x="1304" 
d="M156 -422l-2 -2v1854h165v-615q55 98 161.5 155.5t228.5 57.5q222 -5 362.5 -142.5t140.5 -381.5q0 -126 -39 -227t-108.5 -166t-162.5 -99.5t-202 -34.5q-114 0 -216.5 54t-161.5 159v-612h-166zM688 139q155 0 255.5 96t100.5 269q0 172 -100.5 266t-255.5 94
q-151 0 -252.5 -103.5t-101.5 -258.5t102 -259t252 -104z" />
    <glyph glyph-name="ydieresis" unicode="&#xff;" horiz-adv-x="1128" 
d="M248 1337q0 50 33.5 78.5t73 28.5t73 -28.5t33.5 -78.5q0 -40 -22 -67t-53.5 -33t-62.5 0t-53 33t-22 67zM709 1337q0 50 33.5 78.5t73 28.5t73 -28.5t33.5 -78.5q0 -40 -22 -67t-53 -33t-62.5 0t-53.5 33t-22 67zM893 1012l-223 -529l-111 -286l-108 288l-199 527h-191
l406 -998l-211 -491h182l639 1489h-184z" />
    <glyph glyph-name="Amacron" unicode="&#x100;" horiz-adv-x="1556" 
d="M426 1745h684v-146h-684v146zM678 1434h201l643 -1434h-193l-141 315h-819l-140 -315h-194zM1118 479l-340 774l-340 -774h680z" />
    <glyph glyph-name="amacron" unicode="&#x101;" horiz-adv-x="1304" 
d="M313 1407h684v-145h-684v145zM989 0l-4 -4l-4 184q-57 -100 -159.5 -152.5t-213.5 -52.5q-146 0 -263 63t-186 185t-69 283q0 160 70 280.5t187.5 181.5t262.5 60q117 0 219 -52.5t156 -148.5l2 185h164v-1012h-162zM618 870l-2 -2q-154 0 -258 -101.5t-104 -266.5
t104 -268t258 -103q100 0 179 41t119.5 106t59.5 144t0 158.5t-59 144.5t-118.5 106t-178.5 41z" />
    <glyph glyph-name="Abreve" unicode="&#x102;" horiz-adv-x="1556" 
d="M1057 1849h-6q6 -129 -74 -201.5t-205 -72.5q-127 0 -206.5 73t-73.5 201h137q0 -63 36 -104t111 -41q72 0 108 41.5t36 103.5h137zM678 1434h201l643 -1434h-193l-141 315h-819l-140 -315h-194zM1118 479l-340 774l-340 -774h680z" />
    <glyph glyph-name="abreve" unicode="&#x103;" horiz-adv-x="1304" 
d="M936 1442h-4q6 -129 -74 -202t-207 -73t-206.5 73.5t-73.5 201.5h137q0 -63 36 -104.5t111 -41.5q72 0 108 42t36 104h137zM989 0l-4 -4l-4 184q-57 -100 -159.5 -152.5t-213.5 -52.5q-146 0 -263 63t-186 185t-69 283q0 160 70 280.5t187.5 181.5t262.5 60
q117 0 219 -52.5t156 -148.5l2 185h164v-1012h-162zM618 870l-2 -2q-154 0 -258 -101.5t-104 -266.5t104 -268t258 -103q100 0 179 41t119.5 106t59.5 144t0 158.5t-59 144.5t-118.5 106t-178.5 41z" />
    <glyph glyph-name="Aogonek" unicode="&#x104;" horiz-adv-x="1558" 
d="M1524 -2v-4q-108 10 -174 0q-83 -15 -116.5 -68t-0.5 -99t113 -42q87 4 147 78l92 -64q-32 -58 -94 -92.5t-135 -42.5q-77 -9 -138 15t-93.5 66.5t-40.5 96.5t10.5 104t71 89.5t130.5 52.5l-104 227h-825l-140 -315h-192l643 1434h201zM1120 477l-342 774l-340 -774h682z
" />
    <glyph glyph-name="aogonek" unicode="&#x105;" horiz-adv-x="1304" 
d="M1151 -78l-2 -4q-64 7 -119.5 -8t-85 -49.5t-18.5 -77.5q6 -31 36.5 -51.5t77.5 -20.5q39 0 81 20t71 58l92 -63q-34 -64 -100.5 -100t-141.5 -38q-99 -3 -167 42t-82 120q-8 45 6 90.5t62.5 90.5t127.5 67l-8 182q-57 -100 -159.5 -152.5t-213.5 -52.5q-146 0 -263 63
t-186 185t-69 283q0 160 70 280.5t187.5 181.5t262.5 60q117 0 219 -52.5t156 -148.5l2 185h164v-1090zM621 870l-3 -2q-154 0 -258 -101.5t-104 -266.5t104 -268t258 -103q79 0 144.5 25.5t108 68t72.5 98.5t36.5 117.5t0 122.5t-35.5 117t-71.5 98.5t-108 68t-143.5 25.5z
" />
    <glyph glyph-name="Cacute" unicode="&#x106;" horiz-adv-x="1449" 
d="M731 1610l150 254h202v-6l-200 -259h-152v11zM1255 313l2 -4q-82 -80 -190 -123t-219 -43q-140 0 -250.5 47t-178.5 127t-103 179.5t-37 212.5q-1 90 21 173.5t68 157t112.5 127.5t161 85.5t206.5 31.5q238 0 401 -160l123 115q-107 106 -243 160.5t-281 54.5
q-182 0 -328.5 -63t-237 -169t-137.5 -238t-45 -277q1 -116 29.5 -222.5t89.5 -199.5t147.5 -162t210 -108.5t271.5 -39.5q151 0 288 54t244 161z" />
    <glyph glyph-name="cacute" unicode="&#x107;" horiz-adv-x="1058" 
d="M496 1208l135 226h178v-4l-178 -232h-135v10zM885 248l-2 -8q-105 -105 -265 -105q-154 0 -257 97.5t-103 269.5q0 167 104 266.5t261 99.5q151 0 256 -102l106 111q-154 151 -367 151q-148 0 -266.5 -59.5t-190 -179.5t-71.5 -283q0 -164 72.5 -284.5t190.5 -180
t265 -59.5q222 0 379 153z" />
    <glyph glyph-name="Ccircumflex" unicode="&#x108;" horiz-adv-x="1454" 
d="M782 1880h107l291 -270v-13h-172l-174 158l-170 -158h-172v13zM1382 190q-107 -105 -244 -159t-288 -54q-148 0 -271.5 39.5t-210 108.5t-147.5 162t-89.5 199.5t-29.5 222.5q-2 145 45 277t137.5 238t237 169t328.5 63q145 0 281 -54.5t243 -160.5l-123 -115
q-163 160 -401 160q-112 0 -206.5 -31.5t-161 -85.5t-112.5 -127.5t-68 -157t-21 -173.5q1 -89 23 -170.5t68 -153.5t111.5 -125t159.5 -84t207 -31q111 0 219 43t188 123z" />
    <glyph glyph-name="ccircumflex" unicode="&#x109;" horiz-adv-x="1056" 
d="M553 1458h102l281 -262v-12h-166l-166 153l-164 -153h-168v12zM997 135l-2 2q-155 -155 -377 -155q-147 0 -265 59.5t-190.5 180t-72.5 284.5t71.5 284.5t189.5 180t267 59.5q213 0 367 -151l-106 -111q-105 102 -256 102q-155 0 -259 -99t-104 -265q0 -171 103.5 -268
t257.5 -97q160 0 264 107z" />
    <glyph glyph-name="Cdotaccent" unicode="&#x10a;" horiz-adv-x="1449" 
d="M735 1712q0 29 12 52.5t31 35.5t41.5 17.5t45.5 0t42 -17t31 -34.5t12 -52q0 -41 -22 -69t-54 -34.5t-63.5 0t-53.5 34t-22 67.5zM1255 313l2 -4q-82 -80 -190 -123t-219 -43q-140 0 -250.5 47t-178.5 127t-103 179.5t-37 212.5q-1 90 21 173.5t68 157t112.5 127.5
t161 85.5t206.5 31.5q238 0 401 -160l123 115q-107 106 -243 160.5t-281 54.5q-182 0 -328.5 -63t-237 -169t-137.5 -238t-45 -277q1 -116 29.5 -222.5t89.5 -199.5t147.5 -162t210 -108.5t271.5 -39.5q151 0 288 54t244 161z" />
    <glyph glyph-name="cdotaccent" unicode="&#x10b;" horiz-adv-x="1058" 
d="M506 1329q0 49 32.5 76.5t72 27.5t72 -27.5t32.5 -76.5t-32.5 -76.5t-72 -27.5t-72 27.5t-32.5 76.5zM885 248l-2 -8q-105 -105 -265 -105q-154 0 -257 97.5t-103 269.5q0 167 104 266.5t261 99.5q150 0 256 -100l106 109q-154 151 -367 151q-148 0 -266.5 -59.5
t-190 -179.5t-71.5 -283q0 -164 72.5 -284.5t190.5 -180t265 -59.5q222 0 379 153z" />
    <glyph glyph-name="Ccaron" unicode="&#x10c;" horiz-adv-x="1454" 
d="M494 1847v15h170l167 -156l175 156h163v-15l-286 -256h-105zM1382 190q-107 -105 -244 -159t-288 -54q-148 0 -271.5 39.5t-210 108.5t-147.5 162t-89.5 199.5t-29.5 222.5q-2 145 45 277t137.5 238t237 169t328.5 63q145 0 281 -54.5t243 -160.5l-123 -115
q-163 160 -401 160q-112 0 -206.5 -31.5t-161 -85.5t-112.5 -127.5t-68 -157t-21 -173.5q1 -89 23 -170.5t68 -153.5t111.5 -125t159.5 -84t207 -31q111 0 219 43t188 123z" />
    <glyph glyph-name="ccaron" unicode="&#x10d;" horiz-adv-x="1056" 
d="M279 1421v15h159l162 -154l168 154h158v-15l-277 -252h-100zM997 135l-2 2q-155 -155 -377 -155q-147 0 -265 59.5t-190.5 180t-72.5 284.5t71.5 284.5t189.5 180t267 59.5q213 0 367 -151l-106 -111q-105 102 -256 102q-155 0 -259 -99t-104 -265q0 -171 103.5 -268
t257.5 -97q160 0 264 107z" />
    <glyph glyph-name="Dcaron" unicode="&#x10e;" horiz-adv-x="1536" 
d="M330 1843v15h168l168 -158l174 158h164v-15l-287 -262h-103zM190 1434v2h523q142 0 261 -39t202 -106t141.5 -157.5t86.5 -191.5t30 -209q2 -111 -23.5 -216t-83 -199.5t-141 -164.5t-205.5 -111.5t-268 -41.5h-523v1434zM713 178q111 0 203 31.5t154 85.5t104.5 126
t61.5 151t17 163q-2 102 -36 194.5t-98 168.5t-169 121t-237 45h-344v-1086h344z" />
    <glyph glyph-name="dcaron" unicode="&#x10f;" horiz-adv-x="1302" 
d="M1327 1434h166l-125 -355h-129zM1147 1434l2 2v-1434h-158l-8 184q-59 -101 -160.5 -152.5t-218.5 -51.5q-146 0 -261 60.5t-183 180.5t-68 283q0 247 143.5 385.5t366.5 138.5q115 0 221.5 -52.5t157.5 -150.5v607h166zM614 874h2q-154 0 -255 -97t-101 -269
q0 -170 101.5 -268.5t254.5 -98.5t256 103t103 266q0 160 -104 262t-257 102z" />
    <glyph glyph-name="Dcroat" unicode="&#x110;" horiz-adv-x="1548" 
d="M72 797v2h131v637h522q142 0 261 -39t202 -106t141.5 -157.5t86.5 -191.5t30 -209q2 -111 -23.5 -216t-83 -199.5t-141 -164.5t-205.5 -111.5t-268 -41.5h-522v643h-131v154zM725 178q137 0 245 48t171.5 128.5t95 177.5t29.5 203q-2 81 -23 156.5t-64.5 143.5
t-105.5 118.5t-151.5 80.5t-196.5 30h-344v-465h264v-154h-264v-467h344z" />
    <glyph glyph-name="dcroat" unicode="&#x111;" horiz-adv-x="1302" 
d="M1147 1434l2 2v-140h141v-122h-141v-1172h-158l-8 184q-59 -101 -160.5 -152.5t-218.5 -51.5q-146 0 -261 60.5t-183 180.5t-68 283q0 247 143.5 385.5t366.5 138.5q115 0 221.5 -52.5t157.5 -150.5v344h-217v123h217v140h166zM614 874h2q-154 0 -255 -97t-101 -269
q0 -170 101.5 -268.5t254.5 -98.5t256 103t103 266q0 160 -104 262t-257 102z" />
    <glyph glyph-name="Emacron" unicode="&#x112;" horiz-adv-x="1333" 
d="M367 1753h684v-145h-684v145zM190 0v1434h1008v-164h-831v-449h796v-166h-796v-485h864v-170h-1041z" />
    <glyph glyph-name="emacron" unicode="&#x113;" horiz-adv-x="1200" 
d="M295 1430h639v-138h-639v138zM1061 162h-2q-73 -87 -192 -133.5t-244 -46.5q-237 0 -385 144.5t-148 383.5q0 229 147.5 376.5t376.5 147.5q118 0 215 -37t168 -108.5t104 -186.5t19 -262h-856q13 -138 114 -220.5t249 -82.5q91 0 181.5 34t139.5 93zM961 582v-2
q-6 145 -98.5 224t-244.5 79q-136 0 -234.5 -79.5t-119.5 -221.5h697z" />
    <glyph glyph-name="Ebreve" unicode="&#x114;" horiz-adv-x="1333" 
d="M1010 1847h-2q6 -125 -75 -195.5t-208 -70.5q-129 0 -209 70.5t-74 195.5h140q0 -61 36 -101t109 -40q72 0 107.5 40t35.5 101h140zM190 0v1434h1008v-164h-831v-449h796v-166h-796v-485h864v-170h-1041z" />
    <glyph glyph-name="ebreve" unicode="&#x115;" horiz-adv-x="1200" 
d="M899 1440q6 -125 -74 -195.5t-207 -70.5q-129 0 -208.5 70.5t-75.5 195.5h137q0 -61 36 -101.5t109 -40.5q72 0 108 41t36 103zM1061 160h-2q-73 -87 -192 -133.5t-244 -46.5q-237 0 -385 144.5t-148 385.5q0 229 147.5 376.5t376.5 147.5q118 0 215 -36.5t168 -108.5
t104 -187.5t19 -263.5h-856q13 -138 114 -220.5t249 -82.5q91 0 181.5 34t139.5 93zM961 580q-6 145 -98.5 224t-244.5 79q-137 0 -235 -80t-119 -223h697z" />
    <glyph glyph-name="Edotaccent" unicode="&#x116;" horiz-adv-x="1333" 
d="M610 1698q0 50 35.5 78.5t77.5 28.5t77.5 -28.5t35.5 -78.5t-35.5 -78.5t-77.5 -28.5t-77.5 28.5t-35.5 78.5zM190 0v1434h1008v-164h-831v-449h796v-166h-796v-485h864v-170h-1041z" />
    <glyph glyph-name="edotaccent" unicode="&#x117;" horiz-adv-x="1198" 
d="M508 1350q0 40 23 67t56 33t65.5 0t55.5 -33t23 -67t-23 -67t-55.5 -33t-65.5 0t-56 33t-23 67zM1118 440v-4q14 148 -19 263.5t-104 187.5t-168 108.5t-215 36.5q-227 0 -374.5 -147.5t-147.5 -376.5q0 -239 148 -383.5t385 -144.5q125 0 244 46.5t192 133.5l-113 102
q-49 -59 -139.5 -93t-181.5 -34q-148 0 -249 83t-114 222h856zM264 578v2q21 142 119.5 221.5t234.5 79.5q152 0 244.5 -79t98.5 -224h-697z" />
    <glyph glyph-name="Eogonek" unicode="&#x118;" horiz-adv-x="1335" 
d="M1231 0l6 2q-141 1 -213.5 -50t-56.5 -106q8 -27 36 -45t68 -18q43 0 87.5 19.5t74.5 58.5l96 -64q-36 -67 -108.5 -108.5t-151.5 -44.5q-96 -3 -163.5 38t-80.5 111q-12 54 14 113.5t95 93.5h-744v1434h1010v-168h-833v-445h798v-164h-798v-489h864v-168z" />
    <glyph glyph-name="eogonek" unicode="&#x119;" horiz-adv-x="1200" 
d="M1128 -168l-6 4q-34 -64 -103.5 -102t-146.5 -41q-84 -3 -146 27t-85 87q-20 43 -16 94t32 89q-24 -4 -45 -4q-235 6 -380.5 148t-145.5 376q0 229 147.5 376.5t376.5 147.5q118 0 215 -37t168 -108.5t104 -186.5t19 -262h-856q13 -138 114 -220.5t249 -82.5
q91 0 181.5 34t139.5 93l113 -102q-39 -46 -97.5 -85t-121.5 -61q-48 -21 -67.5 -58.5t-0.5 -78.5q13 -26 42 -42.5t69 -16.5t82.5 19t72.5 57zM954 586v-2q-6 145 -98 224t-244 79q-136 0 -234.5 -79.5t-119.5 -221.5h696z" />
    <glyph glyph-name="Ecaron" unicode="&#x11a;" horiz-adv-x="1333" 
d="M356 1833v14h172l172 -157l177 157h170v-14l-295 -260h-105zM190 0v1434h1008v-164h-831v-449h796v-166h-796v-485h864v-170h-1041z" />
    <glyph glyph-name="ecaron" unicode="&#x11b;" horiz-adv-x="1200" 
d="M272 1421v15h174l172 -156l179 156h170v-15l-295 -260h-107zM1061 162h-2q-73 -87 -192 -133.5t-244 -46.5q-237 0 -385 144.5t-148 383.5q0 229 147.5 376.5t376.5 147.5q118 0 215 -37t168 -108.5t104 -186.5t19 -262h-856q13 -138 114 -220.5t249 -82.5q91 0 181.5 34
t139.5 93zM961 582v-2q-6 145 -98.5 224t-244.5 79q-136 0 -234.5 -79.5t-119.5 -221.5h697z" />
    <glyph glyph-name="Gcircumflex" unicode="&#x11c;" horiz-adv-x="1519" 
d="M764 1878h104l289 -270v-13h-172l-170 158l-170 -158h-172v13zM1399 219l8 -2q-227 -244 -555 -244q-149 0 -273 39t-211 107.5t-147 161.5t-88.5 200t-28.5 224q-1 215 87 385.5t259.5 271t399.5 100.5q145 0 282 -55t244 -160l-110 -117q-83 80 -194.5 123t-223.5 43
q-134 0 -244 -47.5t-181 -129t-109 -187.5t-38 -225q0 -112 35 -211t103 -178.5t179.5 -126t252.5 -46.5q217 0 385 144v336h-440v161h608v-567z" />
    <glyph glyph-name="gcircumflex" unicode="&#x11d;" horiz-adv-x="1251" 
d="M575 1460h107l289 -262v-12h-172l-172 153l-168 -153h-174v12zM1026 862v-2q66 -74 98.5 -149t32.5 -179q0 -91 -31 -171.5t-98 -145t-162 -94.5q142 -41 213.5 -128.5t71.5 -201.5q0 -95 -44.5 -171.5t-119.5 -124.5t-168.5 -73.5t-195.5 -25.5q-234 0 -378.5 116
t-140.5 316h166q-2 -85 49.5 -147.5t131 -92t174.5 -30.5q92 0 170 23t132 77.5t54 132.5q0 117 -102 180.5t-252 63.5q-241 0 -388 133.5t-147 366.5q0 97 30.5 180t83 141t121 99.5t145 61t155.5 19.5q74 0 153.5 -19.5t132.5 -55.5l109 131l119 -95zM989 535l4 -3
q0 111 -52.5 191.5t-134 118t-179.5 37.5q-70 0 -134 -21t-117.5 -62t-85.5 -108.5t-32 -152.5q0 -165 103.5 -256t263.5 -91q159 0 261.5 99.5t102.5 247.5z" />
    <glyph glyph-name="Gbreve" unicode="&#x11e;" horiz-adv-x="1525" 
d="M1128 1860l-6 4q6 -123 -75 -192.5t-209 -69.5q-129 0 -210 69t-75 191h139q0 -59 36.5 -99t111.5 -41q73 0 110 39.5t37 98.5h141zM1266 1135l8 -2q-83 80 -194.5 122.5t-223.5 42.5q-134 0 -244 -47.5t-180.5 -129t-108.5 -187.5t-38 -225q0 -112 35 -211t103 -178.5
t179 -126t252 -46.5q217 0 385 144v336h-440v161h608v-567q-227 -244 -555 -244q-149 0 -273 39t-211 107.5t-147 161.5t-88.5 200t-28.5 224q-1 215 87 385.5t259.5 271t399.5 100.5q145 0 282 -55t244 -160z" />
    <glyph glyph-name="gbreve" unicode="&#x11f;" horiz-adv-x="1251" 
d="M913 1454h-2q6 -127 -73.5 -199.5t-204.5 -72.5q-128 0 -207.5 72t-75.5 200h137q0 -62 36 -102.5t110 -40.5q72 0 107.5 40.5t35.5 102.5h137zM1026 862v-2q66 -74 98.5 -149t32.5 -179q0 -91 -31 -171.5t-98 -145t-162 -94.5q142 -41 213.5 -128.5t71.5 -201.5
q0 -95 -44.5 -171.5t-119.5 -124.5t-168.5 -73.5t-195.5 -25.5q-234 0 -378.5 116t-140.5 316h166q-2 -85 49.5 -147.5t131 -92t174.5 -30.5q92 0 170 23t132 77.5t54 132.5q0 117 -102 180.5t-252 63.5q-241 0 -388 133.5t-147 366.5q0 97 30.5 180t83 141t121 99.5t145 61
t155.5 19.5q74 0 153.5 -19.5t132.5 -55.5l109 131l119 -95zM258 535l4 -3q0 -165 103.5 -255.5t263.5 -90.5t262 99t102 247q0 111 -52.5 191.5t-134 118t-179.5 37.5q-70 0 -134 -21t-117.5 -62t-85.5 -108.5t-32 -152.5z" />
    <glyph glyph-name="Gdotaccent" unicode="&#x120;" horiz-adv-x="1523" 
d="M733 1706q0 40 23 67t55.5 33t65.5 0t56 -33t23 -67q0 -49 -35 -76.5t-76.5 -27.5t-76.5 27.5t-35 76.5zM1376 1245h-2q-107 105 -244 160t-282 55q-228 0 -399.5 -100.5t-260 -271.5t-88.5 -386q0 -117 28.5 -224t88.5 -200t147 -161t211 -107t273 -39q328 0 555 244
v567h-608v-161h440v-334q-168 -144 -385 -144q-141 0 -252 46.5t-179 126t-103 179.5t-35 212q-1 119 36.5 225t108 187.5t180.5 129t244 47.5q112 0 223.5 -43.5t192.5 -124.5z" />
    <glyph glyph-name="gdotaccent" unicode="&#x121;" horiz-adv-x="1253" 
d="M535 1348q0 40 23.5 67t57.5 33t67.5 0t57 -33t23.5 -67q0 -50 -36 -78.5t-78.5 -28.5t-78.5 28.5t-36 78.5zM920 963l-5 4q-53 36 -132.5 55.5t-153.5 19.5q-80 0 -156.5 -19.5t-145.5 -61t-121.5 -99.5t-83 -141t-30.5 -180q0 -233 147 -366.5t388 -133.5
q150 0 252 -63.5t102 -180.5q0 -78 -54 -134.5t-132.5 -81.5t-169.5 -25q-93 0 -174 31t-133 95t-50 148h-162q-3 -199 142.5 -314.5t380.5 -115.5q102 0 195.5 25.5t168.5 73.5t119.5 124.5t44.5 171.5q0 114 -71.5 201.5t-213.5 128.5q141 45 213 158.5t72 255.5
q0 105 -30.5 179t-94.5 146l115 133l-119 95zM627 887q151 0 257.5 -91t106.5 -255q0 -147 -102.5 -245.5t-261.5 -98.5q-161 0 -265 90t-104 254q0 86 32 154t85.5 109t117.5 62t134 21z" />
    <glyph glyph-name="Gcommaaccent" unicode="&#x122;" horiz-adv-x="1525" 
d="M1266 1130l8 -2q-83 80 -194.5 123t-223.5 43q-134 0 -244 -47.5t-180.5 -129t-108.5 -187.5t-38 -225q0 -112 35 -211t103 -178.5t179 -126t252 -46.5q217 0 385 144v336h-440v161h608v-567q-227 -244 -555 -244q-149 0 -273 39t-211 107.5t-147 161.5t-88.5 200
t-28.5 224q-1 215 87 385.5t259.5 271t399.5 100.5q145 0 282 -55t244 -160zM838 -356l2 2q-35 6 -56.5 30t-21.5 60q0 41 22.5 68.5t55 33.5t64.5 -1t54.5 -35t22.5 -68q0 -17 -33.5 -106.5t-56.5 -133.5h-113z" />
    <glyph glyph-name="gcommaaccent" unicode="&#x123;" horiz-adv-x="1251" 
d="M684 1380l-2 -2q35 -6 56.5 -30t21.5 -60q0 -41 -22.5 -68.5t-55 -33t-64.5 1.5t-54.5 35t-22.5 69q0 17 33.5 106.5t56.5 133.5h112zM1141 995v-2l-115 -135q66 -74 98.5 -149t32.5 -179q0 -91 -31 -171.5t-98 -145t-162 -94.5q142 -41 213.5 -128.5t71.5 -201.5
q0 -95 -44.5 -171.5t-119.5 -124.5t-168.5 -73.5t-195.5 -25.5q-234 0 -378.5 116t-140.5 316h166q-2 -85 49.5 -147.5t131 -92t174.5 -30.5q92 0 170 23t132 77.5t54 132.5q0 117 -102 180.5t-252 63.5q-242 0 -388.5 133t-146.5 366q0 97 30.5 180t83 141.5t121 100
t145 61t155.5 19.5q74 0 153.5 -20t132.5 -56l109 132zM258 532l4 -2q0 -165 103.5 -255.5t263.5 -90.5t262 99t102 247q0 111 -52.5 191.5t-134 118t-179.5 37.5q-69 0 -133.5 -21.5t-118 -62t-85.5 -108.5t-32 -153z" />
    <glyph glyph-name="Hcircumflex" unicode="&#x124;" horiz-adv-x="1564" 
d="M733 1866h107l290 -273v-14h-172l-172 160l-172 -160h-172v14zM190 1434h183v-648h819v648h182v-1434h-182v618h-819v-618h-183v1434z" />
    <glyph glyph-name="hcircumflex" unicode="&#x125;" horiz-adv-x="1220" 
d="M565 1847h103l286 -266v-12h-170l-170 155l-168 -155h-167v12zM154 1434v-2h165v-588q114 176 343 180q208 0 313.5 -125t105.5 -342v-559h-166v557q0 150 -72.5 230.5t-209.5 80.5q-136 0 -223.5 -94.5t-87.5 -234.5v-537h-168v1434z" />
    <glyph glyph-name="Hbar" unicode="&#x126;" horiz-adv-x="1589" 
d="M1204 0v618h-819v-618h-182v1077h-144v123h144v234h182v-234h819v234h182v-234h146v-123h-146v-1077h-182zM1204 786v291h-819v-291h819z" />
    <glyph glyph-name="hbar" unicode="&#x127;" horiz-adv-x="1220" 
d="M25 1286v-2h129v148h165v-148h244v-123h-244v-317q114 176 343 180q208 0 313.5 -125t105.5 -342v-559h-166v557q0 150 -72.5 230.5t-209.5 80.5q-136 0 -223.5 -94.5t-87.5 -234.5v-537h-168v1163h-129v123z" />
    <glyph glyph-name="Itilde" unicode="&#x128;" horiz-adv-x="561" 
d="M0 1647l-4 4q22 91 87.5 131t147.5 10q11 -3 56 -26t55 -25q30 -15 61.5 -2.5t45.5 55.5l106 -47q-22 -100 -88 -137t-141 -8q-13 3 -56.5 28t-50.5 27q-31 15 -65 0.5t-52 -60.5zM190 4v1434h181v-1434h-181z" />
    <glyph glyph-name="itilde" unicode="&#x129;" horiz-adv-x="481" 
d="M2 1313l2 -2q19 85 76 123t127 10q10 -3 49 -25t47 -24q27 -13 55 -0.5t39 53.5l92 -45q-21 -94 -79 -129t-123 -6q-11 3 -49 26.5t-45 26.5q-74 27 -101 -55zM156 995h174v-997h-174v997z" />
    <glyph glyph-name="Imacron" unicode="&#x12a;" horiz-adv-x="561" 
d="M12 1737h537v-142h-537v142zM190 0v1434h181v-1434h-181z" />
    <glyph glyph-name="imacron" unicode="&#x12b;" horiz-adv-x="481" 
d="M2 1425h477v-141h-477v141zM154 997h174v-997h-174v997z" />
    <glyph glyph-name="Ibreve" unicode="&#x12c;" horiz-adv-x="561" 
d="M553 1837h-2q7 -123 -67.5 -187.5t-198.5 -64.5q-125 0 -199.5 66.5t-67.5 187.5h134q0 -129 135 -129q70 0 102.5 34.5t32.5 92.5h131zM190 0v1434h181v-1434h-181z" />
    <glyph glyph-name="ibreve" unicode="&#x12d;" horiz-adv-x="481" 
d="M487 1434h2q4 -120 -66.5 -189t-182.5 -69q-113 0 -183.5 68.5t-66.5 189.5h121q0 -60 31.5 -99t97.5 -39q64 0 95.5 39t31.5 99h120zM154 997h174v-997h-174v997z" />
    <glyph glyph-name="Iogonek" unicode="&#x12e;" horiz-adv-x="565" 
d="M559 -203v2q-34 -63 -100 -98.5t-142 -38.5q-97 -3 -165.5 41.5t-83.5 118.5q-14 66 16.5 131.5t110.5 95.5v1385h180v-1434q-98 1 -146 -40t-30 -99q9 -31 40 -51t74 -19q96 0 152 72z" />
    <glyph glyph-name="iogonek" unicode="&#x12f;" horiz-adv-x="483" 
d="M137 1321q0 41 23 69.5t55.5 35t64.5 -0.5t55 -35.5t23 -70.5q0 -41 -23 -69.5t-55.5 -35t-64.5 0.5t-55 35.5t-23 70.5zM162 1016v4v-967q-69 -25 -102.5 -79t-28 -111t42.5 -99q36 -68 119.5 -92.5t170 5.5t128.5 104l-93 61q-51 -54 -117.5 -56.5t-101.5 40.5
q-22 28 -18.5 59t21.5 56.5t57.5 42.5t89.5 16v1016h-168z" />
    <glyph glyph-name="Idotaccent" unicode="&#x130;" horiz-adv-x="561" 
d="M172 1698q0 41 23 69.5t55 35t64.5 -0.5t55.5 -35.5t23 -70.5q0 -41 -23 -69.5t-55.5 -35t-64.5 0.5t-55 35.5t-23 70.5zM371 0v1434h-181v-1434h181z" />
    <glyph glyph-name="dotlessi" unicode="&#x131;" horiz-adv-x="481" 
d="M328 997v-997h-174v997h174z" />
    <glyph glyph-name="IJ" unicode="&#x132;" horiz-adv-x="1968" 
d="M190 0v1434h179v-1434h-179zM1794 573q4 -271 -159.5 -435.5t-432.5 -164.5q-262 0 -428 160.5t-166 431.5h176q0 -195 113.5 -309.5t304.5 -114.5t303.5 117.5t112.5 314.5v697h-502v164h678v-861z" />
    <glyph glyph-name="ij" unicode="&#x133;" horiz-adv-x="950" 
d="M129 1321q0 41 23 69.5t55.5 35t64.5 -0.5t55 -35.5t23 -70.5q0 -41 -23 -69.5t-55.5 -35t-64.5 0.5t-55 35.5t-23 70.5zM154 1016v-1016h168v1016h-168zM604 1327q0 41 23 69.5t55 35t64.5 -0.5t55.5 -35.5t23 -70.5q0 -41 -23 -69.5t-55.5 -35t-64.5 0.5t-55 35.5
t-23 70.5zM631 1014h-2v-1147q0 -52 -5 -86.5t-19 -65t-42.5 -45.5t-73.5 -16q-69 0 -137 35l-55 -135q98 -58 201 -58q162 0 231.5 95t67.5 276v1147h-166z" />
    <glyph glyph-name="Jcircumflex" unicode="&#x134;" horiz-adv-x="1411" 
d="M479 1599l291 273h107l290 -273v-12h-172l-172 158l-172 -158h-172v12zM1235 573l6 -2q0 -270 -164.5 -434t-433.5 -164q-262 0 -428 160.5t-166 431.5h176q0 -194 112.5 -307t303.5 -113q192 0 303 115.5t111 312.5v695h-498v166h678v-861z" />
    <glyph glyph-name="jcircumflex" unicode="&#x135;" horiz-adv-x="473" 
d="M-51 1174l246 274h90l245 -274v-13h-147l-143 158l-142 -158h-149v13zM319 -133l3 2q2 -183 -67.5 -278t-231.5 -95q-103 0 -201 58l55 135q68 -38 137 -35q45 1 73.5 16t42.5 45.5t19 65t5 86.5v1147h165v-1147z" />
    <glyph glyph-name="Kcommaaccent" unicode="&#x136;" horiz-adv-x="1282" 
d="M186 1434h183v-633l628 633h224v-11l-682 -680l743 -731v-12h-227l-686 674v-672h-183v1432zM657 -328l5 -2q-35 6 -56.5 30.5t-21.5 61.5q0 41 22.5 68.5t55 33.5t64.5 -1t54.5 -35t22.5 -68q0 -18 -34 -107t-58 -130h-113z" />
    <glyph glyph-name="kcommaaccent" unicode="&#x137;" horiz-adv-x="1015" 
d="M319 1434v-848l416 426h209v-11l-467 -466l524 -523v-12h-204l-478 477v-477h-165v1434h165zM520 -322h2q-33 6 -53 30t-20 59q0 38 21.5 64t52 31.5t61 -1t52 -33t21.5 -64.5q0 -18 -31.5 -102.5t-54.5 -126.5h-106z" />
    <glyph glyph-name="kgreenlandic" unicode="&#x138;" horiz-adv-x="1015" 
d="M319 1012v-426l416 426h209v-11l-467 -466l524 -523v-12h-204l-478 477v-477h-165v1012h165z" />
    <glyph glyph-name="Lacute" unicode="&#x139;" horiz-adv-x="1185" 
d="M229 1604l150 251h201v-6l-199 -256h-152v11zM190 1434v-1434h959v170h-776v1264h-183z" />
    <glyph glyph-name="lacute" unicode="&#x13a;" horiz-adv-x="499" 
d="M166 1587l141 240h193v-6l-189 -244h-145v10zM166 1434v-1434h168v1434h-168z" />
    <glyph glyph-name="Lcommaaccent" unicode="&#x13b;" horiz-adv-x="1185" 
d="M373 1434v-1264h776v-170h-959v1434h183zM662 -344l4 2q-35 6 -56.5 30t-21.5 60q0 41 22.5 68.5t55 33.5t64.5 -1t54.5 -35t22.5 -68q0 -18 -34 -107.5t-58 -132.5h-113z" />
    <glyph glyph-name="lcommaaccent" unicode="&#x13c;" horiz-adv-x="499" 
d="M334 1434v-1434h-168v1434h168zM217 -334v-2q-33 6 -53.5 30t-20.5 60q0 40 22 66.5t53.5 32t63.5 -1t54 -34t22 -67.5q0 -18 -33 -103t-57 -128h-108z" />
    <glyph glyph-name="Lcaron" unicode="&#x13d;" horiz-adv-x="1191" 
d="M373 1434v-1264h776v-170h-959v1434h183zM848 1425h174l-131 -362h-131z" />
    <glyph glyph-name="lcaron" unicode="&#x13e;" horiz-adv-x="487" 
d="M512 1436h166l-127 -363h-127zM334 1434v-1434h-168v1434h168z" />
    <glyph glyph-name="Ldot" unicode="&#x13f;" horiz-adv-x="1189" 
d="M373 1434v-1264h776v-170h-959v1434h183zM651 627q0 54 36 84.5t79 30.5t79 -30.5t36 -84.5t-36 -84.5t-79 -30.5t-79 30.5t-36 84.5z" />
    <glyph glyph-name="ldot" unicode="&#x140;" horiz-adv-x="712" 
d="M334 1434v-1434h-168v1434h168zM489 618q0 54 36 84.5t79 30.5t79 -30.5t36 -84.5t-36 -84.5t-79 -30.5t-79 30.5t-36 84.5z" />
    <glyph glyph-name="Lslash" unicode="&#x141;" horiz-adv-x="1204" 
d="M205 565l-152 -65v145l152 68v721h182v-637l229 104v-149l-229 -103v-479h776v-170h-958v565z" />
    <glyph glyph-name="lslash" unicode="&#x142;" horiz-adv-x="561" 
d="M360 1434v-646l156 70v-141l-156 -68v-649h-167v573l-140 -59v137l140 62v721h167z" />
    <glyph glyph-name="Nacute" unicode="&#x143;" horiz-adv-x="1560" 
d="M668 1593l149 256h205v-4l-203 -262h-151v10zM375 0v1079l872 -1079h123v1434h-180v-1086l-875 1086h-125v-1434h185z" />
    <glyph glyph-name="nacute" unicode="&#x144;" horiz-adv-x="1232" 
d="M516 1188l143 246h195v-7l-195 -247h-143v8zM319 0h-2v543q0 140 88 235t224 96q144 1 225.5 -83t81.5 -232v-557h168v559q0 218 -123.5 343.5t-318.5 125.5q-221 -3 -347 -180l-8 162h-153v-1012h165z" />
    <glyph glyph-name="Ncommaaccent" unicode="&#x145;" horiz-adv-x="1560" 
d="M190 1434h125l875 -1086v1086h180v-1434h-123l-872 1079v-1079h-185v1434zM772 -338l4 2q-35 6 -56.5 30t-21.5 60q0 41 22.5 68.5t55 33.5t65 -1t55 -35t22.5 -68q0 -18 -34.5 -107t-58.5 -132h-112z" />
    <glyph glyph-name="ncommaaccent" unicode="&#x146;" horiz-adv-x="1241" 
d="M934 0v2v557q0 147 -81.5 231t-225.5 84q-136 -1 -224 -96t-88 -233v-543h-165v1012h153l8 -162q128 176 346 176q197 0 321 -125.5t124 -343.5v-559h-168zM600 -317h2q-32 6 -52 28.5t-20 55.5q0 38 21.5 64t52 32t60.5 -0.5t51.5 -32.5t21.5 -63q0 -18 -31.5 -102
t-54.5 -124h-106z" />
    <glyph glyph-name="Ncaron" unicode="&#x147;" horiz-adv-x="1560" 
d="M444 1843v15h172l170 -158l177 158h165v-15l-290 -266h-105zM190 1434h125l875 -1086v1086h180v-1434h-123l-872 1079v-1079h-185v1434z" />
    <glyph glyph-name="ncaron" unicode="&#x148;" horiz-adv-x="1245" 
d="M295 1436v12h166l168 -156l172 156h166v-12l-287 -265h-105zM154 1012v2h153l8 -162q128 176 347 176q197 0 320.5 -125.5t123.5 -343.5v-559h-168v557q0 147 -81.5 231t-225.5 84q-136 -1 -224 -96t-88 -233v-543h-165v1012z" />
    <glyph glyph-name="napostrophe" unicode="&#x149;" horiz-adv-x="1245" 
d="M307 1012v2l8 -162q128 176 347 176q197 0 320.5 -125.5t123.5 -343.5v-559h-168v557q0 147 -81.5 231t-225.5 84q-136 -1 -224 -96t-88 -233v-543h-165v1012h153z" />
    <glyph glyph-name="Eng" unicode="&#x14a;" horiz-adv-x="1560" 
d="M1370 -51v2q2 -183 -67.5 -278t-231.5 -95q-98 0 -197 57l58 136q68 -38 133 -35q45 1 74 16t43 45.5t19 65t5 86.5v102l-831 1028v-1079h-185v1434h125l875 -1090v1090h180v-1485z" />
    <glyph glyph-name="eng" unicode="&#x14b;" horiz-adv-x="1241" 
d="M1102 -49l2 4q2 -183 -67.5 -278t-231.5 -95q-93 0 -191 58l56 135q68 -38 127 -35q36 1 61.5 11.5t40 27.5t22.5 46t10.5 57.5t2.5 70.5v606q0 147 -81.5 231t-225.5 84q-136 -1 -224 -96t-88 -233v-543h-165v1012h153l8 -162q128 176 346 176q197 0 321 -125.5
t124 -343.5v-608z" />
    <glyph glyph-name="Omacron" unicode="&#x14c;" horiz-adv-x="1656" 
d="M485 1776h684v-146h-684v146zM831 1458q141 -1 261 -42t204.5 -112t144 -165.5t88 -202.5t27.5 -223q-1 -114 -29 -221t-87 -202t-143 -166t-204.5 -112t-263.5 -41t-264 41t-205.5 111.5t-144 165.5t-87.5 202t-28 222q0 209 87 377t255 268t389 100zM1378 711l2 2
q1 112 -32.5 213.5t-98.5 184t-172 132.5t-243 51q-133 0 -240.5 -46.5t-175.5 -126.5t-103.5 -185t-33.5 -223q1 -87 22 -169t65 -155.5t107 -128.5t154.5 -87t201.5 -32t201.5 32t154.5 87t106.5 128.5t64 154.5t20.5 168z" />
    <glyph glyph-name="omacron" unicode="&#x14d;" horiz-adv-x="1218" 
d="M293 1411h629v-141h-629v141zM90 504q0 230 146 378t372 148t373 -148t147 -378t-145.5 -376t-374.5 -146q-228 0 -373 146t-145 376zM961 504h2q0 160 -100.5 266.5t-252.5 106.5q-154 0 -253 -106t-99 -267q0 -160 97.5 -262.5t252.5 -102.5q156 0 254.5 102.5
t98.5 262.5z" />
    <glyph glyph-name="Obreve" unicode="&#x14e;" horiz-adv-x="1656" 
d="M1110 1860v2q6 -123 -75.5 -193t-209.5 -70q-129 0 -209.5 69.5t-74.5 191.5h139q0 -59 36 -97.5t109 -38.5q72 0 109 39t37 97h139zM831 1460q141 -1 261 -42t204.5 -112t144 -165.5t88 -202.5t27.5 -223q-1 -114 -29 -221t-87 -202t-143 -166t-204.5 -112t-263.5 -41
t-264 41t-205.5 111.5t-144 165.5t-87.5 202t-28 222q0 209 87 377t255 268t389 100zM1378 713l2 2q1 112 -32.5 213.5t-98.5 184t-172 132.5t-243 51q-133 0 -240.5 -46.5t-175.5 -126.5t-103.5 -185t-33.5 -223q1 -87 22 -169t65 -155.5t107 -128.5t154.5 -87t201.5 -32
t201.5 32t154.5 87t106.5 128.5t64 154.5t20.5 168z" />
    <glyph glyph-name="obreve" unicode="&#x14f;" horiz-adv-x="1218" 
d="M889 1438v-2q6 -126 -74.5 -197.5t-206.5 -69.5q-127 0 -205.5 71t-72.5 198h135q0 -61 36 -101.5t109 -40.5q71 0 106.5 40t35.5 102h137zM90 502q0 230 146 378t372 148t373 -148t147 -378t-145.5 -376t-374.5 -146q-228 0 -373 146t-145 376zM961 502h2
q0 160 -100.5 266t-252.5 106q-154 0 -253 -105.5t-99 -266.5q0 -160 97.5 -262.5t252.5 -102.5q156 0 254.5 102.5t98.5 262.5z" />
    <glyph glyph-name="Ohungarumlaut" unicode="&#x150;" horiz-adv-x="1656" 
d="M571 1604l158 245h186l-198 -245h-146zM1034 1849h189l-203 -247h-143zM100 713q0 209 87 377t255 268t389 100q141 -1 261 -42t204.5 -112t144 -165.5t88 -202.5t27.5 -223q-1 -114 -29 -221t-87 -202t-143 -166t-204.5 -112t-263.5 -41t-264 41t-205.5 111.5
t-144 165.5t-87.5 202t-28 222zM1378 711l2 2q1 112 -32.5 213.5t-98.5 184t-172 132.5t-243 51q-133 0 -240.5 -46.5t-175.5 -126.5t-103.5 -185t-33.5 -223q1 -87 22 -169t65 -155.5t107 -128.5t154.5 -87t201.5 -32t201.5 32t154.5 87t106.5 128.5t64 154.5t20.5 168z
" />
    <glyph glyph-name="ohungarumlaut" unicode="&#x151;" horiz-adv-x="1216" 
d="M508 1423h180v-4l-192 -217h-142zM805 1421h180v-2l-197 -217h-137zM1126 504h2q0 230 -147 378t-373 148t-372 -148t-146 -378t145 -376t373 -146t373 146t145 376zM258 504h2q0 161 99 267t253 106q151 0 251 -106.5t100 -266.5t-98.5 -262.5t-254.5 -102.5t-254 102.5
t-98 262.5z" />
    <glyph glyph-name="OE" unicode="&#x152;" horiz-adv-x="2021" 
d="M1014 0v-2q-100 -21 -185 -21q-177 0 -318 59.5t-229 162.5t-134 235.5t-46 284.5q0 122 28.5 231t88 201t144.5 159t204.5 104.5t261.5 37.5q75 0 187 -18h878v-174h-716v-455h680v-170h-680v-459h733v-176h-897zM1014 1274v2q-82 27 -185 27q-134 0 -239.5 -47
t-171.5 -128.5t-100.5 -186t-34.5 -224.5q1 -113 36.5 -216t101.5 -186t173 -132.5t240 -49.5q97 0 180 25v1116z" />
    <glyph glyph-name="oe" unicode="&#x153;" horiz-adv-x="2039" 
d="M1901 162h-3q-74 -88 -190.5 -134t-241.5 -46q-149 0 -263.5 68.5t-170.5 189.5q-62 -124 -170.5 -190t-253.5 -66q-228 0 -373 146t-145 376t146 379t372 149q145 0 258 -68.5t170 -191.5q52 117 165.5 188.5t256.5 71.5q118 0 214.5 -36.5t166 -107.5t101.5 -186
t18 -262q-678 0 -844 -2q13 -139 111 -221t245 -82q90 0 179.5 34t138.5 93zM1800 582v-2q-6 146 -96 224.5t-242 78.5q-136 0 -232.5 -79.5t-117.5 -221.5h688zM258 502h2q0 -160 97.5 -262.5t252.5 -102.5q156 0 253.5 102t97.5 263q0 160 -99.5 266t-251.5 106
q-154 0 -253 -105.5t-99 -266.5z" />
    <glyph glyph-name="Racute" unicode="&#x154;" horiz-adv-x="1462" 
d="M590 1608l149 254h203v-7l-201 -258h-151v11zM918 530l2 2q107 9 189.5 49t131 102t73 136t23.5 158q-1 89 -33 170t-91.5 145.5t-154.5 103t-212 38.5h-656v-1434h183v514h340l458 -514h220zM375 1266h2h473q75 0 134.5 -25t95 -67t54 -93t17.5 -106q-2 -129 -79.5 -210
t-231.5 -81h-465v582z" />
    <glyph glyph-name="racute" unicode="&#x155;" horiz-adv-x="874" 
d="M399 1196l140 238h190v-7l-188 -239h-142v8zM154 1012v2v-1012h168v563q0 134 85.5 216.5t210.5 82.5q98 0 177 -55l75 143q-103 79 -237 76q-221 0 -311 -168l-13 152h-155z" />
    <glyph glyph-name="Rcommaaccent" unicode="&#x156;" horiz-adv-x="1460" 
d="M190 1434l-2 -2h656q117 0 212.5 -38.5t155 -103t91.5 -145.5t32 -170q1 -84 -23.5 -158t-73 -136t-131 -102t-189.5 -49l473 -530h-220l-458 514h-340v-514h-183v1434zM836 680q154 0 231.5 81t77.5 210q1 55 -17.5 106t-54 93t-95 67t-134.5 25h-473v-582h465z
M729 -340l4 2q-35 6 -56.5 30t-21.5 60q0 41 22.5 68.5t55 33.5t64.5 -1t54.5 -35t22.5 -68q0 -18 -34 -107t-58 -132h-112z" />
    <glyph glyph-name="rcommaaccent" unicode="&#x157;" horiz-adv-x="876" 
d="M309 1012l2 2l13 -152q90 168 311 168q132 3 235 -76l-75 -143q-79 55 -177 55q-125 -2 -210.5 -84.5t-85.5 -218.5v-563h-168v1012h155zM211 -326q-32 6 -52 29t-20 57q0 38 21.5 64t51.5 32t60.5 -0.5t52 -33t21.5 -64.5q0 -18 -31.5 -101.5t-54.5 -123.5h-104z" />
    <glyph glyph-name="Rcaron" unicode="&#x158;" horiz-adv-x="1460" 
d="M350 1847v13h174l172 -158l176 158h168v-13l-292 -266h-107zM190 1434l-2 -2h656q117 0 212.5 -38.5t155 -103t91.5 -145.5t32 -170q1 -84 -23.5 -158t-73 -136t-131 -102t-189.5 -49l473 -530h-220l-458 514h-340v-514h-183v1434zM836 680q154 0 231.5 81t77.5 210
q1 55 -17.5 106t-54 93t-95 67t-134.5 25h-473v-582h465z" />
    <glyph glyph-name="rcaron" unicode="&#x159;" horiz-adv-x="876" 
d="M557 1165h-100l-271 260v13h162l160 -154l166 154h157v-13zM154 1012l2 2h155l13 -152q90 168 311 168q132 3 235 -76l-75 -143q-79 55 -177 55q-125 -2 -210.5 -84.5t-85.5 -218.5v-563h-168v1012z" />
    <glyph glyph-name="Sacute" unicode="&#x15a;" horiz-adv-x="1361" 
d="M588 1612l151 260h207v-6l-205 -264h-153v10zM1227 1204l-6 4q-46 78 -107 131.5t-133.5 81t-144 38.5t-158.5 11q-78 0 -153 -13t-148 -44t-128 -76t-88 -115.5t-32 -156.5q0 -61 16.5 -111.5t42.5 -87t69.5 -66.5t85.5 -49.5t103 -36.5t110 -27t118 -21q73 -12 126 -24
t110 -33t92 -48t58 -67.5t23 -92.5q0 -74 -36.5 -128t-98.5 -82t-126.5 -40t-135.5 -12q-91 0 -178 25.5t-162.5 83t-112.5 137.5l-155 -80q78 -169 239 -249.5t367 -80.5q87 0 167 13t157.5 44.5t134 79t91 122t34.5 167.5q0 68 -17.5 123.5t-44.5 95.5t-73 72.5
t-89.5 52.5t-108 37.5t-114.5 27.5t-123 21q-62 10 -103 18.5t-90 22t-79.5 29.5t-58.5 38.5t-41 53t-13 68.5q0 83 56.5 140.5t138.5 81.5t178 24q129 -2 232.5 -45.5t160.5 -135.5z" />
    <glyph glyph-name="sacute" unicode="&#x15b;" horiz-adv-x="1021" 
d="M412 1196l139 240h190v-4l-188 -244h-141v8zM901 899l-2 -4q-150 135 -385 135q-76 1 -147 -16t-131.5 -51t-96.5 -93.5t-35 -136.5q0 -52 16.5 -94t47 -71.5t66.5 -51t85.5 -36t92.5 -23t98 -15.5q134 -16 203.5 -50t68.5 -111q-1 -43 -25.5 -75t-63 -48.5t-80.5 -24
t-87 -6.5q-102 0 -199 39t-161 119l-96 -117q155 -193 452 -193q116 0 210 33.5t153 104t61 168.5q1 52 -13 94.5t-35.5 72t-59 53t-70 37t-82.5 25t-82.5 16.5t-83.5 11q-54 7 -94 16t-78 25.5t-58.5 43.5t-21.5 64q-1 72 70 111t180 37q86 0 155 -21.5t132 -77.5z" />
    <glyph glyph-name="Scircumflex" unicode="&#x15c;" horiz-adv-x="1359" 
d="M354 1616l297 276h107l297 -276v-12h-174l-176 161l-177 -161h-174v12zM1077 1126l2 -4q-57 92 -160.5 135.5t-232.5 45.5q-96 0 -178 -24t-138.5 -81.5t-56.5 -140.5q0 -38 13 -68.5t41 -53t58.5 -38.5t79.5 -29.5t90 -22t103 -18.5q73 -11 123 -21t114.5 -27.5
t108 -37.5t89.5 -52.5t73 -72.5t44.5 -95.5t17.5 -123.5q-1 -93 -35.5 -167.5t-91.5 -122t-134 -79t-157 -44.5t-166 -13q-133 0 -246 32t-210 108t-150 192l155 80q37 -80 112.5 -136.5t162.5 -82t178 -25.5q72 0 137 12t126.5 40t98.5 82.5t37 129.5q1 52 -21.5 92.5
t-58 67.5t-92 47.5t-109.5 32.5t-126 23q-68 11 -117.5 20.5t-110.5 26t-103.5 36t-85.5 49.5t-69 66.5t-42.5 87t-16.5 111.5q-1 86 32 156.5t88 115.5t128 76t148 44t153 13q87 0 158.5 -11t144 -39t133.5 -81.5t107 -132.5z" />
    <glyph glyph-name="scircumflex" unicode="&#x15d;" horiz-adv-x="1021" 
d="M473 1440h102l281 -262v-13h-166l-166 152l-164 -152h-170v13zM805 788l-2 -2q-62 56 -130.5 77.5t-154.5 21.5q-109 2 -180 -37t-70 -111q1 -37 21.5 -64.5t58.5 -44t78.5 -25.5t93.5 -15q39 -5 64 -8.5t64 -11t65.5 -15.5t60.5 -21t57 -28.5t47 -38t37.5 -49
t22.5 -61.5t8 -76q-2 -98 -61 -168.5t-153 -104t-210 -33.5q-297 0 -452 193l96 117q64 -79 161 -117.5t199 -38.5q45 0 87 8t80.5 24.5t63 49t25.5 76.5q1 77 -68.5 111t-203.5 50q-67 9 -118 19.5t-107.5 32t-93 51t-61 78t-24.5 110.5q-1 77 35 136.5t96.5 93.5t131.5 51
t147 16q235 0 385 -135z" />
    <glyph glyph-name="Scedilla" unicode="&#x15e;" horiz-adv-x="1357" 
d="M733 -119l2 -2q123 1 173 -65.5t30 -151.5q-21 -80 -90.5 -122t-157.5 -40q-72 2 -135.5 32.5t-97.5 86.5l82 72q52 -72 153 -72q42 0 74 17t41 49q18 59 -40.5 92.5t-145.5 3.5l-35 26l47 164q-187 8 -334.5 88.5t-220.5 239.5l155 80q37 -80 112.5 -136.5t162.5 -82
t178 -25.5q72 0 137 12t126.5 40t98.5 82.5t37 129.5q1 52 -21.5 92.5t-58 67.5t-92 47.5t-109.5 32.5t-126 23q-68 11 -117.5 20.5t-110.5 26t-103.5 36t-85.5 49.5t-69 66.5t-42.5 87t-16.5 111.5q-1 86 32 156.5t88 115.5t128 76t148 44t153 13q87 0 158.5 -11t144 -39
t133.5 -81.5t107 -132.5l-148 -78q-57 92 -160.5 135.5t-232.5 45.5q-96 0 -178 -24t-138.5 -81.5t-56.5 -140.5q0 -38 13 -68.5t41 -53t58.5 -38.5t79.5 -29.5t90 -22t103 -18.5q73 -11 123 -21t114.5 -27.5t108 -37.5t89.5 -52.5t73 -72.5t44.5 -95.5t17.5 -123.5
q-1 -85 -30 -154.5t-77 -116.5t-114.5 -80t-137 -50t-149.5 -23z" />
    <glyph glyph-name="scedilla" unicode="&#x15f;" horiz-adv-x="1024" 
d="M563 -104l2 -2q52 2 91.5 -9t61.5 -31t35.5 -45.5t13 -53t-4.5 -54.5q-19 -73 -85.5 -111t-148.5 -36q-70 2 -130.5 29t-92.5 79l78 64q50 -67 143 -64q40 0 70 15t39 44q18 53 -37 81.5t-137 0.5l-33 25l47 147q-266 14 -405 193l96 117q65 -81 160.5 -119.5
t199.5 -38.5q45 0 87 8t80.5 24.5t63 49t25.5 76.5q1 77 -68.5 111t-203.5 50q-67 9 -118 19.5t-107.5 32t-93 51t-61 78t-24.5 110.5q-1 77 35 136.5t96.5 93.5t131.5 51t147 16q235 0 385 -135l-96 -111q-62 56 -130.5 77.5t-154.5 21.5q-109 2 -180 -37t-70 -111
q1 -37 21.5 -64.5t58.5 -44t78.5 -25.5t93.5 -15q39 -5 64 -8.5t64 -11t65.5 -15.5t60.5 -21t57 -28.5t47 -38t37.5 -49t22.5 -61.5t8 -76q-3 -133 -103.5 -211.5t-258.5 -92.5z" />
    <glyph glyph-name="Scaron" unicode="&#x160;" horiz-adv-x="1359" 
d="M352 1874v12h174l176 -164l183 164h170v-12l-299 -277h-109zM1077 1126l2 -4q-57 92 -160.5 135.5t-232.5 45.5q-96 0 -178 -24t-138.5 -81.5t-56.5 -140.5q0 -38 13 -68.5t41 -53t58.5 -38.5t79.5 -29.5t90 -22t103 -18.5q73 -11 123 -21t114.5 -27.5t108 -37.5
t89.5 -52.5t73 -72.5t44.5 -95.5t17.5 -123.5q-1 -93 -35.5 -167.5t-91.5 -122t-134 -79t-157 -44.5t-166 -13q-133 0 -246 32t-210 108t-150 192l155 80q37 -80 112.5 -136.5t162.5 -82t178 -25.5q72 0 137 12t126.5 40t98.5 82.5t37 129.5q1 52 -21.5 92.5t-58 67.5
t-92 47.5t-109.5 32.5t-126 23q-68 11 -117.5 20.5t-110.5 26t-103.5 36t-85.5 49.5t-69 66.5t-42.5 87t-16.5 111.5q-1 86 32 156.5t88 115.5t128 76t148 44t153 13q87 0 158.5 -11t144 -39t133.5 -81.5t107 -132.5z" />
    <glyph glyph-name="scaron" unicode="&#x161;" horiz-adv-x="1021" 
d="M571 1167h-100l-274 258v13h163l164 -154l166 154h162v-13zM72 168l-2 -4q155 -193 452 -193q116 0 209.5 33t153 103.5t61.5 168.5q1 52 -13 94.5t-35.5 72t-59 53t-70 37.5t-82.5 25.5t-83 16.5t-83 11q-54 7 -94 16t-78 25.5t-58.5 43.5t-21.5 64q-1 72 70 111t180 37
q86 0 155 -21.5t132 -77.5l96 111q-150 135 -385 135q-76 1 -147 -16t-131.5 -51t-96.5 -93.5t-35 -136.5q0 -52 16.5 -94t47 -71.5t66.5 -51t85.5 -36t92.5 -23t98 -15.5q134 -16 203.5 -50t68.5 -111q-1 -43 -25.5 -75t-63 -48.5t-80.5 -24t-87 -6.5q-102 0 -199 39
t-161 119z" />
    <glyph glyph-name="Tcommaaccent" unicode="&#x162;" horiz-adv-x="1234" 
d="M528 2v1268h-491v162h1161v-162h-491v-1270h-56l-22 -88q125 1 173 -63.5t27 -151.5q-16 -68 -70 -109t-124 -51q-82 -13 -161 17.5t-120 99.5l80 72q23 -34 61.5 -51.5t75 -16t58.5 19.5q60 0 71 43q18 59 -40.5 93.5t-143.5 3.5l-35 26z" />
    <glyph glyph-name="tcommaaccent" unicode="&#x163;" horiz-adv-x="815" 
d="M270 1288l168 19v-297h314v-144h-316v-485q0 -47 3 -80.5t13 -66t27.5 -52t47.5 -31.5t71 -12q62 0 141 35l49 -139q-101 -46 -196 -49q-23 0 -33 2l-24 -90q122 4 173.5 -56t30.5 -143q-19 -72 -82.5 -111t-144.5 -41q-76 -3 -145.5 26t-104.5 85l80 68q51 -65 145 -68
q45 0 79 15.5t42 47.5q18 54 -40 82t-146 0l-29 27l51 180q-97 35 -135.5 126t-38.5 245v485h-202v144h202v278z" />
    <glyph glyph-name="Tcaron" unicode="&#x164;" horiz-adv-x="1234" 
d="M272 1843v15h174l177 -164l182 164h170v-15l-299 -274h-109zM526 1268h-489v164h1161v-164h-489v-1268h-183v1268z" />
    <glyph glyph-name="tcaron" unicode="&#x165;" horiz-adv-x="888" 
d="M414 1307h-2v-297h225v-144h-225v-534q0 -95 36.5 -144t124.5 -49q70 0 142 37l51 -141q-101 -46 -199 -49q-160 -3 -239.5 86.5t-79.5 259.5v534h-180v144h180v278zM813 1303h160l-121 -340h-125z" />
    <glyph glyph-name="Tbar" unicode="&#x166;" horiz-adv-x="1251" 
d="M291 754h244v514h-490v164h1161v-164h-489v-514h250v-138h-250v-616h-182v616h-244v138z" />
    <glyph glyph-name="tbar" unicode="&#x167;" horiz-adv-x="813" 
d="M115 627h155v239h-202v144h202v278l168 19v-297h314v-144h-316v-239h236v-123h-236v-172q0 -95 36.5 -144t123.5 -49q69 0 141 37l49 -141q-101 -46 -196 -49q-160 -3 -240 86.5t-80 259.5v172h-155v123z" />
    <glyph glyph-name="Utilde" unicode="&#x168;" horiz-adv-x="1517" 
d="M487 1649l-4 4q23 90 92 130t156 11q13 -3 59 -26t56 -25q31 -15 63.5 -2.5t46.5 55.5l113 -45q-24 -100 -94 -137t-146 -8q-13 3 -58.5 27t-55.5 26q-86 30 -119 -60zM1341 1438l2 -2v-861q0 -145 -46.5 -260.5t-127 -188t-184.5 -111t-223 -38.5q-117 0 -221 38
t-187 110t-131.5 188.5t-48.5 261.5v861h180v-861q0 -138 56.5 -237t147.5 -146t204 -47q83 0 155.5 28.5t127 82t85.5 136.5t31 186v860h180z" />
    <glyph glyph-name="utilde" unicode="&#x169;" horiz-adv-x="1245" 
d="M342 1303l-2 2q24 89 92.5 128t153.5 9q13 -3 58.5 -26t55.5 -25q31 -13 64 -0.5t47 53.5l113 -47q-24 -97 -94 -133t-146 -7q-12 4 -58.5 29t-56.5 27q-84 26 -118 -60zM938 2h2l-8 162q-128 -175 -352 -178q-197 0 -319 125.5t-122 343.5v559h168v-557
q0 -147 81.5 -231.5t225.5 -84.5q136 1 224 96.5t88 233.5v543h168v-1012h-156z" />
    <glyph glyph-name="Umacron" unicode="&#x16a;" horiz-adv-x="1517" 
d="M434 1743h664v-144h-664v144zM1341 1434l2 -2v-861q0 -145 -46.5 -260.5t-127 -188t-184.5 -111t-223 -38.5q-117 0 -221 38t-187 110t-131.5 188.5t-48.5 261.5v861h180v-861q0 -138 56.5 -237t147.5 -146t204 -47q84 0 156 28.5t126.5 82t85.5 136t31 185.5v861h180z
" />
    <glyph glyph-name="umacron" unicode="&#x16b;" horiz-adv-x="1247" 
d="M309 1434h625v-136h-625v136zM938 0h2l-8 162q-128 -175 -352 -178q-197 0 -319 125.5t-122 343.5v559h168v-557q0 -147 81.5 -231.5t225.5 -84.5q136 1 224 96.5t88 233.5v543h168v-1012h-156z" />
    <glyph glyph-name="Ubreve" unicode="&#x16c;" horiz-adv-x="1517" 
d="M1053 1847h-2q6 -129 -74 -201.5t-207 -72.5t-207 73t-76 201h138q0 -62 36 -103.5t109 -41.5q72 0 107.5 41.5t35.5 103.5h140zM1341 1434l2 -2v-861q0 -145 -46.5 -260.5t-127 -188t-184.5 -111t-223 -38.5q-117 0 -221 38t-187 110t-131.5 188.5t-48.5 261.5v861h180
v-861q0 -138 56.5 -237t147.5 -146t204 -47q84 0 156 28.5t126.5 82t85.5 136t31 185.5v861h180z" />
    <glyph glyph-name="ubreve" unicode="&#x16d;" horiz-adv-x="1247" 
d="M909 1427l-2 -2q6 -123 -73 -192.5t-203 -69.5q-126 0 -204.5 70t-72.5 194h135q0 -60 36 -99.5t108 -39.5q71 0 106 39.5t35 99.5h135zM938 -2h2l-8 162q-128 -175 -352 -178q-197 0 -319 125.5t-122 343.5v559h168v-557q0 -147 81.5 -231.5t225.5 -84.5q136 1 224 96.5
t88 233.5v543h168v-1012h-156z" />
    <glyph glyph-name="Uring" unicode="&#x16e;" horiz-adv-x="1517" 
d="M518 1702v-2q0 93 70 145.5t166 52.5q95 0 165 -52t70 -146q0 -93 -68.5 -146t-166.5 -53q-101 0 -168.5 54t-67.5 147zM752 1802h2q-44 0 -74.5 -21t-38 -50.5t-0.5 -59.5t37 -51t74 -21q39 0 67 15t40.5 37.5t12 49t-13 49t-40.5 37.5t-66 15zM1341 1432l2 -2v-861
q0 -145 -46.5 -260.5t-127 -188t-184.5 -111t-223 -38.5q-117 0 -221 38t-187 110t-131.5 188.5t-48.5 261.5v861h180v-861q0 -138 56.5 -237t147.5 -146t204 -47q84 0 156 28.5t126.5 82t85.5 136t31 185.5v861h180z" />
    <glyph glyph-name="uring" unicode="&#x16f;" horiz-adv-x="1247" 
d="M397 1311h-2q0 93 67.5 145.5t160.5 52.5q92 0 160.5 -52.5t68.5 -145.5t-66.5 -145t-162.5 -52t-161 52.5t-65 144.5zM618 1413h3q-43 0 -72 -20.5t-36 -49.5t0 -58.5t36 -50t72 -20.5q44 0 74 20.5t36.5 50t-1 58.5t-38 49.5t-74.5 20.5zM938 0h2l-8 162
q-128 -175 -352 -178q-197 0 -319 125.5t-122 343.5v559h168v-557q0 -147 81.5 -231.5t225.5 -84.5q136 1 224 96.5t88 233.5v543h168v-1012h-156z" />
    <glyph glyph-name="Uhungarumlaut" unicode="&#x170;" horiz-adv-x="1519" 
d="M666 1831h182l-199 -248h-141zM967 1829h184l-201 -246h-139zM1165 1434l-4 -2v-861q0 -202 -113 -316t-286 -114q-175 0 -291.5 113t-116.5 319v861h-180v-861q0 -145 48.5 -261.5t131.5 -188.5t188 -110t222 -38q119 0 223 38.5t185 111t127.5 188t46.5 260.5v861h-181
z" />
    <glyph glyph-name="uhungarumlaut" unicode="&#x171;" horiz-adv-x="1245" 
d="M512 1436h176v-4l-188 -230h-135zM801 1436h176v-4l-191 -232h-135zM1092 1012l2 4h-168v-543q0 -140 -88 -235.5t-224 -96.5q-144 -1 -225.5 83t-81.5 231v557h-168v-559q0 -217 121.5 -343t317.5 -126q225 3 350 178l8 -162h156v1012z" />
    <glyph glyph-name="Uogonek" unicode="&#x172;" horiz-adv-x="1519" 
d="M1341 1434h2v-861q0 -215 -97 -358t-259 -203q-55 -23 -76.5 -72.5t2.5 -91.5q14 -27 45.5 -42.5t73.5 -14.5q42 2 87.5 24.5t76.5 61.5l100 -70q-35 -66 -106 -104t-152 -43q-78 -4 -140 21t-95 73q-36 53 -41 110.5t24 110.5q-123 -4 -232.5 32t-194.5 108.5t-135 190
t-50 265.5v861h180v-861q0 -138 56.5 -237t147.5 -146t204 -47q84 0 156 28.5t126.5 82t85.5 136t31 185.5v861h180z" />
    <glyph glyph-name="uogonek" unicode="&#x173;" horiz-adv-x="1247" 
d="M1094 -100l2 -2q-106 9 -171.5 -34t-43.5 -106q9 -29 41.5 -47.5t78.5 -17.5q91 4 150 80l92 -66q-34 -62 -98.5 -97t-138.5 -38q-93 -3 -161.5 37t-90.5 108q-7 27 -8 57.5t12.5 63t35 59.5t60 48.5t88.5 29.5l-8 187q-128 -175 -354 -178q-197 0 -319 125.5t-122 343.5
v559h168v-557q0 -147 81.5 -231.5t225.5 -84.5q136 1 224 96.5t88 233.5v543h168v-1112z" />
    <glyph glyph-name="Wcircumflex" unicode="&#x174;" horiz-adv-x="2211" 
d="M748 1608l305 272h110l305 -272v-15h-182l-180 160l-176 -160h-182v15zM55 1434h201l395 -1186l398 1186h114l402 -1186l391 1186h203l-510 -1436h-170l-205 571l-168 516l-166 -516l-205 -571h-168z" />
    <glyph glyph-name="wcircumflex" unicode="&#x175;" horiz-adv-x="1718" 
d="M514 1186l293 262h106l291 -262v-12h-172l-172 155l-172 -155h-174v12zM63 1012h187l272 -834l269 834h137l268 -834l272 834h185l-355 -1014h-192l-137 377l-109 368l-110 -368l-138 -377h-190z" />
    <glyph glyph-name="Ycircumflex" unicode="&#x176;" horiz-adv-x="1392" 
d="M346 1606l295 264h107l294 -264v-13h-176l-172 156l-172 -156h-176v13zM602 582l-555 845v7h217l430 -680l441 680h217v-7l-566 -845v-582h-184v582z" />
    <glyph glyph-name="ycircumflex" unicode="&#x177;" horiz-adv-x="1128" 
d="M223 1184l289 264h104l289 -264v-13h-174l-168 154l-168 -154h-172v13zM467 14l-406 998h191l199 -527l108 -288l111 286l223 529h184l-639 -1489h-182z" />
    <glyph glyph-name="Ydieresis" unicode="&#x178;" horiz-adv-x="1392" 
d="M580 1686q0 -48 -32.5 -75t-71 -27t-71 27t-32.5 75q0 49 32.5 76.5t71 27.5t71 -27.5t32.5 -76.5zM1026 1686q0 -48 -32.5 -75t-71 -27t-71 27t-32.5 75q0 49 32.5 76.5t71 27.5t71 -27.5t32.5 -76.5zM786 582l566 845v7h-217l-441 -680l-430 680h-217v-7l555 -845v-582
h184v582z" />
    <glyph glyph-name="Zacute" unicode="&#x179;" horiz-adv-x="1243" 
d="M510 1606l152 260h206v-6l-204 -265h-154v11zM104 1266h785l-828 -1170v-96h1102v176h-841l841 1180v78h-1059v-168z" />
    <glyph glyph-name="zacute" unicode="&#x17a;" horiz-adv-x="964" 
d="M381 1186v10l145 238h199v-7l-197 -241h-147zM98 858h539l-574 -792v-66h820v162h-561l561 774v76h-785v-154z" />
    <glyph glyph-name="Zdotaccent" unicode="&#x17b;" horiz-adv-x="1243" 
d="M530 1710q0 51 34.5 80.5t76.5 29.5t76.5 -29.5t34.5 -80.5t-34.5 -80.5t-76.5 -29.5t-76.5 29.5t-34.5 80.5zM104 1266h785l-828 -1170v-96h1102v176h-841l841 1180v78h-1059v-168z" />
    <glyph glyph-name="zdotaccent" unicode="&#x17c;" horiz-adv-x="964" 
d="M618 1325q0 -51 -34.5 -80.5t-76 -29.5t-76 29.5t-34.5 80.5t34.5 80.5t76 29.5t76 -29.5t34.5 -80.5zM883 1012v-76l-561 -774h561v-162h-820v66l574 792h-539v154h785z" />
    <glyph glyph-name="Zcaron" unicode="&#x17d;" horiz-adv-x="1243" 
d="M283 1862v14h178l178 -164l184 164h172v-14l-303 -275h-108zM104 1434h1059v-78l-850 -1184h850v-172h-1102v96l834 1172h-791v166z" />
    <glyph glyph-name="zcaron" unicode="&#x17e;" horiz-adv-x="964" 
d="M561 1157h-102l-281 262v13h168l164 -154l172 154h164v-13zM98 1012h785v-76l-570 -774h570v-162h-820v66l574 792h-539v154z" />
    <glyph glyph-name="longs" unicode="&#x17f;" horiz-adv-x="626" 
d="M264 0l2 -2v854h-198v147h198v80q0 173 90 270t250 97q120 0 230 -74l-70 -125q-85 51 -156 51q-85 0 -131.5 -54t-46.5 -165v-1079h-168z" />
    <glyph glyph-name="florin" unicode="&#x192;" horiz-adv-x="917" 
d="M311 854l2 -2h-198v147h198v80q0 173 90 270t250 97q120 0 230 -74l-70 -125q-85 51 -156 51q-85 0 -131.5 -54t-46.5 -165v-80h318v-147h-318v-856q0 -176 -82.5 -272.5t-240.5 -96.5q-104 0 -211 72l67 123q38 -29 65.5 -39t69.5 -10q164 0 164 225v856z" />
    <glyph glyph-name="Aringacute" unicode="&#x1fa;" horiz-adv-x="1556" 
d="M682 1759l160 174h219v-6l-217 -176h-162v8zM899 1384l-2 -4q45 21 71.5 59.5t26.5 90.5q0 83 -65.5 130.5t-155.5 47.5q-89 0 -154 -47t-65 -129q0 -106 100 -150l-620 -1382h198l140 315h809l141 -315h199zM772 1610q52 0 82.5 -27t31 -59t-29.5 -59t-84 -27
q-51 0 -80.5 27t-29.5 59t29.5 59t80.5 27zM776 1235l330 -754h-662z" />
    <glyph glyph-name="aringacute" unicode="&#x1fb;" horiz-adv-x="1302" 
d="M569 1509l148 191h198v-4l-196 -193h-150v6zM432 1272v-2q0 -85 60 -132.5t153 -47.5q90 0 151.5 48.5t61.5 133.5q0 84 -63.5 132t-149.5 48q-88 0 -150.5 -47.5t-62.5 -132.5zM643 1360h-2q41 0 69 -18.5t35 -45.5t1 -54t-34 -45.5t-69 -18.5q-50 0 -78.5 28.5
t-28.5 62.5t28.5 62.5t78.5 28.5zM1149 -2v4v1012h-164l-2 -185q-53 96 -154 148.5t-219 52.5q-145 0 -262.5 -61.5t-187.5 -182t-70 -280.5q0 -161 69 -283t186 -184.5t263 -61.5q112 0 215 52.5t160 152.5l4 -184h162zM621 877l-3 2q100 0 179 -41t119.5 -106.5t60 -144.5
t0.5 -158t-59.5 -144.5t-118.5 -106.5t-178 -41q-154 0 -258.5 103t-104.5 268t104.5 267t258.5 102z" />
    <glyph glyph-name="AEacute" unicode="&#x1fc;" horiz-adv-x="1886" 
d="M948 1606l154 262h205v-6l-205 -267h-154v11zM174 0l248 410h485v-410h869v174h-699v461h647v168h-647v461h680v170h-903l-889 -1434h209zM909 1237l-2 -143v-523h-385z" />
    <glyph glyph-name="aeacute" unicode="&#x1fd;" horiz-adv-x="2076" 
d="M954 1198l142 244h194v-4l-192 -250h-144v10zM989 827l-2 4q-52 95 -155.5 148t-221.5 53q-145 0 -262.5 -61.5t-187.5 -182t-70 -280.5q0 -161 69 -282.5t186 -184t263 -61.5q113 0 216.5 52.5t160.5 151.5v-184h131l4 172q57 -91 154.5 -140.5t224.5 -49.5
q125 0 243.5 46.5t190.5 133.5l-110 102q-49 -59 -140 -93t-182 -34q-148 0 -249.5 83t-114.5 222h858q21 140 -12.5 254.5t-105 186.5t-167.5 111t-203 40q-121 0 -220.5 -49.5t-164.5 -146.5v174h-131zM1137 586v2q21 142 120 221.5t236 79.5q152 0 244 -79t98 -224h-698z
M621 881v2q90 0 162.5 -32t117 -84t68.5 -118.5t24 -136.5t-24 -136.5t-68.5 -118.5t-117 -84t-162.5 -32q-154 0 -258.5 103t-104.5 268t104.5 267t258.5 102z" />
    <glyph glyph-name="Oslashacute" unicode="&#x1fe;" horiz-adv-x="1658" 
d="M750 1616l153 262h205v-6l-205 -264h-153v8zM395 100v2q-144 100 -218.5 262.5t-74.5 350.5q0 146 46 277.5t134 237t230 168t319 62.5q175 0 318 -65l96 168h180l-145 -244q136 -103 207.5 -263.5t71.5 -342.5q-1 -114 -29 -221t-87 -202t-143 -166t-205 -112t-264 -41
q-165 0 -303 56l-106 -183h-176zM1061 1249q-102 45 -227 45q-137 0 -245.5 -49t-174.5 -131.5t-99.5 -185t-31.5 -215.5q0 -135 52 -256.5t150 -198.5zM616 178q96 -35 218 -35q110 0 201.5 32t154 87t106.5 128.5t64 154.5t20 168q0 133 -47.5 253t-140.5 201z" />
    <glyph glyph-name="oslashacute" unicode="&#x1ff;" horiz-adv-x="1216" 
d="M530 1198l138 236h186v-4l-184 -240h-140v8zM324 -121l2 -2l82 139q90 -34 202 -34q228 0 373 146t145 376q0 129 -49 236.5t-137 179.5l117 198h-164l-76 -129q-96 41 -211 41q-226 0 -372 -148t-146 -378q0 -133 51.5 -241t143.5 -177l-123 -207h162zM373 231v-2
q-115 97 -115 273q0 161 99 266.5t253 105.5q66 0 129 -26zM856 766h2q107 -107 107 -266q0 -160 -98.5 -262.5t-254.5 -102.5q-66 0 -118 21z" />
    <glyph glyph-name="Scommaaccent" unicode="&#x218;" horiz-adv-x="1359" 
d="M1077 1126l2 -4q-57 92 -160.5 135.5t-232.5 45.5q-96 0 -178 -24t-138.5 -81.5t-56.5 -140.5q0 -38 13 -68.5t41 -53t58.5 -38.5t79.5 -29.5t90 -22t103 -18.5q73 -11 123 -21t114.5 -27.5t108 -37.5t89.5 -52.5t73 -72.5t44.5 -95.5t17.5 -123.5q-1 -93 -35.5 -167.5
t-91.5 -122t-134 -79t-157 -44.5t-166 -13q-133 0 -246 32t-210 108t-150 192l155 80q37 -80 112.5 -136.5t162.5 -82t178 -25.5q72 0 137 12t126.5 40t98.5 82.5t37 129.5q1 52 -21.5 92.5t-58 67.5t-92 47.5t-109.5 32.5t-126 23q-68 11 -117.5 20.5t-110.5 26t-103.5 36
t-85.5 49.5t-69 66.5t-42.5 87t-16.5 111.5q-1 86 32 156.5t88 115.5t128 76t148 44t153 13q87 0 158.5 -11t144 -39t133.5 -81.5t107 -132.5zM692 -375l-2 2q-69 17 -69 88q0 40 22.5 67t54.5 33t63.5 -0.5t54 -34t22.5 -67.5q0 -8 -12 -45t-36.5 -107t-39.5 -118h-111z
" />
    <glyph glyph-name="scommaaccent" unicode="&#x219;" horiz-adv-x="1021" 
d="M805 788l-2 -2q-62 56 -130.5 77.5t-154.5 21.5q-109 2 -180 -37t-70 -111q1 -37 21.5 -64.5t58.5 -44t78.5 -25.5t93.5 -15q39 -5 64 -8.5t64 -11t65.5 -15.5t60.5 -21t57 -28.5t47 -38t37.5 -49t22.5 -61.5t8 -76q-2 -98 -61 -168.5t-153 -104t-210 -33.5
q-297 0 -452 193l96 117q64 -79 161 -117.5t199 -38.5q45 0 87 8t80.5 24.5t63 49t25.5 76.5q1 77 -68.5 111t-203.5 50q-67 9 -118 19.5t-107.5 32t-93 51t-61 78t-24.5 110.5q-1 77 35 136.5t96.5 93.5t131.5 51t147 16q235 0 385 -135zM504 -360v-2q-66 17 -66 86
q0 38 21 64t51 31.5t60.5 -1t51.5 -33t21 -64.5q0 -7 -12 -44t-35 -102.5t-37 -109.5h-104z" />
    <glyph glyph-name="uni021A" unicode="&#x21a;" horiz-adv-x="1234" 
d="M526 1268h-489v164h1161v-164h-489v-1268h-183v1268zM582 -371l-2 2q-70 17 -70 90q0 40 22.5 67t54 33t63.5 -1t54.5 -35t22.5 -68q0 -8 -12 -45t-36.5 -107t-39.5 -118h-111z" />
    <glyph glyph-name="uni021B" unicode="&#x21b;" horiz-adv-x="815" 
d="M438 1307v-297h314v-144h-316v-534q0 -95 36.5 -144t123.5 -49q69 0 141 37l49 -141q-101 -46 -196 -49q-160 -3 -240 86.5t-80 259.5v534h-202v144h202v278zM481 -358v-4q-65 17 -65 86q0 48 32 74.5t70.5 26t70.5 -27.5t32 -73q0 -7 -12 -44t-35 -102.5t-37 -109.5
h-107z" />
    <glyph glyph-name="dotlessj" unicode="&#x237;" horiz-adv-x="475" 
d="M319 1014l3 2v-1147q2 -183 -67.5 -278t-231.5 -95q-103 0 -201 58l55 135q68 -38 137 -35q45 1 73.5 16t42.5 45.5t19 65t5 86.5v1147h165z" />
    <glyph glyph-name="circumflex" unicode="&#x2c6;" horiz-adv-x="866" 
d="M356 1448h109l295 -274v-15h-174l-176 162l-174 -162h-175v15z" />
    <glyph glyph-name="caron" unicode="&#x2c7;" horiz-adv-x="827" 
d="M55 1421v15h174l177 -166l182 166h170v-15l-299 -276h-107z" />
    <glyph glyph-name="breve" unicode="&#x2d8;" horiz-adv-x="714" 
d="M623 1434l-2 -7q6 -129 -74 -201.5t-207 -70.5q-128 0 -207.5 74t-73.5 203h136q0 -63 36 -104.5t109 -41.5q72 0 107.5 42t35.5 106h140z" />
    <glyph glyph-name="dotaccent" unicode="&#x2d9;" horiz-adv-x="413" 
d="M74 1341q0 41 23 69.5t55.5 35t64.5 -0.5t55 -35.5t23 -70.5q0 -41 -23 -69.5t-55.5 -35t-64.5 0.5t-55 35.5t-23 70.5z" />
    <glyph glyph-name="ring" unicode="&#x2da;" horiz-adv-x="737" 
d="M96 1247h2q0 103 71 162t169 59q97 0 169.5 -58t72.5 -161q0 -104 -71 -163.5t-173 -59.5q-103 0 -171.5 59t-68.5 162zM338 1360q-57 0 -89 -35t-32 -77.5t32 -77.5t89 -35q40 0 68.5 16.5t41.5 41.5t12.5 54.5t-13.5 54.5t-41.5 41.5t-67.5 16.5z" />
    <glyph glyph-name="ogonek" unicode="&#x2db;" horiz-adv-x="804" 
d="M496 -119l-2 2q-71 14 -132 -2.5t-90.5 -55t-13.5 -85.5q11 -31 43 -50t76 -18q89 4 149 78l95 -63q-34 -63 -99 -99t-139 -39q-91 -3 -159.5 37.5t-90.5 108.5q-10 29 -10 61.5t11.5 67t36.5 63.5t64.5 50.5t97 28.5t132.5 -3z" />
    <glyph glyph-name="tilde" unicode="&#x2dc;" horiz-adv-x="733" 
d="M61 1350l-4 6q23 93 92 134t154 11q13 -3 59.5 -27.5t57.5 -27.5q31 -15 63.5 -2t46.5 57l113 -47q-24 -101 -94 -138.5t-146 -6.5q-13 3 -58.5 27t-55.5 26q-33 15 -67 0.5t-52 -62.5z" />
    <glyph glyph-name="hungarumlaut" unicode="&#x2dd;" horiz-adv-x="796" 
d="M45 1180l164 256h192v-4l-206 -252h-150zM360 1178l164 258h193v-4l-209 -254h-148z" />
    <glyph glyph-name="commaaccentcomb" unicode="&#x326;" horiz-adv-x="0" 
d="M457 -367h2q-32 8 -52 32t-20 61q0 41 22.5 68t55 33t64.5 -1t54.5 -35.5t22.5 -69.5q0 -8 -12 -45t-37 -109t-41 -120h-113z" />
    <glyph glyph-name="_375" unicode="&#x394;" 
d="M1391 0h-1407l643 1434h121zM686 1233l-473 -1086h948z" />
    <glyph glyph-name="Omega" unicode="&#x3a9;" horiz-adv-x="1673" 
d="M172 156h250q-155 92 -235.5 241t-80.5 330q0 149 50.5 281.5t142 233t230.5 159.5t307 59t308 -59t231.5 -159.5t141.5 -233t50 -281.5q0 -181 -80.5 -330.5t-235.5 -242.5h252v-156h-512v160q128 35 220.5 123.5t136 202t43.5 239.5q0 112 -35 213t-101.5 181
t-174.5 127.5t-242 47.5t-242 -47.5t-174.5 -127.5t-101.5 -181t-35 -213q0 -126 43 -239.5t135.5 -201.5t220.5 -122v-160h-512v156z" />
    <glyph glyph-name="mu" unicode="&#x3bc;" horiz-adv-x="1243" 
d="M170 -453v2v1444h174v-575q0 -143 91.5 -227.5t215.5 -84.5q58 0 110 20.5t94.5 60.5t67.5 105.5t25 149.5v549h176v-991h-157l-15 125q-42 -82 -127 -125t-178 -43q-102 0 -184 40t-119 130v-580h-174z" />
    <glyph glyph-name="pi" unicode="&#x3c0;" horiz-adv-x="1394" 
d="M293 0l-2 -2v866h-234v146h1270v-146h-237v-561q0 -104 42.5 -149.5t153.5 -26.5l10 -133q-187 -34 -279.5 48t-90.5 261v563h-467v-866h-166z" />
    <glyph glyph-name="Wgrave" unicode="&#x1e80;" horiz-adv-x="2211" 
d="M844 1853v5h200l150 -254v-11h-152zM55 1434h201l395 -1186l398 1186h114l402 -1186l391 1186h203l-510 -1436h-170l-205 571l-168 516l-166 -516l-205 -571h-168z" />
    <glyph glyph-name="wgrave" unicode="&#x1e81;" horiz-adv-x="1718" 
d="M621 1427v7h190l139 -238v-10h-141zM63 1012h187l272 -834l269 834h137l268 -834l272 834h185l-355 -1014h-192l-137 377l-109 368l-110 -368l-138 -377h-190z" />
    <glyph glyph-name="Wacute" unicode="&#x1e82;" horiz-adv-x="2211" 
d="M1018 1606l145 241h195v-6l-193 -244h-147v9zM735 -2l205 571l166 516l168 -516l205 -571h170l510 1436h-203l-391 -1186l-402 1186h-114l-398 -1186l-395 1186h-201l512 -1436h168z" />
    <glyph glyph-name="wacute" unicode="&#x1e83;" horiz-adv-x="1718" 
d="M768 1198l137 236h189v-7l-185 -237h-141v8zM612 -2l138 377l110 368l109 -368l137 -377h192l355 1014h-185l-272 -834l-268 834h-137l-269 -834l-272 834h-187l359 -1014h190z" />
    <glyph glyph-name="Wdieresis" unicode="&#x1e84;" horiz-adv-x="2211" 
d="M760 1724q0 39 22.5 65.5t55 33t64.5 0t54.5 -33.5t22.5 -67q0 -39 -22.5 -65.5t-55 -33t-64.5 0t-54.5 33.5t-22.5 67zM1231 1724q0 49 34 76.5t75.5 27.5t75.5 -27.5t34 -76.5t-34 -76.5t-75.5 -27.5t-75.5 27.5t-34 76.5zM735 0l205 571l166 516l168 -516l205 -571
h170l510 1436h-203l-391 -1186l-402 1186h-114l-398 -1186l-395 1186h-201l512 -1436h168z" />
    <glyph glyph-name="wdieresis" unicode="&#x1e85;" horiz-adv-x="1718" 
d="M541 1343q0 49 32 76.5t70 27.5t70 -27.5t32 -76.5q0 -47 -32 -74t-70 -27t-70 27t-32 74zM981 1341q0 39 21 66t50.5 33t59.5 0t51 -32.5t21 -64.5t-21 -64t-50.5 -32t-59.5 0t-51 31.5t-21 62.5zM612 -4l138 377l110 368l109 -368l137 -377h192l355 1014h-185
l-272 -834l-268 834h-137l-269 -834l-272 834h-187l359 -1014h190z" />
    <glyph glyph-name="Ygrave" unicode="&#x1ef2;" horiz-adv-x="1392" 
d="M449 1841v4h196l143 -243v-11h-145zM602 582l-555 845v7h217l430 -680l441 680h217v-7l-566 -845v-582h-184v582z" />
    <glyph glyph-name="ygrave" unicode="&#x1ef3;" horiz-adv-x="1128" 
d="M332 1430v4h196l142 -230v-10h-146zM1077 1012l-639 -1489h-182l211 491l-406 998h191l199 -527l108 -288l111 286l223 529h184z" />
    <glyph glyph-name="endash" unicode="&#x2013;" horiz-adv-x="1232" 
d="M147 662h938v-158h-938v158z" />
    <glyph glyph-name="emdash" unicode="&#x2014;" horiz-adv-x="1441" 
d="M147 662h1147v-158h-1147v158z" />
    <glyph glyph-name="quoteleft" unicode="&#x2018;" horiz-adv-x="481" 
d="M385 1436l-94 -392h-180l137 392h137z" />
    <glyph glyph-name="quoteright" unicode="&#x2019;" horiz-adv-x="471" 
d="M115 1036l96 400h180l-137 -400h-139z" />
    <glyph glyph-name="quotesinglbase" unicode="&#x201a;" horiz-adv-x="495" 
d="M78 -236l94 398h180l-137 -398h-137z" />
    <glyph glyph-name="quotedblleft" unicode="&#x201c;" horiz-adv-x="778" 
d="M383 1430l-96 -396h-181l140 396h137zM682 1430l-98 -396h-181l140 396h139z" />
    <glyph glyph-name="quotedblright" unicode="&#x201d;" horiz-adv-x="772" 
d="M119 1047l96 389h180l-137 -389h-139zM418 1047l94 389h180l-137 -389h-137z" />
    <glyph glyph-name="quotedblbase" unicode="&#x201e;" horiz-adv-x="792" 
d="M76 -236l96 398h180l-137 -398h-139zM375 -236l94 398h180l-137 -398h-137z" />
    <glyph glyph-name="dagger" unicode="&#x2020;" horiz-adv-x="1163" 
d="M1094 885h-422v-1141h-178v1141h-424v153h424v396h178v-396h422v-153z" />
    <glyph glyph-name="daggerdbl" unicode="&#x2021;" horiz-adv-x="1255" 
d="M1141 887h-424v-518h424v-154h-424v-479h-178v479h-424v154h424v518h-424v153h424v394h178v-394h424v-153z" />
    <glyph glyph-name="bullet" unicode="&#x2022;" horiz-adv-x="808" 
d="M406 350v2q-100 0 -165 61.5t-65 161.5t65.5 163t164.5 63q97 0 161 -63.5t64 -164.5q0 -100 -64 -161.5t-161 -61.5z" />
    <glyph glyph-name="ellipsis" unicode="&#x2026;" horiz-adv-x="1296" 
d="M133 92q0 41 23 69.5t55.5 35t64.5 -0.5t55 -35.5t23 -70.5q0 -41 -23 -69.5t-55.5 -35t-64.5 0.5t-55 35.5t-23 70.5zM539 92q0 41 23 69.5t55.5 35t64.5 -0.5t55 -35.5t23 -70.5q0 -41 -23 -69.5t-55 -35t-64.5 0.5t-55.5 35.5t-23 70.5zM942 92q0 41 23 69.5t55 35
t64.5 -0.5t55.5 -35.5t23 -70.5q0 -41 -23 -69.5t-55.5 -35t-64.5 0.5t-55 35.5t-23 70.5z" />
    <glyph glyph-name="perthousand" unicode="&#x2030;" horiz-adv-x="2273" 
d="M401 1452q78 0 141 -27t101.5 -70.5t59.5 -99.5t21 -114.5t-21 -114.5t-59.5 -99.5t-101.5 -70.5t-141 -27q-77 0 -140 27t-101.5 70.5t-59 99.5t-20.5 114.5t20.5 114.5t59 99.5t101.5 70.5t140 27zM1133 1438h192l-926 -1438h-194zM401 1319h-2q-49 0 -88 -19.5
t-58.5 -50.5t-28.5 -69t0.5 -76t30 -69t59.5 -50.5t89 -19.5q49 0 87.5 19.5t58 50.5t28.5 69t-0.5 76t-29.5 69t-58.5 50.5t-87.5 19.5zM1135 608h-2q78 0 141 -26.5t101.5 -70.5t59.5 -100t21 -114t-21 -114t-59.5 -100t-101.5 -70.5t-141 -26.5q-88 0 -157 34.5t-105 89
t-52.5 121t0.5 133t53 121t105.5 89t157.5 34.5zM1884 608h-2q78 0 141 -26.5t101.5 -70.5t59.5 -100t21 -114t-21 -114t-59.5 -100t-101.5 -70.5t-141 -26.5q-88 0 -157 34.5t-105 89t-52.5 121t0.5 133t53 121t105.5 89t157.5 34.5zM1130 477q-57 0 -99 -26.5t-61 -66.5
t-19 -86t19 -86t61 -66.5t99 -26.5q49 0 88 19.5t58.5 51.5t29 70t0 76t-29.5 70t-58.5 51.5t-87.5 19.5zM1882 477h2q-57 0 -99 -26.5t-61 -66.5t-19 -86t19 -86t61 -66.5t99 -26.5q49 0 88 19.5t58.5 51.5t29 70t0 76t-30 70t-59.5 51.5t-88 19.5z" />
    <glyph glyph-name="guilsinglleft" unicode="&#x2039;" horiz-adv-x="647" 
d="M90 610l283 451h180l-281 -451l281 -452h-180z" />
    <glyph glyph-name="guilsinglright" unicode="&#x203a;" horiz-adv-x="651" 
d="M379 608l-281 451h181l282 -451l-282 -452h-181z" />
    <glyph glyph-name="fraction" unicode="&#x2044;" horiz-adv-x="313" 
d="M-311 -6l776 1450h158l-777 -1450h-157z" />
    <glyph glyph-name="zerosuperior" unicode="&#x2070;" horiz-adv-x="796" 
d="M84 1356v2q0 124 65 209t157 104.5t184.5 -0.5t157.5 -105.5t65 -209.5v-109q0 -79 -27 -143t-71.5 -103.5t-101 -61t-115 -21.5t-115 21.5t-101 61t-71.5 103.5t-27 143v109zM215 1247q0 -63 26.5 -109.5t66.5 -68t86 -21.5t86 20.5t66.5 67.5t26.5 111v111
q0 56 -19.5 100.5t-51.5 67.5t-70 33.5t-76 0t-70 -33.5t-51.5 -67.5t-19.5 -100.5v-111z" />
    <glyph glyph-name="foursuperior" unicode="&#x2074;" horiz-adv-x="749" 
d="M584 1673v-469h88v-121h-88v-147h-133v147h-394l-6 111l352 479h181zM451 1204v340l-252 -340h252z" />
    <glyph glyph-name="fivesuperior" unicode="&#x2075;" horiz-adv-x="741" 
d="M371 1405l2 -4q141 0 220.5 -62t78.5 -180q0 -114 -80.5 -177.5t-216.5 -63.5q-58 0 -108 11.5t-93 36t-68 69.5t-26 106h131q0 -54 45.5 -78.5t114.5 -24.5q85 0 124.5 33.5t39.5 89.5q0 54 -38.5 89.5t-125.5 35.5h-275v385h531v-119h-402v-147h146z" />
    <glyph glyph-name="sixsuperior" unicode="&#x2076;" horiz-adv-x="768" 
d="M229 1329l-2 -2q59 59 168 59q46 0 87 -6.5t80.5 -23.5t68 -42.5t46 -67.5t17.5 -95q0 -61 -26 -108t-70 -74t-95.5 -40.5t-107.5 -13.5q-78 0 -143.5 24t-110.5 80t-45 136v285q0 80 43.5 136t107.5 79.5t140 23.5q125 0 208 -51t87 -151h-133q-9 84 -160 84
q-72 0 -116 -30t-44 -91v-111zM395 1030v-2q67 0 115.5 29.5t48.5 91.5q0 61 -48.5 92t-115.5 31q-68 0 -118 -31t-50 -90q0 -62 49 -91.5t119 -29.5z" />
    <glyph glyph-name="sevensuperior" unicode="&#x2077;" horiz-adv-x="649" 
d="M59 1671h547l8 -57l-350 -680h-153l325 616h-377v121z" />
    <glyph glyph-name="eightsuperior" unicode="&#x2078;" horiz-adv-x="786" 
d="M78 1130l4 3q0 61 38.5 109t100.5 67q-59 21 -93 61.5t-34 97.5q0 55 26 97.5t69.5 67t94.5 36.5t107 12t107 -12t95 -36t70.5 -66.5t26.5 -98.5q0 -113 -123 -161q62 -19 101 -69t39 -110q0 -50 -18.5 -89.5t-49 -64t-72.5 -41t-85.5 -23t-90.5 -5.5q-59 0 -111.5 11.5
t-99.5 36t-74.5 70t-27.5 107.5zM555 1468v-2q0 53 -49.5 79t-110.5 26q-62 0 -111 -25.5t-48 -77.5q0 -52 44.5 -78t114.5 -26t115 26t45 78zM569 1133v-5q0 56 -52.5 87.5t-121.5 31.5q-70 0 -122 -30t-52 -87q0 -52 53 -81t121 -29q67 0 120.5 30t53.5 83z" />
    <glyph glyph-name="ninesuperior" unicode="&#x2079;" horiz-adv-x="772" 
d="M672 1157l4 -2q0 -118 -86 -179t-207 -61q-81 0 -145 20.5t-105.5 67.5t-44.5 115h133q9 -84 160 -84q72 0 116 30t44 91v113q-60 -60 -168 -60q-46 0 -87 6.5t-80.5 23.5t-68 43.5t-46 68.5t-17.5 96q0 61 26 108t70 73.5t95.5 40t107.5 13.5q122 0 210.5 -60.5
t88.5 -176.5v-287zM375 1563q-67 0 -115.5 -29t-48.5 -90t48.5 -92t115.5 -31q68 0 118 31t50 90q0 62 -49 91.5t-119 29.5z" />
    <glyph glyph-name="zeroinferior" unicode="&#x2080;" horiz-adv-x="796" 
d="M84 250q0 104 46.5 180.5t116.5 110.5t151.5 34t151.5 -34.5t116.5 -110.5t46.5 -180v-109q0 -79 -27 -142.5t-71.5 -103t-101 -60.5t-115 -21t-115 21t-101 60.5t-71.5 103t-27 142.5v109zM215 139q0 -63 26.5 -109.5t66.5 -68t86 -21.5t86 20.5t66.5 67.5t26.5 111v109
q0 56 -19.5 100.5t-51.5 67.5t-70 33.5t-76 0t-70 -33.5t-51.5 -67.5t-19.5 -100.5v-109z" />
    <glyph glyph-name="oneinferior" unicode="&#x2081;" horiz-adv-x="524" 
d="M76 -57h129v469l-111 -27v119l246 59v-620h131v-119h-395v119z" />
    <glyph glyph-name="twoinferior" unicode="&#x2082;" horiz-adv-x="743" 
d="M84 352h4q0 60 24.5 105.5t66 71t90 37.5t102.5 12q60 0 110 -12t92 -37.5t65.5 -71.5t23.5 -109q0 -55 -19 -96.5t-45 -64t-67 -37.5t-70.5 -20t-71.5 -9q-33 -3 -58 -8t-54 -17t-44.5 -35.5t-15.5 -56.5v-43h434v-133h-571v178q0 56 22.5 98.5t61.5 67.5t84 38t98 17
q85 7 131.5 33.5t46.5 87.5q0 111 -155 111q-150 0 -152 -107h-133z" />
    <glyph glyph-name="threeinferior" unicode="&#x2083;" horiz-adv-x="749" 
d="M213 39l-2 6q9 -104 158 -104q64 0 112.5 24.5t48.5 83.5q0 41 -38 74t-119 33h-113v108h105q151 0 153 98q0 37 -38 69t-113 32q-28 0 -52.5 -4.5t-49 -15.5t-40 -33.5t-18.5 -53.5h-121q0 57 24.5 100.5t65.5 68.5t89 37.5t102 12.5q74 0 136.5 -22.5t105 -72.5
t42.5 -120q0 -56 -29 -98t-79 -55q59 -16 93 -63t34 -97q0 -64 -27 -111.5t-72.5 -73t-96.5 -37t-109 -11.5q-76 0 -138.5 20.5t-107 73t-45.5 131.5h139z" />
    <glyph glyph-name="fourinferior" unicode="&#x2084;" horiz-adv-x="747" 
d="M584 563v-471h86v-121h-86v-147h-133v147h-394l-6 113l352 479h181zM451 92v342l-252 -342h252z" />
    <glyph glyph-name="fiveinferior" unicode="&#x2085;" horiz-adv-x="741" 
d="M371 297l2 -2q141 0 220.5 -62.5t78.5 -181.5q0 -114 -80.5 -177.5t-216.5 -63.5q-59 0 -108.5 11.5t-92.5 36t-68 70t-26 107.5h131q0 -54 45.5 -78.5t114.5 -24.5q85 0 124.5 33t39.5 88q0 54 -38.5 89.5t-125.5 35.5h-275v387h531v-119h-402v-149h146z" />
    <glyph glyph-name="sixinferior" unicode="&#x2086;" horiz-adv-x="768" 
d="M229 225l-2 -2q60 60 168 60q46 0 87 -6.5t80.5 -23.5t68 -43t46 -68t17.5 -95q0 -61 -26 -108t-70 -73.5t-95.5 -40t-107.5 -13.5q-57 0 -109 14t-95.5 42t-69 75t-25.5 108v285q0 80 43.5 136t107.5 79.5t140 23.5q125 0 208 -51t87 -151h-133q-9 84 -160 84
q-72 0 -116 -30t-44 -91v-111zM395 -74v-2q67 0 115.5 29.5t48.5 91.5q0 61 -48.5 92t-115.5 31q-68 0 -118 -31t-50 -90q0 -62 49 -91.5t119 -29.5z" />
    <glyph glyph-name="seveninferior" unicode="&#x2087;" horiz-adv-x="645" 
d="M57 563h547l8 -57l-350 -682h-153l325 618h-377v121z" />
    <glyph glyph-name="eightinferior" unicode="&#x2088;" horiz-adv-x="788" 
d="M80 37h2q0 61 39 109t102 67q-59 21 -93 62.5t-34 99.5q0 55 26 97.5t69.5 67t94.5 36.5t107 12t107 -12t95 -36t70.5 -66.5t26.5 -98.5q0 -115 -123 -160q62 -19 101 -68.5t39 -109.5q0 -62 -27.5 -107.5t-75 -70t-100.5 -36t-113 -11.5q-59 0 -111.5 11.5t-99.5 36
t-74.5 70t-27.5 107.5zM555 371q0 53 -49.5 78.5t-110.5 25.5q-63 0 -111.5 -25.5t-47.5 -78.5q0 -53 44.5 -79t114.5 -26t115 26.5t45 78.5zM569 37q0 56 -52.5 87.5t-121.5 31.5q-71 0 -122.5 -30t-51.5 -89q0 -52 53 -81.5t121 -29.5q67 0 120.5 29.5t53.5 81.5z" />
    <glyph glyph-name="nineinferior" unicode="&#x2089;" horiz-adv-x="765" 
d="M672 51l2 2q0 -80 -43.5 -136t-107.5 -79.5t-140 -23.5q-125 0 -208 51t-87 151h133q9 -84 160 -84q72 0 116 30t44 91v111q-60 -60 -168 -60q-46 0 -87 6.5t-80.5 23.5t-68 43t-46 68t-17.5 95q0 61 26 108t70 73.5t95.5 40t107.5 13.5q57 0 109 -14t95.5 -42t69 -75
t25.5 -108v-285zM373 461v2q-67 0 -115.5 -29.5t-48.5 -91.5q0 -61 48.5 -92t115.5 -31q68 0 118 31t50 90q0 62 -49 91.5t-119 29.5z" />
    <glyph glyph-name="Euro" unicode="&#x20ac;" horiz-adv-x="1255" 
d="M1180 16v-6q-121 -41 -252 -41q-304 0 -477.5 142.5t-227.5 396.5h-135v141h115q-2 8 -2 56q0 43 2 63h-117v143h137q23 118 78 215t140.5 171t209.5 115.5t275 41.5q97 0 213 -33l-52 -157q-76 20 -157 20q-211 0 -340 -98t-176 -275h518l-35 -143h-518q-2 -18 -2 -59
q0 -40 2 -54h487l-30 -141h-424q42 -175 172 -271t346 -96q102 0 200 37z" />
    <glyph glyph-name="afii61289" unicode="&#x2113;" horiz-adv-x="821" 
d="M416 301q0 -90 76 -126t190 -9v-141q-78 -26 -147.5 -32t-129.5 10.5t-103.5 55.5t-68 109t-24.5 166l-100 -49l-29 94q72 30 127 61v682q0 187 69.5 264.5t249.5 77.5q55 0 97.5 -16t68.5 -45.5t42 -66t21.5 -82.5t4.5 -90.5t-8 -94.5q-19 -159 -110 -305t-226 -268
v-195zM410 1122q0 -54 -1 -231t-1 -254q91 105 161 224t84 226q3 30 5 48.5t2.5 50t-3 52.5t-12 45.5t-22.5 39.5t-38 25t-55 10q-39 0 -67 -35.5t-40.5 -88t-12.5 -112.5z" />
    <glyph glyph-name="uni2117" unicode="&#x2117;" horiz-adv-x="1695" 
d="M848 1462q139 0 258.5 -38.5t207 -107t149.5 -162t93 -205t31 -234.5q0 -153 -49.5 -288t-141 -238t-233.5 -162.5t-315 -59.5q-139 0 -258 38.5t-206.5 108t-150 163t-93.5 205t-31 233.5q0 123 31 234.5t93.5 205t150 162t206.5 107t258 38.5zM264 715v4
q0 -128 39.5 -239t112 -193.5t184 -130t248.5 -47.5t248.5 47.5t185 130t113 193t39.5 237.5q0 128 -39.5 239t-113 193.5t-185 130t-248.5 47.5t-248.5 -47.5t-184 -130.5t-112 -194t-39.5 -240zM944 563l-2 -2q60 0 109.5 18t81 48.5t53 70t26 83t-1 87t-27.5 83t-53.5 70
t-79.5 48.5t-104 18h-354v-770h143v246h209zM733 954v-2h211q36 0 64.5 -15t43 -38.5t21 -52t-1 -57t-22.5 -52t-43.5 -38.5t-65.5 -15h-207v270z" />
    <glyph glyph-name="trademark" unicode="&#x2122;" horiz-adv-x="1646" 
d="M793 1436h143l201 -256l204 256h140v-586h-144l6 385l-194 -246h-29l-190 252l6 -391h-143v586zM346 1315h-215v119h571v-119h-217v-465h-139v465z" />
    <glyph glyph-name="estimated" unicode="&#x212e;" horiz-adv-x="1314" 
d="M1139 213q-88 -125 -201 -176t-264 -51q-115 0 -214 39.5t-174 114t-118 191t-43 261.5q0 147 42.5 264t117.5 191t173.5 113.5t213.5 39.5q95 0 176.5 -20.5t154.5 -69.5t121.5 -123t72 -188.5t11.5 -259.5h-823v-349q117 -108 289 -108q126 0 222 44t167 146zM965 1016
q-113 88 -293 88q-179 0 -287 -94v-375h580v381z" />
    <glyph glyph-name="uni2153" unicode="&#x2153;" horiz-adv-x="1556" 
d="M100 827h129v469l-110 -26v119l246 59v-621h131v-116h-396v116zM406 -6h-152l774 1450h156zM1024 217h2q9 -102 158 -102q65 0 113.5 24t48.5 84q0 41 -38.5 74t-119.5 33h-115v110h107q151 0 151 99q0 37 -38 68.5t-115 31.5q-28 0 -52.5 -4.5t-49 -15.5t-40 -33.5
t-18.5 -53.5h-119q0 57 24.5 100.5t65 69t89 38t102.5 12.5q74 0 136.5 -22.5t105 -72.5t42.5 -120q0 -56 -29 -98.5t-79 -57.5q58 -16 92.5 -62.5t34.5 -95.5q0 -64 -27 -111.5t-72.5 -73t-96.5 -37t-109 -11.5q-56 0 -105.5 12.5t-92 38t-67.5 71t-26 105.5h137z" />
    <glyph glyph-name="uni2154" unicode="&#x2154;" horiz-adv-x="1718" 
d="M100 1227h6q0 60 24.5 105.5t66 70.5t90 37t102.5 12q60 0 110 -11.5t92 -37t65.5 -71.5t23.5 -109q0 -56 -19.5 -98.5t-45.5 -65t-68.5 -37.5t-72 -20t-71.5 -9q-167 -14 -167 -116v-46h426v-131h-562v179q0 55 21.5 97.5t59 67.5t81 38.5t94.5 17.5q89 9 137 35t48 88
q0 110 -156 110q-150 0 -152 -106h-133zM1192 1444h156l-779 -1450h-153zM1235 330h-2v110h104q152 0 154 99q0 37 -38 68.5t-114 31.5q-38 0 -69.5 -7.5t-58.5 -33t-31 -66.5h-121q0 75 42.5 126.5t103.5 72.5t134 21q74 0 137 -22.5t105.5 -72.5t42.5 -120
q0 -56 -29 -98.5t-79 -57.5q58 -16 92 -62.5t34 -95.5q0 -64 -27 -111.5t-72.5 -73t-96.5 -37t-109 -11.5q-56 0 -105 12.5t-91.5 38t-67.5 71t-26 105.5h139q9 -102 157 -102q65 0 113.5 24t48.5 84q0 41 -38 74t-119 33h-113z" />
    <glyph glyph-name="oneeighth" unicode="&#x215b;" horiz-adv-x="1607" 
d="M100 827h129v469l-110 -26v119l246 59v-621h131v-116h-396v116zM254 -6l774 1450h156l-778 -1450h-152zM901 209h2q0 61 39 109t102 67q-59 21 -92.5 62.5t-33.5 99.5q0 73 45.5 123t109.5 70t141 20q56 0 107 -12t95 -36t70.5 -66.5t26.5 -98.5q0 -116 -122 -160
q61 -19 100 -68.5t39 -109.5q0 -62 -27.5 -107.5t-75 -70t-100.5 -36t-113 -11.5q-59 0 -111.5 11.5t-99.5 36t-74.5 70t-27.5 107.5zM1376 543q0 53 -49 78.5t-110 25.5q-63 0 -112 -25.5t-48 -78.5q0 -52 45 -78.5t115 -26.5t114.5 26t44.5 79zM1391 209q0 56 -52.5 87.5
t-121.5 31.5q-71 0 -123 -30t-52 -89q0 -52 53.5 -81.5t121.5 -29.5q67 0 120.5 29.5t53.5 81.5z" />
    <glyph glyph-name="threeeighths" unicode="&#x215c;" horiz-adv-x="1730" 
d="M272 1024h-4v111h107q151 0 151 98q0 37 -37.5 68.5t-113.5 31.5q-62 0 -108 -23.5t-50 -82.5h-121q0 57 24.5 100.5t65.5 68.5t89 37.5t102 12.5q74 0 137 -22.5t106 -72.5t44 -120q0 -56 -29.5 -98.5t-79.5 -57.5q58 -16 92.5 -62t34.5 -95q0 -64 -27 -112t-72.5 -73
t-96.5 -37t-109 -12q-56 0 -105.5 12.5t-92 38t-67.5 71t-26 105.5h139q9 -102 158 -102q65 0 113.5 24.5t48.5 84.5q0 41 -38.5 73.5t-119.5 32.5h-115zM1161 1444h156l-778 -1450h-152zM1024 209h2q0 61 39 109t102 67q-59 21 -93 62.5t-34 99.5q0 55 26 97.5t69.5 67
t94.5 36.5t107 12t107 -12t95 -36t70.5 -66.5t26.5 -98.5q0 -115 -123 -160q62 -19 101 -68.5t39 -109.5q0 -62 -27.5 -107.5t-75 -70t-100.5 -36t-113 -11.5q-59 0 -111.5 11.5t-99.5 36t-74.5 70t-27.5 107.5zM1499 543q0 53 -49.5 78.5t-110.5 25.5q-63 0 -111.5 -25.5
t-47.5 -78.5q0 -53 44.5 -79t114.5 -26t115 26.5t45 78.5zM1513 209q0 56 -52.5 87.5t-121.5 31.5q-71 0 -122.5 -30t-51.5 -89q0 -52 53 -81.5t121 -29.5q67 0 120.5 29.5t53.5 81.5z" />
    <glyph glyph-name="fiveeighths" unicode="&#x215d;" horiz-adv-x="1734" 
d="M391 -6l774 1450h156l-778 -1450h-152zM106 1051v385h529v-119h-399v-150h143q141 0 221 -62t80 -181q0 -114 -80.5 -178t-214.5 -64q-59 0 -108.5 11.5t-92.5 36t-68 70t-26 107.5h131q0 -54 45 -78t115 -24q85 0 124.5 33t39.5 88q0 54 -39 89.5t-127 35.5h-273z
M1028 209h2q0 61 39 109t102 67q-59 21 -93 62.5t-34 99.5q0 55 26 97.5t69.5 67t94.5 36.5t107 12t107 -12t95 -36t70.5 -66.5t26.5 -98.5q0 -116 -122 -160q61 -19 100 -68.5t39 -109.5q0 -62 -27.5 -107.5t-75 -70t-100.5 -36t-113 -11.5q-59 0 -111.5 11.5t-99.5 36
t-74.5 70t-27.5 107.5zM1503 543q0 53 -49.5 78.5t-110.5 25.5q-63 0 -111.5 -25.5t-47.5 -78.5q0 -53 44.5 -79t114.5 -26t115 26.5t45 78.5zM1518 209q0 56 -53 87.5t-122 31.5q-71 0 -122.5 -30t-51.5 -89q0 -52 53 -81.5t121 -29.5q67 0 121 29.5t54 81.5z" />
    <glyph glyph-name="seveneighths" unicode="&#x215e;" horiz-adv-x="1564" 
d="M987 1444h156l-778 -1450h-152zM457 1315h-377v121h547l8 -60l-350 -680h-154zM860 209h4q0 61 39 109t103 67q-59 21 -93 62.5t-34 99.5q0 73 45.5 123t109.5 70t140 20q56 0 107 -12t95 -36t70.5 -66.5t26.5 -98.5q0 -116 -125 -160q61 -19 100 -68.5t39 -109.5
q0 -62 -27.5 -107.5t-75 -70t-100.5 -36t-113 -11.5q-59 0 -111.5 11.5t-99 36t-74 70t-26.5 107.5zM1337 543q0 53 -49 78.5t-112 25.5t-112.5 -25.5t-49.5 -78.5t45.5 -79t116.5 -26q69 0 114.5 26t46.5 79zM1350 209q0 56 -52.5 87.5t-121.5 31.5q-71 0 -123 -30t-52 -89
q0 -52 53.5 -81.5t121.5 -29.5q67 0 120.5 29.5t53.5 81.5z" />
    <glyph glyph-name="arrowleft" unicode="&#x2190;" horiz-adv-x="1286" 
d="M72 719l454 452l92 -88l-286 -288h833v-156h-833l282 -293l-88 -82z" />
    <glyph glyph-name="arrowup" unicode="&#x2191;" horiz-adv-x="1044" 
d="M524 1274l453 -457l-86 -90l-291 285v-832h-156v832l-292 -283l-82 90z" />
    <glyph glyph-name="arrowright" unicode="&#x2192;" horiz-adv-x="1286" 
d="M1214 719l-454 -455l-92 88l284 291h-831v156h831l-280 291l88 84z" />
    <glyph glyph-name="arrowdown" unicode="&#x2193;" horiz-adv-x="1040" 
d="M520 154l-454 454l88 92l290 -284v831h156v-831l291 280l84 -88z" />
    <glyph glyph-name="uni2196" unicode="&#x2196;" horiz-adv-x="1036" 
d="M133 1104h645l2 -131h-407l590 -590l-111 -111l-588 590l-8 -405l-123 4v643z" />
    <glyph glyph-name="uni2197" unicode="&#x2197;" horiz-adv-x="1038" 
d="M903 459l-131 -2v405l-588 -590l-110 111l590 590l-406 6l2 123h643v-643z" />
    <glyph glyph-name="uni2198" unicode="&#x2198;" horiz-adv-x="1124" 
d="M920 326h-644l-4 123l408 8l-590 587l111 111l590 -588v406l129 -2v-645z" />
    <glyph glyph-name="uni2199" unicode="&#x2199;" horiz-adv-x="1124" 
d="M205 971l131 2v-406l588 588l110 -111l-590 -587l408 -8l-4 -123h-643v645z" />
    <glyph glyph-name="partialdiff" unicode="&#x2202;" horiz-adv-x="1230" 
d="M612 131q84 0 151.5 30.5t110 81.5t65 114t22.5 132q0 68 -22.5 131t-65 114t-110 81.5t-151.5 30.5t-152.5 -30.5t-110.5 -81.5t-64.5 -114t-22.5 -131q0 -69 22.5 -132t64.5 -114t110.5 -81.5t152.5 -30.5zM559 989q97 7 201 -24.5t172 -106.5q-35 101 -134 195.5
t-213.5 155.5t-222.5 85l37 138q356 -88 543.5 -321t190.5 -595q2 -239 -139.5 -387.5t-381.5 -148.5q-126 0 -227.5 43t-164.5 115t-96.5 161.5t-33.5 187.5q0 92 30 178t86.5 156t148 115.5t204.5 52.5z" />
    <glyph glyph-name="increment" unicode="&#x2206;" horiz-adv-x="1597" 
d="M1542 0h-1487l643 1434h201zM326 164h944l-471 1077z" />
    <glyph glyph-name="product" unicode="&#x220f;" horiz-adv-x="1404" 
d="M1036 -387v1653h-667v-1653h-183v1821h1033v-1821h-183z" />
    <glyph glyph-name="summation" unicode="&#x2211;" horiz-adv-x="1198" 
d="M334 176h756v-176h-1012v96l454 656l-423 604v78h968v-168h-696l354 -518z" />
    <glyph glyph-name="minus" unicode="&#x2212;" horiz-adv-x="1083" 
d="M150 731h784v-162h-784v162z" />
    <glyph glyph-name="uni2215" unicode="&#x2215;" horiz-adv-x="913" 
d="M-12 -6l776 1450h158l-777 -1450h-157z" />
    <glyph glyph-name="uni2219" unicode="&#x2219;" horiz-adv-x="512" 
d="M141 639q0 43 23.5 73t57.5 37t68 0t57.5 -36t23.5 -72t-23.5 -73t-57.5 -37t-68 0t-57.5 36t-23.5 72z" />
    <glyph glyph-name="radical" unicode="&#x221a;" horiz-adv-x="1261" 
d="M752 0h-144l-340 705l-180 -78l-49 116l340 152l309 -696l430 1263l117 -32z" />
    <glyph glyph-name="infinity" unicode="&#x221e;" horiz-adv-x="1605" 
d="M451 340q-108 1 -186.5 49t-114.5 119.5t-35 155.5q0 132 92.5 228.5t253.5 96.5q162 0 342 -221q187 221 340 221q83 0 150.5 -27.5t110 -73.5t65 -103.5t22.5 -120.5q1 -84 -35 -155.5t-114.5 -119.5t-186.5 -49q-97 0 -182 58.5t-170 160.5q-85 -102 -169 -160.5
t-183 -58.5zM455 479q36 0 68.5 11t66 38t51 44t53.5 55q24 28 33 37l-27 32q-44 50 -72.5 78t-76 54t-96.5 26q-101 0 -156 -61.5t-49 -141.5q5 -71 58.5 -120t146.5 -52zM1151 479q100 3 153.5 58.5t53.5 130.5q-2 76 -56 131t-151 55q-30 0 -60 -11t-49 -21.5
t-50.5 -40.5t-41 -40.5t-43.5 -48.5l-26 -28q6 -5 17 -17t13 -14h-2q3 -3 23 -23.5t24.5 -25.5t23 -22.5t26.5 -23t25 -18.5t28.5 -17.5t27.5 -11.5t31.5 -9.5t32.5 -2.5z" />
    <glyph glyph-name="integral" unicode="&#x222b;" horiz-adv-x="956" 
d="M377 1081l2 -2q0 173 90 270t250 97q119 0 229 -74l-69 -125q-85 51 -156 51q-85 0 -131.5 -54t-46.5 -165v-1083q0 -175 -83 -272t-241 -97q-104 0 -211 72l68 123q38 -29 65.5 -39t69.5 -10q164 0 164 225v1083z" />
    <glyph glyph-name="approxequal" unicode="&#x2248;" horiz-adv-x="1167" 
d="M264 690l-110 64q43 91 126 134.5t175 20.5l290 -96q40 -17 71.5 -9.5t51 26.5t41.5 59l109 -51q-95 -223 -299 -154l-279 86q-54 20 -102.5 -3t-73.5 -77zM264 324l-110 63q43 92 125.5 135.5t173.5 20.5l290 -97q32 -11 56.5 -11t44 11t34.5 29t31 47l109 -51
q-95 -224 -301 -154l-279 86q-55 20 -102.5 -2.5t-71.5 -76.5z" />
    <glyph glyph-name="notequal" unicode="&#x2260;" horiz-adv-x="1134" 
d="M141 506h295l166 274h-461v158h555l90 149l80 -45l-63 -104h186v-158h-278l-166 -274h444v-158h-536l-93 -153l-81 47l63 106h-201v158z" />
    <glyph glyph-name="lessequal" unicode="&#x2264;" horiz-adv-x="923" 
d="M651 1253l90 -108l-399 -285l403 -297l-96 -106l-493 377v55zM143 328h635v-142h-635v142z" />
    <glyph glyph-name="greaterequal" unicode="&#x2265;" horiz-adv-x="923" 
d="M768 889v-55l-494 -377l-96 106l404 297l-400 285l92 108zM782 186h-637v142h637v-142z" />
    <glyph glyph-name="lozenge" unicode="&#x25ca;" horiz-adv-x="1169" 
d="M651 14h-137l-440 707l440 704h137l447 -704zM262 719l320 -545l333 545l-333 545z" />
    <glyph glyph-name="fi" unicode="&#xfb01;" horiz-adv-x="1208" 
d="M788 1401l-2 2q-86 47 -182 47q-160 0 -250 -97.5t-90 -271.5v-80h-198v-145h198v-854h168v854h307v145h-307v80q0 111 46.5 165t131.5 54q66 0 123 -32zM864 1323q0 41 23 69.5t55 35t64.5 -0.5t55.5 -35.5t23 -70.5q0 -41 -23 -69.5t-55.5 -35t-64.5 0.5t-55 35.5
t-23 70.5zM891 1018v-1016h168v1016h-168z" />
    <glyph glyph-name="fl" unicode="&#xfb02;" horiz-adv-x="1204" 
d="M733 1272h-2q-55 31 -121 31q-84 0 -131 -55.5t-47 -166.5v-80h295v-147h-295v-852h-168v852h-198v147h198v80q0 173 90 270t250 97q92 0 174 -43zM1038 1434v-1434h-168v1434h168z" />
    <glyph glyph-name="a.alt" horiz-adv-x="1140" 
d="M848 160l-2 2q-61 -87 -161.5 -132.5t-211.5 -45.5q-79 0 -149 19.5t-127.5 59t-91 105.5t-33.5 151q0 82 34 146t92 102t129 57.5t150 18.5q207 0 357 -84v80q0 66 -27.5 115t-75 75.5t-103.5 39t-122 12.5q-80 0 -171 -22t-159 -54l-31 141q193 86 363 86
q84 0 155 -12.5t133.5 -41.5t106.5 -73.5t69 -112.5t25 -155v-637h-141zM838 416q-66 39 -161.5 62.5t-174.5 23.5q-51 0 -96.5 -10.5t-84 -31.5t-61 -58.5t-22.5 -86.5t24 -86.5t63.5 -58.5t83 -31t89.5 -10q134 0 235 80.5t105 206.5z" />
    <glyph glyph-name="aacute.alt" horiz-adv-x="1140" 
d="M446 1188v10l140 244h202v-6l-190 -248h-152zM848 160l-2 2q-61 -87 -161.5 -132.5t-211.5 -45.5q-79 0 -149 19.5t-127.5 59t-91 105.5t-33.5 151q0 82 34 146t92 102t129 57.5t150 18.5q207 0 357 -84v80q0 66 -27.5 115t-75 75.5t-103.5 39t-122 12.5q-80 0 -171 -22
t-159 -54l-31 141q193 86 363 86q84 0 155 -12.5t133.5 -41.5t106.5 -73.5t69 -112.5t25 -155v-637h-141zM838 416q-66 39 -161.5 62.5t-174.5 23.5q-51 0 -96.5 -10.5t-84 -31.5t-61 -58.5t-22.5 -86.5t24 -86.5t63.5 -58.5t83 -31t89.5 -10q134 0 235 80.5t105 206.5z" />
    <glyph glyph-name="abreve.alt" horiz-adv-x="1140" 
d="M844 1444h-2q6 -129 -74 -202t-207 -73t-206.5 73.5t-73.5 201.5h135q0 -63 36 -104.5t109 -41.5q72 0 108 42t36 104h139zM848 160l-2 2q-61 -87 -161.5 -132.5t-211.5 -45.5q-79 0 -149 19.5t-127.5 59t-91 105.5t-33.5 151q0 82 34 146t92 102t129 57.5t150 18.5
q207 0 357 -84v80q0 66 -27.5 115t-75 75.5t-103.5 39t-122 12.5q-80 0 -171 -22t-159 -54l-31 141q193 86 363 86q84 0 155 -12.5t133.5 -41.5t106.5 -73.5t69 -112.5t25 -155v-637h-141zM838 416q-66 39 -161.5 62.5t-174.5 23.5q-51 0 -96.5 -10.5t-84 -31.5t-61 -58.5
t-22.5 -86.5t24 -86.5t63.5 -58.5t83 -31t89.5 -10q134 0 235 80.5t105 206.5z" />
    <glyph glyph-name="acircumflex.alt" horiz-adv-x="1140" 
d="M215 1180l291 270h104l291 -270v-15h-170l-172 160l-172 -160h-172v15zM848 160l-2 2q-61 -87 -161.5 -132.5t-211.5 -45.5q-79 0 -149 19.5t-127.5 59t-91 105.5t-33.5 151q0 82 34 146t92 102t129 57.5t150 18.5q207 0 357 -84v80q0 66 -27.5 115t-75 75.5t-103.5 39
t-122 12.5q-80 0 -171 -22t-159 -54l-31 141q193 86 363 86q84 0 155 -12.5t133.5 -41.5t106.5 -73.5t69 -112.5t25 -155v-637h-141zM838 416q-66 39 -161.5 62.5t-174.5 23.5q-51 0 -96.5 -10.5t-84 -31.5t-61 -58.5t-22.5 -86.5t24 -86.5t63.5 -58.5t83 -31t89.5 -10
q134 0 235 80.5t105 206.5z" />
    <glyph glyph-name="adieresis.alt" horiz-adv-x="1140" 
d="M252 1341q0 41 22.5 69.5t55 35t64.5 0t54.5 -34t22.5 -68.5t-22.5 -69t-54.5 -34.5t-64.5 0t-55 34t-22.5 67.5zM680 1341q0 51 34 80.5t75.5 29.5t75.5 -29.5t34 -80.5t-34 -79.5t-75.5 -28.5t-75.5 28.5t-34 79.5zM848 160l-2 2q-61 -87 -161.5 -132.5t-211.5 -45.5
q-79 0 -149 19.5t-127.5 59t-91 105.5t-33.5 151q0 82 34 146t92 102t129 57.5t150 18.5q207 0 357 -84v80q0 66 -27.5 115t-75 75.5t-103.5 39t-122 12.5q-80 0 -171 -22t-159 -54l-31 141q193 86 363 86q84 0 155 -12.5t133.5 -41.5t106.5 -73.5t69 -112.5t25 -155v-637
h-141zM838 416q-66 39 -161.5 62.5t-174.5 23.5q-51 0 -96.5 -10.5t-84 -31.5t-61 -58.5t-22.5 -86.5t24 -86.5t63.5 -58.5t83 -31t89.5 -10q134 0 235 80.5t105 206.5z" />
    <glyph glyph-name="agrave.alt" horiz-adv-x="1140" 
d="M334 1436v6h201l139 -244v-10h-150zM848 160l-2 2q-61 -87 -161.5 -132.5t-211.5 -45.5q-79 0 -149 19.5t-127.5 59t-91 105.5t-33.5 151q0 82 34 146t92 102t129 57.5t150 18.5q207 0 357 -84v80q0 66 -27.5 115t-75 75.5t-103.5 39t-122 12.5q-80 0 -171 -22t-159 -54
l-31 141q193 86 363 86q84 0 155 -12.5t133.5 -41.5t106.5 -73.5t69 -112.5t25 -155v-637h-141zM838 416q-66 39 -161.5 62.5t-174.5 23.5q-51 0 -96.5 -10.5t-84 -31.5t-61 -58.5t-22.5 -86.5t24 -86.5t63.5 -58.5t83 -31t89.5 -10q134 0 235 80.5t105 206.5z" />
    <glyph glyph-name="amacron.alt" horiz-adv-x="1140" 
d="M229 1407h650v-141h-650v141zM848 160l-2 2q-61 -87 -161.5 -132.5t-211.5 -45.5q-79 0 -149 19.5t-127.5 59t-91 105.5t-33.5 151q0 82 34 146t92 102t129 57.5t150 18.5q207 0 357 -84v80q0 66 -27.5 115t-75 75.5t-103.5 39t-122 12.5q-80 0 -171 -22t-159 -54
l-31 141q193 86 363 86q84 0 155 -12.5t133.5 -41.5t106.5 -73.5t69 -112.5t25 -155v-637h-141zM838 416q-66 39 -161.5 62.5t-174.5 23.5q-51 0 -96.5 -10.5t-84 -31.5t-61 -58.5t-22.5 -86.5t24 -86.5t63.5 -58.5t83 -31t89.5 -10q134 0 235 80.5t105 206.5z" />
    <glyph glyph-name="aogonek.alt" horiz-adv-x="1140" 
d="M150 942h-3q193 86 361 86q106 0 191 -20t154 -64.5t106.5 -122.5t37.5 -186v-721q-98 12 -166 -28t-53 -99q6 -29 36.5 -48.5t74.5 -19.5q41 0 84 20t74 58l92 -63q-34 -63 -101.5 -98t-144.5 -37q-95 -1 -162 40.5t-82 110.5q-7 32 1 69.5t31 74t69 64.5t108 38l-6 164
q-60 -87 -162.5 -131.5t-214.5 -44.5q-79 0 -148.5 19t-127.5 56.5t-91.5 103t-33.5 150.5q0 82 34 146.5t92 103.5t129 59t150 19q205 0 355 -84v80q0 66 -27 115t-74.5 75.5t-103 39t-121.5 12.5q-80 0 -171 -22t-159 -54zM834 414q-65 38 -158.5 61t-173.5 23
q-51 0 -97 -10.5t-84.5 -31.5t-61.5 -57.5t-23 -85.5q1 -49 25.5 -86.5t64 -58.5t83 -31t89.5 -10q87 0 162 35t123 101.5t51 150.5z" />
    <glyph glyph-name="aring.alt" horiz-adv-x="1140" 
d="M336 1341h2q0 92 67.5 144.5t161.5 52.5q92 0 160 -52t68 -145q0 -92 -67 -144t-165 -52t-162.5 52t-64.5 144zM563 1444h4q-43 0 -73 -20.5t-37 -50t0 -58.5t36 -49.5t72 -20.5q44 0 74.5 20.5t37 49.5t-1 58.5t-38 50t-74.5 20.5zM848 160l-2 2q-61 -87 -161.5 -132.5
t-211.5 -45.5q-79 0 -149 19.5t-127.5 59t-91 105.5t-33.5 151q0 82 34 146t92 102t129 57.5t150 18.5q207 0 357 -84v80q0 66 -27.5 115t-75 75.5t-103.5 39t-122 12.5q-80 0 -171 -22t-159 -54l-31 141q193 86 363 86q84 0 155 -12.5t133.5 -41.5t106.5 -73.5t69 -112.5
t25 -155v-637h-141zM838 416q-66 39 -161.5 62.5t-174.5 23.5q-51 0 -96.5 -10.5t-84 -31.5t-61 -58.5t-22.5 -86.5t24 -86.5t63.5 -58.5t83 -31t89.5 -10q134 0 235 80.5t105 206.5z" />
    <glyph glyph-name="aringacute.alt" horiz-adv-x="1140" 
d="M479 1528l148 190h198v-4l-196 -192h-150v6zM342 1290v-4q0 -85 60 -132.5t153 -47.5q90 0 151.5 48.5t61.5 133.5q0 84 -63.5 132t-149.5 48q-88 0 -150.5 -47.5t-62.5 -130.5zM553 1376h-2q41 0 69 -18.5t35 -45.5t1 -54t-34 -45.5t-69 -18.5q-50 0 -78.5 28.5
t-28.5 62.5t28.5 62.5t78.5 28.5zM848 160l-2 2q-61 -87 -161.5 -132.5t-211.5 -45.5q-79 0 -149 19.5t-127.5 59t-91 105.5t-33.5 151q0 82 34 146t92 102t129 57.5t150 18.5q207 0 357 -84v80q0 66 -27.5 115t-75 75.5t-103.5 39t-122 12.5q-80 0 -171 -22t-159 -54
l-31 141q193 86 363 86q84 0 155 -12.5t133.5 -41.5t106.5 -73.5t69 -112.5t25 -155v-637h-141zM838 416q-66 39 -161.5 62.5t-174.5 23.5q-51 0 -96.5 -10.5t-84 -31.5t-61 -58.5t-22.5 -86.5t24 -86.5t63.5 -58.5t83 -31t89.5 -10q134 0 235 80.5t105 206.5z" />
    <glyph glyph-name="atilde.alt" horiz-adv-x="1140" 
d="M252 1288l4 2q23 92 96.5 133.5t159.5 10.5q13 -3 59 -27.5t56 -26.5q35 -12 65.5 2t46.5 58l111 -47q-24 -101 -93 -138t-147 -8q-12 3 -60 27t-61 26q-36 16 -73 1.5t-56 -62.5zM848 160l-2 2q-61 -87 -161.5 -132.5t-211.5 -45.5q-79 0 -149 19.5t-127.5 59t-91 105.5
t-33.5 151q0 82 34 146t92 102t129 57.5t150 18.5q207 0 357 -84v80q0 66 -27.5 115t-75 75.5t-103.5 39t-122 12.5q-80 0 -171 -22t-159 -54l-31 141q193 86 363 86q84 0 155 -12.5t133.5 -41.5t106.5 -73.5t69 -112.5t25 -155v-637h-141zM838 416q-66 39 -161.5 62.5
t-174.5 23.5q-51 0 -96.5 -10.5t-84 -31.5t-61 -58.5t-22.5 -86.5t24 -86.5t63.5 -58.5t83 -31t89.5 -10q134 0 235 80.5t105 206.5z" />
    <glyph glyph-name="g.alt" horiz-adv-x="1304" 
d="M1151 -20v-5q0 -103 -27.5 -187t-74.5 -141.5t-112 -97t-138 -57.5t-154 -18q-227 0 -360.5 100.5t-137.5 280.5h164q9 -110 100 -168t236 -58q67 0 126.5 20.5t107.5 60.5t76 108.5t28 156.5v205q-57 -100 -161 -152.5t-216 -52.5q-146 0 -263 63t-186 185t-69 283
q0 160 70 280.5t187.5 181.5t262.5 60q118 0 220.5 -52.5t156.5 -148.5l4 185h160v-1032zM623 870l-2 -2q-155 0 -259 -101.5t-104 -266.5t104.5 -268t258.5 -103q100 0 179 41t119.5 106t59.5 144t0 158.5t-59 144.5t-118.5 106t-178.5 41z" />
    <glyph glyph-name="gbreve.alt" horiz-adv-x="1304" 
d="M922 1450l-2 -2q6 -128 -74 -200t-207 -72q-128 0 -207.5 72t-73.5 200h136q0 -63 36 -104t111 -41q72 0 107.5 41.5t35.5 105.5h138zM1151 -23v-4q0 -103 -27.5 -187t-74.5 -141.5t-112 -97t-138 -57.5t-154 -18q-227 0 -360.5 100.5t-137.5 280.5h164q9 -110 100 -168
t236 -58q67 0 126.5 20.5t107.5 60.5t76 108.5t28 156.5v205q-57 -100 -161 -152.5t-216 -52.5q-146 0 -263 63t-186 185t-69 283q0 160 70 280.5t187.5 181.5t262.5 60q118 0 220.5 -52.5t156.5 -148.5l4 185h160v-1033zM623 868l-2 -2q-155 0 -259 -101.5t-104 -266.5
t104.5 -268t258.5 -103q100 0 179 41t119.5 106t59.5 144t0 158.5t-59 144.5t-118.5 106t-178.5 41z" />
    <glyph glyph-name="gcircumflex.alt" horiz-adv-x="1306" 
d="M608 1468h109l295 -276v-12h-172l-178 163l-177 -163h-172v12zM993 1012l-6 4l-4 -185q-52 95 -154.5 148t-218.5 53q-145 0 -262.5 -61.5t-187.5 -182t-70 -280.5q0 -161 69 -282.5t185.5 -184t261.5 -61.5q113 0 216.5 52.5t160.5 151.5v-204q0 -88 -28 -156.5
t-76 -109t-107.5 -61t-126.5 -20.5q-144 0 -234.5 58t-97.5 168h-163q4 -180 137 -280.5t360 -100.5q102 0 191 29.5t160.5 88.5t113 157.5t41.5 226.5v1032h-160zM256 510l-2 2q0 165 104 267t258 102q100 0 179 -41t119.5 -106.5t59.5 -144.5t0 -158t-59 -144.5
t-118.5 -106.5t-178.5 -41q-154 0 -258 103t-104 268z" />
    <glyph glyph-name="gcommaaccent.alt" horiz-adv-x="1300" 
d="M684 1374h-2q32 -8 52 -31.5t20 -58.5q0 -41 -22.5 -68.5t-55 -33.5t-64.5 1t-54.5 35t-22.5 68q0 8 10.5 38t33 90t39.5 112h113zM150 -141l-7 4q4 -180 137.5 -280.5t360.5 -100.5q102 0 191 29.5t160.5 88.5t113 157.5t41.5 226.5v1032h-160l-4 -185
q-52 95 -154.5 148t-218.5 53q-145 0 -262.5 -61.5t-187.5 -182t-70 -280.5q0 -161 69 -282.5t185.5 -184t261.5 -61.5q113 0 216.5 52.5t160.5 151.5v-204q0 -88 -28 -156.5t-76 -109t-107.5 -61t-126.5 -20.5q-144 0 -234.5 58t-97.5 168h-163zM616 879l-2 2
q100 0 179 -41t119.5 -106.5t59.5 -144.5t0 -158t-59 -144.5t-118.5 -106.5t-178.5 -41q-154 0 -258 103t-104 268t104 267t258 102z" />
    <glyph glyph-name="gdotaccent.alt" horiz-adv-x="1300" 
d="M537 1354q0 41 23 69.5t55.5 35t64.5 -0.5t55 -35.5t23 -70.5q0 -41 -23 -69.5t-55 -35t-64.5 0.5t-55.5 35.5t-23 70.5zM983 -20l-6 4q0 -88 -28 -156.5t-76 -108.5t-107.5 -60.5t-126.5 -20.5q-144 0 -234.5 57.5t-97.5 167.5h-164q4 -180 137.5 -280.5t360.5 -100.5
q102 0 191 29.5t160.5 88.5t113 157.5t41.5 226.5v1032h-160l-4 -185q-52 95 -154.5 148t-218.5 53q-145 0 -262.5 -61.5t-187.5 -182t-70 -280.5q0 -161 69 -282.5t185.5 -184t261.5 -61.5q113 0 216.5 52.5t160.5 151.5v-204zM612 879l-2 2q100 0 179 -41t119.5 -106.5
t59.5 -144.5t0 -158t-59 -144.5t-118.5 -106.5t-178.5 -41q-154 0 -258 103t-104 268t104 267t258 102z" />
    <glyph glyph-name="y.alt" horiz-adv-x="1247" 
d="M1094 -31v-2q0 -123 -37 -218.5t-102 -154t-149 -88.5t-183 -30q-207 0 -328.5 98.5t-134.5 278.5h162q17 -114 91.5 -167t207.5 -53q65 0 120 20t99 60t69 106t25 152v191q-117 -175 -354 -178q-197 0 -319 125.5t-122 343.5v559h168v-557q0 -147 81.5 -231.5
t225.5 -84.5q136 1 224 96.5t88 233.5v543h168v-1043z" />
    <glyph glyph-name="yacute.alt" horiz-adv-x="1247" 
d="M512 1184l147 252h203v-6l-198 -256h-152v10zM154 -147l6 6q13 -180 134.5 -278.5t328.5 -98.5q99 0 183 30t149 88.5t102 154t37 218.5v1043h-168v-543q0 -140 -88 -235.5t-224 -96.5q-144 -1 -225.5 83t-81.5 231v557h-168v-559q0 -217 121.5 -343t317.5 -126
q237 3 352 178v-191q0 -86 -25 -152t-69 -106t-99.5 -60t-120.5 -20q-133 0 -208 53t-93 167h-161z" />
    <glyph glyph-name="ycircumflex.alt" horiz-adv-x="1247" 
d="M274 1184l289 264h107l286 -264v-13h-172l-170 154l-168 -154h-172v13zM1094 -31v-2q0 -123 -37 -218.5t-102 -154t-149 -88.5t-183 -30q-207 0 -328.5 98.5t-134.5 278.5h162q17 -114 91.5 -167t207.5 -53q65 0 120 20t99 60t69 106t25 152v191q-117 -175 -354 -178
q-197 0 -319 125.5t-122 343.5v559h168v-557q0 -147 81.5 -231.5t225.5 -84.5q136 1 224 96.5t88 233.5v543h168v-1043z" />
    <glyph glyph-name="ydieresis.alt" horiz-adv-x="1247" 
d="M297 1337q0 50 33.5 78.5t73 28.5t73 -28.5t33.5 -78.5q0 -40 -22 -67t-53 -33t-62.5 0t-53.5 33t-22 67zM756 1337q0 50 33.5 78.5t73 28.5t73 -28.5t33.5 -78.5q0 -40 -22 -67t-53.5 -33t-62.5 0t-53 33t-22 67zM154 -147l6 6q13 -180 134.5 -278.5t328.5 -98.5
q99 0 183 30t149 88.5t102 154t37 218.5v1043h-168v-543q0 -140 -88 -235.5t-224 -96.5q-144 -1 -225.5 83t-81.5 231v557h-168v-559q0 -217 121.5 -343t317.5 -126q237 3 352 178v-191q0 -86 -25 -152t-69 -106t-99.5 -60t-120.5 -20q-133 0 -208 53t-93 167h-161z" />
    <glyph glyph-name="ygrave.alt" horiz-adv-x="1247" 
d="M387 1430v6h203l147 -252v-10h-151zM1094 -31v-2q0 -123 -37 -218.5t-102 -154t-149 -88.5t-183 -30q-207 0 -328.5 98.5t-134.5 278.5h162q17 -114 91.5 -167t207.5 -53q65 0 120 20t99 60t69 106t25 152v191q-117 -175 -354 -178q-197 0 -319 125.5t-122 343.5v559h168
v-557q0 -147 81.5 -231.5t225.5 -84.5q136 1 224 96.5t88 233.5v543h168v-1043z" />
    <glyph glyph-name="zero.denom" horiz-adv-x="796" 
d="M84 420q0 104 46.5 180.5t116.5 110.5t151.5 34t151.5 -34.5t116.5 -110.5t46.5 -180v-109q0 -79 -27 -143t-71.5 -103.5t-101 -61t-115 -21.5t-115 21.5t-101 61t-71.5 103.5t-27 143v109zM217 309q0 -63 26.5 -109.5t66.5 -68t86 -21.5t86 20.5t66.5 67.5t26.5 111v109
q0 56 -19.5 100.5t-51.5 67.5t-70 33.5t-76 0t-70 -33.5t-51.5 -67.5t-19.5 -100.5v-109z" />
    <glyph glyph-name="one.denom" horiz-adv-x="522" 
d="M74 117h129v471l-111 -29v119l246 59v-620h131v-117h-395v117z" />
    <glyph glyph-name="two.denom" horiz-adv-x="743" 
d="M82 0l2 2v178q0 205 291 230q153 10 153 114q0 111 -155 111q-150 0 -152 -107h-133q0 60 24.5 105.5t66 71t90 37.5t102.5 12q60 0 110 -12t92 -37.5t65.5 -71.5t23.5 -109q0 -54 -18 -95t-43.5 -64t-65 -38.5t-70 -20.5t-70.5 -9q-35 -4 -60 -9.5t-54.5 -17.5
t-45.5 -35.5t-16 -56.5v-45h432v-133h-569z" />
    <glyph glyph-name="three.denom" horiz-adv-x="749" 
d="M213 215h-4q9 -102 158 -102q65 0 113 24t48 84q0 41 -38 74t-119 33h-115v110h106q152 0 152 99q0 37 -38 68.5t-114 31.5q-62 0 -107.5 -24t-49.5 -83h-121q0 57 24.5 100.5t65 69t89 38t102.5 12.5q74 0 136.5 -22.5t105.5 -72.5t44 -120q0 -56 -29 -98.5t-79 -57.5
q58 -16 92.5 -62.5t34.5 -95.5q0 -64 -27 -111.5t-72.5 -73t-96.5 -37t-109 -11.5q-56 0 -105.5 12.5t-92 38t-67.5 71t-26 105.5h139z" />
    <glyph glyph-name="four.denom" horiz-adv-x="747" 
d="M584 739v-469h86v-120h-86v-148h-133v148h-394l-6 110l352 479h181zM451 270v340l-252 -340h252z" />
    <glyph glyph-name="five.denom" horiz-adv-x="741" 
d="M371 471l2 -2q141 0 220.5 -62.5t78.5 -181.5q0 -114 -80.5 -177.5t-216.5 -63.5q-59 0 -108.5 11.5t-92.5 36t-68 70t-26 107.5h131q0 -54 45.5 -78.5t114.5 -24.5q85 0 124.5 33t39.5 88q0 54 -38.5 89.5t-125.5 35.5h-275v387h531v-118h-402v-150h146z" />
    <glyph glyph-name="six.denom" horiz-adv-x="770" 
d="M229 399h-2q60 60 168 60q46 0 87 -6.5t80.5 -23.5t68 -43t46 -68t17.5 -95q0 -61 -26 -108t-70 -73.5t-95.5 -40t-107.5 -13.5q-57 0 -109 14t-95.5 42t-69 75t-25.5 108v285q0 80 43.5 136t107.5 80t140 24q81 0 145 -20.5t105.5 -67.5t44.5 -115h-133q-9 84 -160 84
q-72 0 -116 -30t-44 -91v-113zM395 104v-2q67 0 115.5 29.5t48.5 91.5q0 61 -48.5 92t-115.5 31q-68 0 -118 -31t-50 -90q0 -62 49 -91.5t119 -29.5z" />
    <glyph glyph-name="seven.denom" horiz-adv-x="649" 
d="M59 739h547l8 -59l-350 -680h-153l325 618h-377v121z" />
    <glyph glyph-name="eight.denom" horiz-adv-x="786" 
d="M82 207h2q0 61 39 109t102 67q-59 21 -93 62t-34 98q0 55 26 97.5t69.5 67t94.5 36.5t107 12t107 -12t95 -36t70.5 -66.5t26.5 -98.5q0 -116 -125 -160q62 -19 101 -68.5t39 -109.5q0 -50 -18.5 -89.5t-49 -64t-72.5 -41t-85.5 -23t-90.5 -5.5q-59 0 -111.5 11.5t-99 36
t-74 70t-26.5 107.5zM557 543v-2q0 53 -49.5 78.5t-112.5 25.5q-39 0 -73.5 -9t-61.5 -33t-27 -60q0 -53 45.5 -79t116.5 -26q70 0 115.5 26t46.5 79zM569 207v-4q0 56 -52.5 87.5t-121.5 31.5q-70 0 -122 -30t-52 -87q0 -52 53 -81.5t121 -29.5q67 0 120.5 30t53.5 83z" />
    <glyph glyph-name="nine.denom" horiz-adv-x="768" 
d="M672 225l2 -2q0 -80 -43.5 -136t-107.5 -79.5t-140 -23.5q-81 0 -144.5 20.5t-105.5 67.5t-45 116h133q9 -84 160 -84q72 0 116 30t44 91v113q-59 -59 -168 -59q-46 0 -87 6.5t-80.5 23.5t-68 42.5t-46 67.5t-17.5 95q0 61 26 108t70 74t95.5 40.5t107.5 13.5
q122 0 210.5 -61t88.5 -177v-287zM373 631v4q-67 0 -115.5 -29.5t-48.5 -91.5q0 -61 48.5 -92t115.5 -31q68 0 118 30.5t50 88.5q0 62 -49 91.5t-119 29.5z" />
    <glyph glyph-name="zero.num" horiz-adv-x="796" 
d="M84 1128v2q0 124 65 209t157 104.5t184.5 -0.5t157.5 -105.5t65 -209.5v-108q0 -79 -27 -143t-71.5 -103.5t-101 -61t-115 -21.5t-115 21.5t-101 61t-71.5 103.5t-27 143v108zM215 1020q0 -63 26.5 -109.5t66.5 -68t86 -21.5t86 20.5t66.5 67.5t26.5 111v110
q0 56 -19.5 100.5t-51.5 67.5t-70 33.5t-76 0t-70 -33.5t-51.5 -67.5t-19.5 -100.5v-110z" />
    <glyph glyph-name="one.num" horiz-adv-x="528" 
d="M78 836h129v469l-111 -27v119l246 59v-620h131v-119h-395v119z" />
    <glyph glyph-name="two.num" horiz-adv-x="747" 
d="M88 1229l4 -2q0 60 24.5 105.5t66 70.5t90 37t102.5 12q60 0 110 -11.5t92 -37t65.5 -71.5t23.5 -109q0 -56 -19.5 -98.5t-45.5 -65t-68.5 -37.5t-72 -20t-71.5 -9q-166 -14 -166 -116v-43h434v-134h-571v179q0 57 23 100.5t63 68t85 38t99 18.5q82 7 127 34t45 87
q0 110 -155 110q-150 0 -152 -106h-133z" />
    <glyph glyph-name="three.num" horiz-adv-x="751" 
d="M215 918l-4 2q9 -103 158 -103q40 0 73 7.5t60.5 33t27.5 66.5t-38 73.5t-119 32.5h-115v111h107q151 0 151 98q0 37 -37.5 68.5t-113.5 31.5q-62 0 -108 -23.5t-50 -82.5h-121q0 57 24.5 100.5t65.5 68.5t89 37.5t102 12.5q74 0 136.5 -22.5t105.5 -72.5t44 -120
q0 -56 -29 -98.5t-79 -55.5q59 -16 93 -62.5t34 -96.5q0 -64 -27 -112t-72.5 -73t-96.5 -37t-109 -12q-76 0 -138.5 21t-107 74t-45.5 133h139z" />
    <glyph glyph-name="four.num" horiz-adv-x="747" 
d="M584 1438v-469h86v-121h-86v-148h-133v148h-394l-6 110l352 480h181zM451 969v340l-252 -340h252z" />
    <glyph glyph-name="five.num" horiz-adv-x="739" 
d="M369 1167v-2q141 0 221 -62t80 -181q0 -114 -80.5 -178t-214.5 -64q-59 0 -108.5 11.5t-92.5 36t-68 70t-26 107.5h131q0 -54 45 -78t115 -24q85 0 124.5 33t39.5 88q0 54 -39 89.5t-127 35.5h-273v387h531v-119h-402v-150h144z" />
    <glyph glyph-name="six.num" horiz-adv-x="770" 
d="M229 1102l-2 2q59 59 168 59q59 0 109 -11.5t94.5 -37t70 -73.5t25.5 -115q0 -61 -26 -108t-70 -74t-95.5 -40.5t-107.5 -13.5q-122 0 -210.5 61t-88.5 177v286q0 80 43.5 136t107.5 80t140 24q81 0 145 -20.5t105.5 -67.5t44.5 -115h-133q-9 84 -160 84q-72 0 -116 -30
t-44 -91v-112zM393 809q67 0 115.5 29t48.5 90t-48.5 92t-115.5 31q-68 0 -118 -31t-50 -90q0 -62 49 -91.5t119 -29.5z" />
    <glyph glyph-name="seven.num" horiz-adv-x="649" 
d="M59 1436h547l8 -60l-350 -680h-153l325 617h-377v123z" />
    <glyph glyph-name="eight.num" horiz-adv-x="788" 
d="M80 907l4 -6q0 61 38.5 109t100.5 67q-59 21 -93 62.5t-34 99.5q0 55 26 97.5t69.5 67t94.5 36.5t107 12t107 -11.5t95 -35.5t70.5 -66.5t26.5 -97.5q0 -115 -123 -160q61 -19 100.5 -68t39.5 -108q0 -50 -18.5 -89.5t-49 -64t-72.5 -41t-85.5 -23t-90.5 -5.5
q-59 0 -111.5 11.5t-99.5 36t-74.5 70t-27.5 107.5zM557 1235q0 53 -49.5 78.5t-110.5 25.5q-63 0 -111.5 -25.5t-47.5 -78.5q0 -53 44.5 -79t114.5 -26t115 26.5t45 78.5zM571 901q0 56 -52.5 87.5t-121.5 31.5q-71 0 -122.5 -30t-51.5 -89q0 -52 53 -81t121 -29
q67 0 120.5 29t53.5 81z" />
    <glyph glyph-name="nine.num" horiz-adv-x="770" 
d="M539 1044h4q-59 -59 -168 -59q-46 0 -87 6.5t-80.5 23.5t-68 43t-46 68t-17.5 95q0 61 26 108t70 73.5t95.5 40t107.5 13.5q57 0 109 -14t95.5 -42t69 -75t25.5 -108v-285q0 -118 -86 -179t-207 -61q-81 0 -145 20.5t-105.5 67.5t-44.5 115h133q9 -84 160 -84
q72 0 116 30t44 91v112zM543 1219v2q0 62 -49 91t-119 29q-67 0 -115.5 -29t-48.5 -91q0 -61 48.5 -92t115.5 -31q68 0 118 31t50 90z" />
    <glyph glyph-name="zero.tf" 
d="M131 858q0 191 85.5 331t214.5 203t278.5 63t278.5 -63.5t214.5 -203.5t85.5 -330v-280q0 -190 -85.5 -330t-214.5 -203.5t-278.5 -63.5t-278.5 63t-214.5 203t-85.5 331v280zM311 578v-3q0 -118 44 -210t114 -139t155.5 -69t170.5 0.5t155 70.5t114 140t44 210v280
q0 102 -34 185t-90.5 134t-128 79t-146 28t-146 -27.5t-128 -78.5t-90.5 -134t-34 -186v-280z" />
    <glyph glyph-name="one.tf" 
d="M262 154h375v1056l-344 -84v164l524 144v-1280h397v-154h-952v154z" />
    <glyph glyph-name="two.tf" 
d="M154 1036l-2 -2q3 95 38.5 169t89.5 119.5t128 75t149.5 41t159.5 11.5q86 0 164 -13.5t151 -45.5t126.5 -80t86 -123t33.5 -168q0 -95 -32 -169.5t-85.5 -121.5t-127 -78.5t-151 -44t-163.5 -12.5q-56 -1 -105.5 -7t-103.5 -22.5t-92 -43t-63 -71.5t-25 -104v-176h944
v-172h-1127v348q0 94 33.5 167t87.5 119t130 75.5t153 41t164 11.5q50 0 99 6.5t102.5 25t93.5 46t66 74.5t26 106q0 74 -33.5 129t-90 85.5t-121 45.5t-136.5 16q-72 0 -136.5 -13t-122 -41t-92.5 -80.5t-36 -123.5h-180z" />
    <glyph glyph-name="three.tf" 
d="M158 1061l-4 2q1 87 34.5 156.5t88 113t128 72t148 40t154.5 11.5q155 0 277.5 -47t194 -139.5t72.5 -216.5q0 -106 -72.5 -196t-183.5 -116q119 -30 202 -123.5t83 -205.5q0 -137 -77.5 -235.5t-205.5 -145.5t-292 -47q-82 0 -159 11.5t-153.5 41t-133 74t-91.5 117
t-35 163.5h180q1 -60 28 -105.5t67.5 -71t96 -41.5t104 -21t100.5 -5q172 0 280.5 71t108.5 188q0 48 -21.5 91.5t-65 81.5t-119.5 60.5t-175 22.5h-232v149h220q163 0 265.5 67.5t104.5 170.5q2 99 -91 171t-275 72q-66 0 -124.5 -9.5t-118 -33t-95 -72t-35.5 -116.5h-178z
" />
    <glyph glyph-name="four.tf" 
d="M1118 1434v-961h174v-172h-174v-301h-180v301h-827l-25 197l748 936h284zM938 1282l-649 -809h649v809z" />
    <glyph glyph-name="five.tf" 
d="M745 899l3 2q259 0 400.5 -121t139.5 -329q0 -208 -152.5 -335.5t-406.5 -127.5q-90 0 -169 12.5t-153.5 43t-128 78t-85.5 121.5t-33 169h182q0 -74 35.5 -126.5t96 -78.5t122 -36.5t131.5 -10.5q172 0 275.5 77t103.5 212q0 130 -92.5 206t-268.5 76h-555v703h1016
v-170h-839v-365h378z" />
    <glyph glyph-name="six.tf" 
d="M332 717l2 -6q65 95 171.5 137.5t231.5 42.5q87 0 167 -15t155 -50t130.5 -86.5t88.5 -130t33 -175.5q0 -93 -33 -170.5t-89 -129.5t-131 -88.5t-156 -52.5t-167 -16q-87 0 -169 16.5t-157.5 53.5t-131.5 90t-89.5 131t-33.5 172v586q0 106 48 190t129 135.5t180 78
t208 26.5q114 0 212.5 -23.5t177 -70t125 -122.5t50.5 -173h-184q-3 73 -57 126.5t-138 79t-186 25.5q-100 0 -186 -30t-143.5 -94t-57.5 -150v-307zM733 141v2q74 0 141.5 16t126 48.5t93 91t34.5 135.5q0 73 -33.5 131t-90 93.5t-125.5 54t-144 18.5t-145 -18.5
t-128 -53.5t-93 -93.5t-35 -131.5q0 -62 23 -112t61.5 -83.5t90.5 -55.5t108 -32t116 -10z" />
    <glyph glyph-name="seven.tf" 
d="M1028 1262h-833v172h1056l15 -115l-717 -1319h-211z" />
    <glyph glyph-name="eight.tf" 
d="M104 401l5 5q0 117 77 209t199 126q-115 44 -180.5 122.5t-65.5 185.5q0 106 50 188t133.5 129.5t182 71.5t206.5 24q107 0 206 -23.5t183.5 -71t135 -129.5t50.5 -189q0 -105 -69.5 -186t-186.5 -120q120 -34 200 -130t81 -212q1 -115 -52 -201.5t-142 -135.5
t-192.5 -72.5t-217.5 -22.5q-89 0 -172.5 13.5t-163 46t-138.5 81t-94.5 123.5t-34.5 168zM1100 1057q1 65 -34.5 115.5t-93 80.5t-124.5 45t-137 15q-72 0 -139.5 -16t-124 -46.5t-90.5 -80.5t-33 -113t38 -112t95.5 -76.5t123.5 -41.5t130 -14q67 0 132 14t124 41.5
t95.5 76.5t37.5 112zM711 672v4q-53 0 -107.5 -8.5t-110.5 -29t-99 -50t-70.5 -76.5t-28.5 -104q0 -65 38 -117t99.5 -83.5t133 -48t145.5 -16.5t145.5 16.5t133 47.5t99 82.5t37.5 116.5q0 69 -39.5 123t-103.5 84t-133 44.5t-139 14.5z" />
    <glyph glyph-name="nine.tf" 
d="M1087 721l-2 6q-64 -94 -171 -137t-230 -43q-87 0 -167 15t-155 50t-130 86.5t-88 130t-33 175.5q0 93 33 170.5t89 129.5t130.5 88t155.5 52t167 16q87 0 169.5 -16.5t157.5 -53.5t131.5 -90t90 -131t33.5 -172v-585q0 -85 -31.5 -157t-86 -121.5t-127 -84t-154 -51
t-167.5 -16.5q-114 0 -213 23.5t-177.5 70t-125.5 122.5t-51 173h182q3 -73 57.5 -127t139 -79.5t186.5 -25.5q100 0 186 30.5t143.5 94.5t57.5 150v307zM686 1296l-2 -2q-59 0 -113.5 -9.5t-106.5 -31t-90.5 -54t-61.5 -83t-23 -112.5q0 -61 22.5 -111.5t60 -84.5t88 -57
t106.5 -33.5t116 -10.5q75 0 145 18.5t128 53.5t93 93.5t35 131.5q0 77 -34.5 135t-93 91.5t-126.5 49.5t-143 16z" />
    <glyph glyph-name="bullet.case" horiz-adv-x="804" 
d="M406 463l-3 -2q-100 0 -164.5 62t-64.5 163q0 100 65.5 162.5t166.5 62.5q97 0 161 -62.5t64 -162.5t-64 -161.5t-161 -61.5z" />
    <glyph glyph-name="periodcentered.case" horiz-adv-x="528" 
d="M150 686q0 43 23.5 73t57 37t67.5 0t57.5 -36t23.5 -72t-23.5 -73t-57.5 -37t-67.5 0t-57 36t-23.5 72z" />
    <glyph glyph-name="braceleft.case" horiz-adv-x="698" 
d="M608 -160l-2 4q-201 -33 -285.5 42t-84.5 264v294q0 209 -154 209v127q154 0 154 209v281q0 188 87 265.5t283 41.5v-127q-117 23 -160 -18.5t-43 -167.5v-275q0 -41 -0.5 -59.5t-4 -53.5t-12.5 -54t-24 -42.5t-41 -39t-61 -25.5q27 -7 48.5 -17.5t36.5 -26t26 -29.5
t17.5 -36.5t10 -37.5t5 -42.5t2 -41.5t0.5 -44v-288q0 -126 40 -163t162 -18v-131z" />
    <glyph glyph-name="braceright.case" horiz-adv-x="696" 
d="M90 -29v2q123 -19 164 18t41 161v290q0 35 0.5 50.5t3 47t7.5 47.5t15 40.5t25 39t38.5 28.5t53.5 22q-31 9 -54.5 23t-38.5 28t-25.5 38t-15.5 40t-7.5 47t-3 46t-0.5 50v277q0 126 -43 167.5t-160 18.5v125q196 36 283.5 -41t87.5 -264v-283q0 -32 3 -59t12.5 -56
t26 -48.5t45 -32.5t66.5 -13v-129q-38 0 -66.5 -13t-45 -32.5t-26 -48.5t-12.5 -56t-3 -59v-295q0 -189 -84.5 -263.5t-286.5 -41.5v129z" />
    <glyph glyph-name="bracketleft.case" horiz-adv-x="702" 
d="M186 1618h426v-154h-254v-1503h254v-156h-426v1813z" />
    <glyph glyph-name="bracketright.case" horiz-adv-x="702" 
d="M516 -195h-426v156h254v1503h-254v154h426v-1813z" />
    <glyph glyph-name="parenleft.case" horiz-adv-x="716" 
d="M651 1522q-181 -134 -277 -341.5t-98 -443.5q-2 -242 93 -448t282 -346l-90 -127q-224 146 -342.5 392t-118.5 521q0 272 120 517t345 394z" />
    <glyph glyph-name="parenright.case" horiz-adv-x="714" 
d="M150 1645v-3q225 -148 344.5 -392t119.5 -515q0 -275 -118 -521t-342 -392l-88 129q186 139 280 344.5t92 447.5q-2 236 -98 443.5t-277 341.5z" />
    <glyph glyph-name="emdash.case" horiz-adv-x="1449" 
d="M152 768h1146v-158h-1146v158z" />
    <glyph glyph-name="endash.case" horiz-adv-x="1241" 
d="M152 764h938v-158h-938v158z" />
    <glyph glyph-name="hyphen.case" horiz-adv-x="1032" 
d="M150 774h733v-162h-733v162z" />
    <glyph glyph-name="guillemotleft.case" horiz-adv-x="1005" 
d="M403 1141h181l-281 -451l281 -452h-181l-282 452zM401 690l285 451h178l-278 -451l278 -452h-178z" />
    <glyph glyph-name="guillemotright.case" horiz-adv-x="1003" 
d="M317 250h-178l279 452l-279 451h178l283 -451zM883 702l-283 -452h-178l278 452l-278 451h178z" />
    <glyph glyph-name="guilsinglleft.case" horiz-adv-x="724" 
d="M119 705l282 450h181l-281 -450l281 -453h-181z" />
    <glyph glyph-name="guilsinglright.case" horiz-adv-x="724" 
d="M324 246h-181l281 452l-281 451h181l282 -451z" />
    <glyph glyph-name="florin.tf" 
d="M602 854l-2 -2h-295v147h295v80q0 173 90.5 270t251.5 97q120 0 227 -74l-67 -125q-85 51 -156 51q-85 0 -131.5 -54t-46.5 -165v-80h348v-147h-348v-856q0 -176 -83.5 -272.5t-242.5 -96.5q-105 0 -209 72l68 123q38 -29 66 -39t71 -10q164 0 164 225v856z" />
    <glyph glyph-name="cent.tf" 
d="M702 -33h3q-196 29 -320.5 167.5t-124.5 348.5q0 202 123.5 343.5t321.5 172.5v134h157v-134q173 -25 297 -149l-104 -107q-53 51 -125.5 80t-143.5 29q-154 0 -258 -101t-104 -268q0 -169 103.5 -268.5t258.5 -99.5q68 0 140.5 31.5t126.5 84.5l106 -120
q-128 -125 -299 -146v-145h-158v147z" />
    <glyph glyph-name="dollar.tf" 
d="M805 1645v-3v-192q333 -34 452 -262l-151 -76q-48 84 -160 131t-231 47q-68 0 -132 -12.5t-123 -39t-94 -75t-34 -112.5q0 -34 11.5 -61.5t29 -48t48.5 -37.5t59.5 -28t73.5 -21.5t79.5 -17t87.5 -14.5q80 -13 123.5 -20.5t115.5 -25.5t112 -36.5t91 -50.5t77.5 -71
t45.5 -96t19 -126q-1 -78 -30.5 -144.5t-78 -113t-113.5 -80.5t-135.5 -51.5t-144.5 -21.5v-201h-166v197q-84 5 -162.5 25.5t-150.5 57t-130.5 94.5t-93.5 132l162 74q26 -54 76 -97t112.5 -68.5t129.5 -39t133 -13.5q71 0 139 13.5t130 41.5t100 79.5t38 119.5
q1 52 -23.5 92.5t-60.5 66t-96 46.5t-111.5 32.5t-126.5 23.5q-56 8 -91.5 14t-87 17t-85 21.5t-75.5 28t-69.5 37t-56 47t-45 59.5t-27 74t-11.5 91q-1 77 27 141.5t75 109t111.5 77t132 50t139.5 23.5v193h166z" />
    <glyph glyph-name="Euro.tf" 
d="M1260 16l4 -6q-121 -41 -252 -41q-304 0 -478 142.5t-229 396.5h-133v141h115q-2 8 -2 56q0 43 2 63h-115v143h137q23 117 78 214.5t140 171.5t208.5 115.5t274.5 41.5q99 0 211 -33l-52 -157q-76 20 -159 20q-211 0 -340 -98t-176 -275h518l-35 -143h-518q-2 -18 -2 -59
q0 -40 2 -54h487l-31 -141h-423q42 -175 172 -271t346 -96q105 0 198 37z" />
    <glyph glyph-name="sterling.tf" 
d="M162 743l2 -2h153q-1 3 -10 39.5t-11.5 46t-9 41.5t-9 49.5t-5 44t-2.5 50.5q0 212 139 326t365 114q80 0 148.5 -13t129 -42.5t103 -75t68.5 -113t28 -153.5h-164q-8 239 -313 239q-156 0 -242 -74t-86 -204q0 -26 2.5 -53t8.5 -58.5t10 -51t13 -57.5t12 -51h481v-151
h-451q39 -275 -145 -422h885v-170h-1100v166q125 95 163.5 196t22.5 228h-186v151z" />
    <glyph glyph-name="yen.tf" 
d="M297 430h317v117h-317v137h250l-488 743v7h213l435 -680l440 680h215v-7l-498 -743h254v-137h-321v-117h321v-135h-321v-295h-183v295h-317v135z" />
    <glyph glyph-name="bar.case" horiz-adv-x="544" 
d="M356 1548v-1704h-168v1704h168z" />
    <glyph glyph-name="commaaccentcomb.alt" horiz-adv-x="1028" 
d="M512 1430v-3q32 -8 52 -31.5t20 -60.5q0 -41 -23 -68.5t-55.5 -33t-65 1.5t-55.5 35t-23 69q0 8 12.5 45.5t37.5 109t41 120.5h112z" />
    <glyph glyph-name="_0004" horiz-adv-x="0" 
 />
    <glyph glyph-name="asterisk.alt" horiz-adv-x="647" 
d="M104 1040l101 123l-158 37q-30 9 -31.5 44t20.5 61.5t50 17.5l156 -53l-9 141q0 33 32 46.5t65 0t35 -46.5l-9 -141l156 53q28 9 50 -17.5t20.5 -61.5t-31.5 -44l-158 -37l101 -123q27 -33 6 -66t-56 -35.5t-57 28.5l-88 129l-88 -129q-17 -34 -56.5 -28.5t-56 35.5
t5.5 66z" />
    </font>
</defs>
</svg>
