<?xml version="1.0" encoding="utf-8"?>
<!-- Generator: Adobe Illustrator 22.0.1, SVG Export Plug-In . SVG Version: 6.00 Build 0)  -->
<svg version="1.1" id="Layer_1" xmlns="http://www.w3.org/2000/svg" xmlns:xlink="http://www.w3.org/1999/xlink" x="0px" y="0px"
	 width="432px" height="296px" viewBox="0 0 432 296" style="enable-background:new 0 0 432 296;" xml:space="preserve">
<g fill="#fff">
	<path id="XMLID_184_" d="M61.1,120.2c0,0-1.8,8,15.3,25.7c0,0,9.8,9.8,18.2,26.5l-10,8.5c0,0-5.5-13.2-16.7-25.6
		c0,0-15.3-19.2-15.3-25.8L61.1,120.2z"/>
	<path id="XMLID_183_" d="M81.5,134.5c12.7,14.2,23.2,25.4,21.2,38.5c8.6-7.1,3.9-19.3,3-27.7c-5.9-15.7-24.2-23.6-28.4-43.5
		c0,0-3.3,0.4-9.3,2.7C67.9,104.5,66.1,117.3,81.5,134.5z"/>
	<path id="XMLID_182_" d="M77.7,191.7c-12.2-25.6-21.7-28.7-31.4-47.6c-7.1-13.8-2.5,11.5-0.7,21.8c0.3,0.4,0.6,1.5,0.9,1.9
		c10.1,13.9,14.1,15.9,19.8,31c0,0,3.4-3.6,10.8-7.1C77,191.2,77.7,191.7,77.7,191.7z"/>
	<path id="XMLID_181_" d="M94.6,225.9c26.9-21.5,36.3-40.7,20-64.1c0,0,6.2,23.7-17.4,43.5c-24.9,20.9-47.2,33.6-27.1,69.9
		C69.9,258.7,66.9,248,94.6,225.9z"/>
	<path id="XMLID_180_" d="M81.2,201.5c26.9-21.5,36.3-40.7,20-64.1c0,0,6.2,23.7-17.4,43.5c-24.9,20.9-47.2,33.6-27.1,69.9
		C56.5,234.3,53.5,223.6,81.2,201.5z"/>
	<path id="XMLID_179_" d="M70.6,118.2c26.9-21.5,36.3-40.7,20-64.1c0,0,6.2,23.7-17.4,43.5c-24.9,20.9-47.2,33.6-27.1,69.9
		C44.2,155.4,42.9,140.3,70.6,118.2z"/>
	<path id="XMLID_178_" d="M57.3,94.9c26.9-21.5,36.3-40.7,20-64.1c0,0,6.2,23.7-17.4,43.5C35,95.2,12.8,107.9,32.9,144.2
		C32.6,127.7,29.6,117,57.3,94.9z"/>
</g>
<g fill="#fff">
	<path d="M165.5,223.7c-2.3-1.3-4.1-3.2-5.4-5.7c-1.2-2.5-1.9-5.3-1.9-8.6c0-3.3,0.6-6.1,1.9-8.6c1.2-2.4,3-4.3,5.4-5.7
		c2.3-1.3,5-2,8.2-2c2.1,0,4.1,0.3,6,1c1.9,0.7,3.5,1.6,4.8,2.8l-1.9,4.2c-1.4-1.1-2.9-2-4.3-2.5c-1.4-0.5-2.9-0.8-4.5-0.8
		c-3.1,0-5.4,1-7.1,3c-1.7,2-2.5,4.8-2.5,8.5c0,3.7,0.8,6.6,2.5,8.6c1.7,2,4,3,7.1,3c1.6,0,3.1-0.3,4.5-0.8c1.4-0.5,2.8-1.4,4.3-2.5
		l1.9,4.2c-1.3,1.2-2.9,2.1-4.8,2.8c-1.9,0.7-3.9,1-6,1C170.5,225.7,167.8,225.1,165.5,223.7z"/>
	<path d="M250.5,193.6h4.5v31.7H250v-21l-8.4,15.8h-3.9l-8.4-15.6l0,20.7h-5.1v-31.7h4.6l10.9,20.7L250.5,193.6z"/>
	<path d="M288.4,193.6h4.5v31.7h-5.1v-21l-8.4,15.8h-3.9l-8.4-15.6l0,20.7h-5.1v-31.7h4.6l10.9,20.7L288.4,193.6z"/>
	<path d="M299.8,225.3v-31.7H321v4.6h-15.6v8.7h14.7v4.5h-14.7v9.3H321v4.6H299.8z"/>
	<path d="M352.8,225.3h-6.3l-5.4-10.1c-0.5-1-1.1-1.6-1.9-2c-0.7-0.4-1.7-0.6-2.8-0.6H332v12.7h-5.7v-31.7h14c3.6,0,6.3,0.8,8.2,2.4
		c1.9,1.6,2.8,3.9,2.8,6.9c0,2.4-0.7,4.4-2,6c-1.4,1.6-3.3,2.6-5.8,3.1c1.7,0.4,3,1.6,4,3.6L352.8,225.3z M344.3,206.9
		c1-0.8,1.5-2.1,1.5-3.8c0-1.7-0.5-3-1.5-3.8c-1-0.8-2.6-1.2-4.8-1.2h-7.6v10h7.6C341.7,208.2,343.3,207.8,344.3,206.9z"/>
	<path d="M387.8,225.3v-31.7H409v4.6h-15.6v8.7h14.7v4.5h-14.7v9.3H409v4.6H387.8z"/>
	<path d="M195.2,223.8c-2.3-1.3-4-3.2-5.2-5.7c-1.2-2.5-1.8-5.3-1.8-8.6c0-3.3,0.6-6.2,1.8-8.6c1.2-2.4,3-4.3,5.2-5.6
		c2.3-1.3,5-2,8-2c3.1,0,5.8,0.7,8,2c2.3,1.3,4,3.2,5.2,5.6c1.2,2.4,1.8,5.3,1.8,8.6c0,3.3-0.6,6.2-1.8,8.6c-1.2,2.5-3,4.3-5.2,5.7
		c-2.3,1.3-4.9,2-8,2C200.2,225.7,197.5,225.1,195.2,223.8z M210.1,218.1c1.6-2,2.5-4.9,2.5-8.6c0-3.7-0.8-6.6-2.5-8.6
		c-1.6-2-3.9-3-6.8-3c-2.9,0-5.2,1-6.9,3c-1.6,2-2.5,4.9-2.5,8.6c0,3.7,0.8,6.6,2.5,8.6c1.6,2,3.9,3,6.9,3
		C206.2,221.1,208.4,220.1,210.1,218.1z"/>
	<path d="M363.5,223.7c-2.3-1.3-4.1-3.2-5.4-5.7c-1.2-2.5-1.9-5.3-1.9-8.6c0-3.3,0.6-6.1,1.9-8.6c1.2-2.4,3-4.3,5.4-5.7
		c2.3-1.3,5-2,8.2-2c2.1,0,4.1,0.3,6,1c1.9,0.7,3.5,1.6,4.8,2.8l-1.9,4.2c-1.4-1.1-2.9-2-4.3-2.5c-1.4-0.5-2.9-0.8-4.5-0.8
		c-3.1,0-5.4,1-7.1,3c-1.7,2-2.5,4.8-2.5,8.5c0,3.7,0.8,6.6,2.5,8.6c1.7,2,4,3,7.1,3c1.6,0,3.1-0.3,4.5-0.8c1.4-0.5,2.8-1.4,4.3-2.5
		l1.9,4.2c-1.3,1.2-2.9,2.1-4.8,2.8c-1.9,0.7-3.9,1-6,1C368.6,225.7,365.8,225.1,363.5,223.7z"/>
	<path d="M348.7,178.8c-6.7-1.8-12.1-4.3-16.3-7.3l7.4-17c4.4,2.8,9.2,4.9,14.2,6.4c5,1.5,10.1,2.2,15.3,2.2c5.2,0,9.2-0.7,11.9-2.2
		c2.7-1.4,4.1-3.5,4.1-6.1c0-2.3-1.2-4.3-3.7-5.7c-2.5-1.5-7.2-3-14.2-4.4c-8.6-1.8-15.4-4-20.2-6.5c-4.9-2.5-8.3-5.5-10.2-8.9
		c-2-3.4-2.9-7.6-2.9-12.5c0-5.7,1.6-10.7,4.8-15.2c3.2-4.5,7.7-8,13.4-10.6c5.8-2.6,12.4-3.9,19.9-3.9c6.6,0,13,0.9,19.3,2.8
		c6.2,1.9,11.1,4.3,14.6,7.2l-7.3,17c-8.4-5.7-17.1-8.6-26.4-8.6c-4.4,0-8,0.8-10.7,2.5c-2.7,1.7-4,3.9-4,6.7c0,1.7,0.5,3,1.4,4
		c1,1,2.7,2.1,5.4,3.1c2.6,1,6.5,2,11.6,3.1c8.4,1.8,14.9,4,19.7,6.6c4.8,2.6,8.2,5.5,10.2,8.9c2,3.4,3,7.4,3,12.1
		c0,9.1-3.5,16.1-10.4,21.2c-7,5.1-16.8,7.6-29.4,7.6C362.2,181.5,355.4,180.6,348.7,178.8z"/>
	<path d="M262,178.8c-6.7-1.8-12.1-4.3-16.3-7.3l7.4-17c4.4,2.8,9.2,4.9,14.2,6.4c5,1.5,10.1,2.2,15.3,2.2c5.2,0,9.2-0.7,11.9-2.2
		c2.7-1.4,4.1-3.5,4.1-6.1c0-2.3-1.2-4.3-3.7-5.7c-2.5-1.5-7.2-3-14.2-4.4c-8.6-1.8-15.4-4-20.2-6.5c-4.9-2.5-8.3-5.5-10.2-8.9
		c-2-3.4-2.9-7.6-2.9-12.5c0-5.7,1.6-10.7,4.8-15.2c3.2-4.5,7.7-8,13.4-10.6c5.8-2.6,12.4-3.9,19.9-3.9c6.6,0,13,0.9,19.3,2.8
		c6.2,1.9,11.1,4.3,14.6,7.2l-7.3,17c-8.4-5.7-17.1-8.6-26.4-8.6c-4.4,0-8,0.8-10.7,2.5c-2.7,1.7-4,3.9-4,6.7c0,1.7,0.5,3,1.4,4
		c1,1,2.7,2.1,5.4,3.1c2.6,1,6.5,2,11.6,3.1c8.4,1.8,14.9,4,19.7,6.6c4.8,2.6,8.2,5.5,10.2,8.9c2,3.4,3,7.4,3,12.1
		c0,9.1-3.5,16.1-10.4,21.2c-7,5.1-16.8,7.6-29.4,7.6C275.5,181.5,268.7,180.6,262,178.8z"/>
	<path d="M232.5,140.9c2.9,3.9,4.3,8.6,4.3,14.3c0,5-1.3,9.5-4,13.3c-2.7,3.8-6.4,6.7-11.4,8.8c-4.9,2.1-10.7,3.1-17.3,3.1h-45.8
		v-92h44.5c9.7,0,17.3,2.2,23,6.5c5.7,4.3,8.6,10.1,8.6,17.4c0,4.7-1.3,8.9-3.8,12.5c-2.5,3.6-6.1,6.2-10.6,7.9
		C225.5,134.2,229.7,137,232.5,140.9z M181.7,124.5h17.1c4.5,0,7.8-0.7,9.9-2.1c2.1-1.4,3.1-3.6,3.1-6.7c0-3.2-1-5.6-3.1-7.1
		c-2.1-1.5-5.4-2.2-9.9-2.2h-17.1V124.5z M211.4,159.9c2-1.5,3.1-4,3.1-7.5c0-3.5-1-6-3.1-7.5c-2-1.5-5.5-2.3-10.2-2.3h-19.5v19.6
		h19.5C206,162.2,209.4,161.5,211.4,159.9z"/>
</g>
</svg>
